<?xml version="1.0" standalone="no"?>
<!DOCTYPE svg PUBLIC "-//W3C//DTD SVG 1.1//EN" "http://www.w3.org/Graphics/SVG/1.1/DTD/svg11.dtd" >
<!--
2013-9-30: Created.
-->
<svg>
<metadata>
Created by iconfont
</metadata>
<defs>

<font id="comiis_font" horiz-adv-x="1024" >
  <font-face
    font-family="comiis_font"
    font-weight="500"
    font-stretch="normal"
    units-per-em="1024"
    ascent="896"
    descent="-128"
  />
    <missing-glyph />
    
    <glyph glyph-name="xingbie" unicode="&#59234;" d="M720.59569705 787.125A24.66346179 24.66346179 0 0 0 744.93463974 762.46153821v-207.6923073a4.93269269 4.93269269 0 0 0-4.86778903-4.9326927h-45.43269187a4.93269269 4.93269269 0 0 0-4.86778903 4.9326927V686.65384634L528.1557934 522.57692276c31.15384634-41.21394268 48.02884634-91.31971179 48.02884634-144.0865382 0-63.41105731-24.33894269-123.05769269-68.47355814-167.84134634A230.14903821 230.14903821 0 0 0 342.5307934 141.13701909999997c-62.37259634 0-121.11057725 24.66346179-165.18028821 69.51201912A237.48317275 237.48317275 0 0 0 108.87694705 378.42548091000003c0 63.34615366 24.40384634 122.92788455 68.47355814 167.77644185A230.14903821 230.14903821 0 0 0 342.5307934 615.7139426900001c51.9879809 0 101.50961545-17.13461545 142.0745191-48.80769269L646.28079339 731.1129809H516.14858159A4.93269269 4.93269269 0 0 0 511.2807934 736.04567276v46.0817309C511.2807934 784.98317276 513.48752428 787.125 516.14858159 787.125h204.44711546zM342.5307934 203.76923090000003c94.8245191 0 171.99519269 78.33894268 171.99519185 174.65625 0 96.31730732-77.17067275 174.72115366-171.99519186 174.72115366-94.8245191 0-171.99519269-78.40384634-171.99519268-174.72115366 0-96.31730732 77.17067275-174.65625 171.99519269-174.65625z m551.94230731-87.23076911a227.35817276 227.35817276 0 0 0-140.38701912 46.40625l-62.04807641-62.04807723 65.42307641-65.42307725a6.55528821 6.55528821 0 0 0-0.06490365-9.21634552l-35.04807723-34.98317358a6.55528821 6.55528821 0 0 0-9.21634553-0.06490365l-65.35817359 65.35817275-81.58413454-81.51923006a6.55528821 6.55528821 0 0 0-9.28125-0.06490449l-34.39903821 34.39903903a6.55528821 6.55528821 0 0 0 0.06490366 9.21634552l81.58413455 81.58413538-65.42307725 65.42307641a6.55528821 6.55528821 0 0 0 0.12980814 9.21634635l34.91826911 34.98317276c2.59615366 2.59615366 6.75 2.59615366 9.28125 0.06490448l65.35817275-65.42307724 62.04807725 62.11298089a226.38461545 226.38461545 0 0 0-46.40625 140.45192276 234.62740366 234.62740366 0 0 0 69.31730813 164.66105815 234.49759634 234.49759634 0 0 0 164.72596098 69.25240365 226.96875 226.96875 0 0 0 163.6875-66.72115365 227.29326911 227.29326911 0 0 0 66.72115365-163.6875 233.97836545 233.97836545 0 0 0-69.31730731-164.7259618 234.49759634 234.49759634 0 0 0-164.72596179-69.25240366z m-119.35817277 110.98557642a166.41346179 166.41346179 0 0 1 119.87740365-48.87259552 171.67067275 171.67067275 0 0 1 120.65625 50.75480731c32.38701911 32.45192275 50.36538455 75.22355732 50.75480815 120.65625a166.41346179 166.41346179 0 0 1-48.9375 119.87740366 165.95913455 165.95913455 0 0 1-119.8125 48.87259634 171.67067275 171.67067275 0 0 1-120.72115449-50.75480731c-32.32211545-32.38701911-50.36538455-75.15865366-50.68990366-120.65625a166.41346179 166.41346179 0 0 1 48.87259635-119.87740448z"  horiz-adv-x="1260" />

    
    <glyph glyph-name="huaticopy" unicode="&#59229;" d="M898.01 833.03999971H171.46999971C111.59 833.03999971 62.63 784.97999971 62.63 726.1800000000001v-570.69c0-58.79999971 48.96-106.85999971 108.83999971-106.85999971h238.86l98.70000029-96.90000029c7.58999971-7.44000029 16.02-10.73999971 26.21999971-10.73999971 9.29999971 0 18.54 3.30000029 26.22000058 10.73999971l97.88999942 96.90000029h239.49c59.87999971 0 108.83999971 48.06 108.84000058 106.85999971V726.1800000000001c-0.74999971 58.79999971-49.68 106.85999971-109.68000029 106.85999971z m52.2-687.08999971c0-20.7-16.62000029-37.05000029-37.68000029-37.05000029h-264.11999942c-10.50000029 0-19.26-4.34999971-27.15000029-11.12999942l-86.85-85.23-86.82000029 85.19999942a34.56 34.56 0 0 1-21.06 10.32000029l-156.20999942 0.83999971H157.04a37.05000029 37.05000029 0 0 0-37.68000029 37.05000029V739.34999971c0 20.7 16.65 37.01999971 37.68000029 37.02000058h755.48999971c21.06 0 37.68000029-16.35000029 37.68000029-37.05000029v-593.39999971zM738.41000029 549.15h-73.35l19.67999942 87.32999971c3.35999971 15.00000029-5.4 30.03000029-19.58999942 33.54000029-14.19000029 3.51-28.41000029-5.69999971-31.80000058-20.7l-22.61999971-100.19999971h-106.49999971l19.64999971 87.35999942c3.39000029 15.00000029-5.33999971 30.03000029-19.55999971 33.54000029-14.22 3.6-28.44-5.69999971-31.80000058-20.7l-22.61999971-100.19999971h-58.74000029c-15.14999971 0-27.36-13.56000029-27.36-30.45000058 0-16.76999971 12.30000029-30.44999971 27.36-30.44999971h45.06000029l-22.86-101.34H330.94999971c-15.14999971 0-27.60000029-13.59-27.59999942-30.48000029 0-16.76999971 12.33-30.44999971 27.59999942-30.44999971h68.73000029l-15.14999971-67.07999971c-3.35999971-14.96999971 5.37000029-30.03000029 19.58999942-33.54000029 14.19000029-3.6 28.41000029 5.73000029 31.80000058 20.7l18 79.92h106.61999942l-15.17999942-67.07999971c-3.35999971-14.96999971 5.4-30.03000029 19.58999942-33.54000029 14.22-3.6 28.41000029 5.73000029 31.80000058 20.7l18 79.92h83.36999971c15.14999971 0 27.56999971 13.59 27.56999971 30.44999971 0 16.80000029-12.30000029 30.48000029-27.59999942 30.48000029h-69.66l22.82999942 101.34h87.15000058c15.18000029 0 27.38999971 13.59 27.38999971 30.44999971 0.09 16.89000029-12.21000029 30.48000029-27.38999971 30.48000029z m-164.19000058-162.18h-106.65l22.86 101.36999971h106.62000029l-22.83000029-101.36999971z"  horiz-adv-x="1092" />

    
    <glyph glyph-name="huati2" unicode="&#59231;" d="M662.69866667 178.688h258.3552a33.3824 33.3824 0 0 1 0 66.7136h-241.152l130.56 505.9584a33.3824 33.3824 0 0 1-64.5632 16.64l-42.7008-165.4784H391.08266667l38.4 148.8384a33.1264 33.1264 0 0 1-3.584 25.2416 33.1264 33.1264 0 0 1-20.3264 15.36 33.1776 33.1776 0 0 1-40.6528-23.9616L322.21866667 602.5216H111.47946667a33.3824 33.3824 0 0 1 0-66.6624h193.536L230.05866667 245.35040000000004H63.86346667a33.3824 33.3824 0 0 1 0-66.6624h148.992l-38.4-148.8384a33.4336 33.4336 0 0 1 32.256-41.6256 33.28 33.28 0 0 1 32.256 24.9856L373.93066667 535.8592h312.1152l-74.9568-290.5088H397.22666667a33.3824 33.3824 0 0 1 0-66.6624h196.608l-38.4-148.7872c-4.608-17.7664 6.144-35.9936 23.9104-40.6528h0.1024a33.3824 33.3824 0 0 1 40.5504 24.0128l42.7008 165.4784zM1002.00106667 570.88c0 21.1968-14.9504 38.4-33.28 38.4h-95.232c-18.432 0-33.3824-17.2032-33.3824-38.4s14.9504-38.4 33.3312-38.4h95.232c18.432 0 33.3312 17.2032 33.3312 38.4z"  horiz-adv-x="1024" />

    
    <glyph glyph-name="tuichu2" unicode="&#59230;" d="M451.26336992 286.86415664000003a31.53086016 31.53086016 0 0 1 22.3447043-53.93763369c8.06892099 0 16.23094453 3.07239698 22.40677266 9.21719092l119.32692802 119.3579622c12.41372461 12.41372461 12.41372461 32.58602753 0 44.99975127l-119.32692803 119.26485967c-12.41372461 12.41372461-32.43085576 12.41372461-44.75147695 0-12.41372461-12.41372461-12.41372461-32.43085576 0-44.72044277l65.29619092-65.32722598-422.84249472-0.06206836c-17.47231699 0-31.65499776-14.1516457-31.65499776-31.65499775 0-17.50335205 14.2757833-31.71706612 31.65499776-31.71706699l422.84249472-0.09310254-65.29619092-65.2961918zM926.58488487 559.06610332a448.60097286 448.60097286 0 0 1-96.42360586 143.09920986 448.47683614 448.47683614 0 0 1-143.00610734 96.51670928A447.14236026 447.14236026 0 0 1 511.99751709 833.99906924c-71.44098487 0-139.84060781-16.26197959-203.21267168-48.35145762A452.57336543 452.57336543 0 0 1 153.86156211 656.2966013600001a31.56189521 31.56189521 0 0 1 5.98962217-44.31699667A31.56189521 31.56189521 0 0 1 204.13714677 618.0002610399999 389.85302109 389.85302109 0 0 0 337.46054961 729.1030962899999a382.21858125 382.21858125 0 0 0 174.53696748 41.58597744c52.19971172 0 102.81667412-10.21028818 150.45434209-30.32052275a384.70132617 384.70132617 0 0 0 122.95794287-82.86161133 386.12890371 386.12890371 0 0 0 113.27523662-273.53642256 384.51512021 384.51512021 0 0 0-30.28948769-150.45434209 384.70132617 384.70132617 0 0 0-82.86161221-122.95794199 386.12890371 386.12890371 0 0 0-273.53642168-113.2752375c-61.44793682 0-120.13382021 13.96544063-174.72317344 41.61701162a390.69094834 390.69094834 0 0 0-133.32340282 111.19593867 31.65499776 31.65499776 0 0 1-50.27558468-38.32737451 453.81473789 453.81473789 0 0 1 155.10948926-129.38204531 445.80788526 445.80788526 0 0 1 203.21267168-48.32042256 447.76304648 447.76304648 0 0 1 318.16376192 131.74065176 448.47683614 448.47683614 0 0 1 96.51670927 143.0061082A447.14236026 447.14236026 0 0 1 961.99503418 384.00155214c0 60.73414805-11.85510674 119.69933994-35.41014931 175.06455118z"  horiz-adv-x="1024" />

    
    <glyph glyph-name="icon-copy-copy" unicode="&#59225;" d="M1176.0608 62.93546666999998c18.69546667 20.35626667 33.56053333 44.3904 44.5312 72.02453333 10.97813333 27.70133333 16.46933333 55.7824 16.46933333 84.2368 0 58.59626667-16.496 108.4384-49.4816 149.55413333-32.9888 41.10506667-75.93066667 65.68106667-128.9024 73.82293334l-18.35306666 1.19146666-15.8912 2.4864c-24.4096 3.24586667-36.63253333 12.63146667-36.63253334 28.08 0 16.2816 16.32 41.92853333 48.90133334 76.8928 34.23146667 37.46453333 88.4288 75.28106667 162.55466666 113.51786667 30.98346667 16.25813333 46.47146667 36.64106667 46.47146667 61.04213333 0 15.47306667-5.28853333 28.29653333-15.85493333 38.47893334-10.56426667 10.15786667-24.0096 15.24373333-40.29653334 15.24373333-40.67946667 0-96.82666667-23.6288-168.42453333-70.8064-84.6016-55.36426667-152.1216-122.66346667-202.58453333-202.0288-50.46186667-79.37066667-75.6928-157.65653333-75.69173334-234.99626667 0-36.61226667 6.93866667-73.01013333 20.76053334-109.2608 13.808-36.1792 32.53866667-66.88426667 56.11626666-92.15893333 49.63733333-54.50666667 109.424-81.76213333 179.3536-81.7632 71.58613333 0 130.59413333 24.81813333 176.9504 74.44266667v0zM593.12 62.93546666999998c18.69866667 20.35626667 33.4912 44.5824 44.464 72.6464 10.9824 28.1248 16.432 55.95733333 16.432 83.616 0 58.59626667-16.23466667 108.63893333-48.6784 150.16213333-32.43946667 41.51253333-75.04746667 65.8976-127.808 73.216l-19.47093333 1.19146667-14.6208 2.48746666c-24.3168 3.24586667-36.51733333 12.63146667-36.51733334 28.08 0 16.2816 15.85173333 41.92853333 47.50826667 76.89386667 33.296 35.81226667 87.28106667 73.67146667 161.95733333 113.5168 30.89066667 16.25813333 46.29333333 36.64106667 46.29333334 61.04213333 0 15.47306667-5.24053333 28.2944-15.81333334 38.48-10.56746667 10.15893333-23.984 15.24373333-40.2368 15.24373334-40.5728 0-96.61653333-23.62773333-168.10986666-70.8064-84.4576-55.36213333-151.65226667-122.66346667-201.6064-202.0288-49.9136-79.36853333-74.91413333-157.65653333-74.9152-234.99626667 0-36.61226667 6.90133333-73.01013333 20.72533333-109.25973333 13.82186667-36.1792 32.47146667-66.88426667 56.01706667-92.15893334 49.50933333-54.50666667 108.784-81.7632 177.79733333-81.7632 72.27093333 0 131.13386667 24.8192 176.57706667 74.44266667v0z"  horiz-adv-x="1403" />

    
    <glyph glyph-name="yinhaozuo" unicode="&#59226;" d="M933.875 4.3125l-356.484375-1e-8 0 286.87500001c-5.2734375 214.1015625 81.2109375 371.25000001 260.5078125 469.33593751L924.3828125 674.0390625C809.421875 592.828125 751.4140625 491.578125 751.4140625 369.234375L933.875 369.234375 933.875 4.3125z m-487.265625-1e-8l-356.484375 1e-8 0 286.875C84.8515625 505.2890625 171.3359375 662.43749999 350.6328125 760.5234375l95.9765625-86.484375c-109.6875-74.8828125-170.859375-177.1875-182.4609375-304.8046875L446.609375 369.23437501 446.609375 4.312499989999992z"  horiz-adv-x="1027" />

    
    <glyph glyph-name="yinhao" unicode="&#59227;" d="M482.72 661.44c-54.24 36.48-127.68 22.08-164.16-31.68L76.16 270.24c-36.48-54.24-22.08-127.68 31.68-164.16 54.24-36.48 127.68-22.08 164.16 31.68l242.4 359.04c36.48 54.72 22.08 128.16-31.68 164.64zM915.68 661.44c-54.24 36.48-127.68 22.08-164.16-31.68l-242.4-359.04c-36.48-54.24-22.08-127.68 31.68-164.16 54.24-36.48 127.68-22.08 164.16 31.68l242.4 359.04c36.96 54.24 22.56 127.68-31.68 164.16z"  horiz-adv-x="1024" />

    
    <glyph glyph-name="quanzi2" unicode="&#59224;" d="M512-42.666667c-235.636053 0-426.666667 191.030613-426.666667 426.666667S276.363947 810.666667 512 810.666667s426.666667-191.030613 426.666667-426.666667-191.030613-426.666667-426.666667-426.666667z m0 64c200.301227 0 362.666667 162.36544 362.666667 362.666667 0 200.297813-162.36544 362.666667-362.666667 362.666667C311.702187 746.666667 149.333333 584.297813 149.333333 384c0-200.301227 162.368853-362.666667 362.666667-362.666667zM512 595.623253c21.620053 0 35.1744-13.605547 35.1744-35.331413 0-21.620053-13.554347-35.2256-35.1744-35.2256-77.267627 0.413013-140.233387-61.893973-140.6464-139.158187v-1.90464c-0.669013-77.264213 61.41952-140.445013 138.683733-141.114026 0.651947-0.003413 1.303893-0.006827 1.959254-0.003414 77.267627-0.4096 140.233387 61.893973 140.6464 139.1616 0.003413 0.651947 0 1.303893-0.003414 1.959254 0 21.674667 13.499733 35.2768 35.119787 35.2768 21.623467 0 35.1744-13.605547 35.1744-35.331414 0-116.596053-94.655147-211.572053-210.937173-211.572053s-210.937173 94.9248-210.937174 211.626667c0.003413 116.64384 97.35168 211.616427 210.940587 211.616426zM653.339307 596.992c37.864107 0 70.294187-32.641707 70.294186-70.611627s-32.43008-70.560427-70.294186-70.560426-70.3488 32.590507-70.3488 70.560426 32.488107 70.557013 70.3488 70.557014V596.992z"  horiz-adv-x="1024" />

    
    <glyph glyph-name="quanzi" unicode="&#59215;" d="M366.51359402 447.56249973h43.65401743c0-56.85267837 45.58258933-102.95758933 101.8325896-102.95758933s101.8325896 46.10491095 101.83258878 102.95758933h43.63392892c0-81.22098175-65.1294646-147.0736604-145.4665177-147.0736604-80.33705393 0-145.48660703 65.85267864-145.48660703 147.0736604z m422.296875-343.38616068l43.67410676-141.97098175h-44.07589243l-14.54464325 44.11607107h0.10044663l-39.33482163 132.68973258c1.02455392-0.02008933 1.98883906-0.32142837 3.03348229-0.3214292 84.2946427 0 152.61830337 69.14732136 152.61830339 154.44642865 0 50.7053573-24.48883933 95.30357136-61.79464243 123.46875055-16.51339298-117.90401826-95.74553567-215.13616067-202.52008933-256.33928622l47.10937473-153.94419636h-0.14062527l13.64062527-44.11607107h-43.65401826l-14.54464241 44.11607107-62.55803596 181.88839299c126.88392837 25.33258933 222.5892854 138.35491067 222.58928623 274.05803539 0 154.34598202-123.75000027 279.46205393-276.4084823 279.46205392S235.59171875 616.6138396 235.59171875 462.26785675c0-135.70312473 95.70535702-248.72544607 222.5892854-274.0580354L395.62296902 6.321428370000035l-14.56473257-44.11607107H337.42430835l13.52008932 44.11607107h-0.02008932l47.0892854 153.94419636c-106.75446433 41.20312473-185.9665177 138.41517864-202.5 256.25892891-37.2857146-28.14508905-61.7544646-72.7232146-61.7544646-123.38839324 0-85.2991073 68.38392864-154.44642864 152.73883933-154.44642865 1.04464326 0 1.98883906 0.30133905 3.01339297 0.32142919L250.13636201 6.321428370000035l-14.54464326-44.11607107H191.55600415l43.71428623 141.99107107a196.99553567 196.99553567 0 0 0-145.16517865 190.24553568 197.2767854 197.2767854 0 0 0 102.09375 173.00892865C194.9711828 643.75446405 336.98234402 785.84598174 512.00020105 785.84598174c174.9977677 0 316.9888396-142.07142837 319.78125-318.33482107a197.33705337 197.33705337 0 0 0 102.11383933-173.06919662 197.015625 197.015625 0 0 0-145.08482136-190.265625z"  horiz-adv-x="1024" />

    
    <glyph glyph-name="quanzixuanzhong" unicode="&#59221;" d="M926.26389874 350.94405442000004a194.31915574 194.31915574 0 0 1-20.84573034 48.51954134 203.59731253 203.59731253 0 0 1-32.43338498 40.6873298c-3.41404074 3.33370981-6.9084116 6.52684213-10.52327802 9.63964436a356.62665976 356.62665976 0 0 0-133.48898547-267.56036692 349.25634943 349.25634943 0 0 0-63.78231061-40.60699969l51.51184717-170.05938546 2.79148013-9.21790943h112.20143829l-44.0009577 143.20895993c42.71567184 11.48724261 77.69954663 34.96379205 104.97170627 70.42964832s40.88815631 75.91219573 40.88815631 121.29885296l0.04016464 0.04016547c0 18.2550759-2.42999341 36.14866507-7.33014569 53.62051932z m-631.05527362-169.07533814a356.38566943 356.38566943 0 0 0-133.95088503 267.92185364c-3.61486642-3.11280139-7.10923728-6.32601645-10.52327802-9.63964436a203.59731253 203.59731253 0 0 1-32.43338499-40.6873298A198.5164173 198.5164173 0 0 1 90.12520105 297.32353509999996l0.02008274-0.04016547c0-45.38665722 13.63607941-85.83299588 40.90823821-121.29885296 27.27215964-35.46585626 62.23595087-58.94240571 104.95162353-70.42964832l-43.98087496-143.20895993h112.16127365l2.87181025 9.31832227 52.05407684 169.69789873a348.61370608 348.61370608 0 0 0-63.90280619 40.50658686z m536.48634979 279.73041751c0 3.45420538-0.08033011 6.9084116-0.18074295 10.34253424C826.13209738 646.23847971 685.09205698 785.85265595 511.85962274 785.85265595S197.5871481 646.23847971 192.20501353 471.94166802a354.05608804 354.05608804 0 0 1-0.18074295-10.34253423c0-138.00756912 85.04977506-255.87229861 204.92276385-302.68481919l-60.30802249-196.56840618h350.44122161l-59.62521368 196.82947925c119.51150208 47.01334707 204.23995586 164.67725005 204.23995505 302.42374611zM511.85962274 268.30419004c-40.40617402 0-74.88798377 14.4594657-103.42534652 43.41856338-28.5574455 28.93901413-42.83616742 64.02330176-42.83616743 105.23277932h43.98087498c0-9.37857046 1.28528586-18.63664453 3.85585757-27.77422384a103.42534653 103.42534653 0 0 1 46.71210855-61.81421677 106.43773507 106.43773507 0 0 1 24.29993573-10.56344347c8.73592713-2.59065444 17.73292813-3.91610496 27.01108494-3.91610496 28.31645435 0 52.4958945 10.18187402 72.57848592 30.52553851 20.06250869 20.36374805 30.08372251 44.88459219 30.08372251 73.56253326h44.02104043v-0.02008273c0-41.20947757-14.29880547-76.29376521-42.83616742-105.23277932-28.5574455-28.95909686-63.05933716-43.41856255-103.44542927-43.41856338z"  horiz-adv-x="1024" />

    
    <glyph glyph-name="quanzi-xuanzhong" unicode="&#59222;" d="M512 805.875h1.48141819C675.77901885 804.88738816 825.15535952 709.25360898 894.20591083 561.85249201L708.20561841 375.76989853v8.7239078c0 58.92752637-26.08942154 114.56301215-72.507194 152.2568768l-0.98761186 0.98761185c-0.98761184 0.98761184-1.48141819 2.38672979-2.38672979 3.37434165L385.83254473 787.5218736C427.88836288 799.53782199 469.45037551 805.875 512 805.875zM512 384m-145.42589245 0a145.42589245 145.42589245 0 1 1 290.8517849 0 145.42589245 145.42589245 0 1 1-290.8517849 0ZM90.125 382.51858181V384C90.125 547.3675135799999 185.8410794 697.15535952 334.14750799 766.20591083l186.08259348-186.08259347H511.50619366c-58.92752637 0-114.56301215-26.08942154-152.25687679-72.50719401l-0.98761185-0.98761185c-0.98761184-0.98761184-2.38672979-1.48141819-3.37434164-2.38672979L108.4781264 257.91484579999997C96.37987695 298.9830521 90.125 340.95656918 90.125 382.51858181zM512-37.875h-1.48141819c-162.37990174 0.98761184-311.67394135 96.62139102-380.8067937 244.02250799L315.79438159 392.23010147v-8.7239078c0-58.92752637 26.08942154-114.56301215 72.507194-152.2568768l0.98761186-0.98761185c0.98761184-0.98761184 1.48141819-2.38672979 2.38672979-3.37434165l246.40923696-246.40923697c-42.05581814-12.01594839-83.53552972-18.35312641-126.0851542-18.3531264zM689.3586865 1.7940891700000066L503.27609219 187.79438158999994h8.72390781c58.92752637 0 114.56301215 26.08942154 152.25687681 72.507194l0.98761184 0.98761186c0.98761184 0.98761184 1.48141819 0.98761184 2.38672979 1.48141817l246.40923697 246.40923697c12.59205496-40.08059362 18.84693191-82.63021811 18.84693275-124.68603625 0.98761184-163.86131992-95.2222739-313.64916587-243.52870166-382.69971716z"  horiz-adv-x="1024" />

    
    <glyph glyph-name="quanzi1" unicode="&#59418;" d="M512-37.875c-232.875 0-421.875 189-421.875 421.875s189 421.875 421.875 421.875S933.875 616.875 933.875 384s-189-421.875-421.875-421.875z m0 43.875c39.65625 0 78.046875 6.328125 113.90625 17.296875l-221.90625 221.90625c-1.265625 1.265625-1.6875 2.53125-2.53125 3.796875-39.234375 32.0625-64.125 80.578125-64.125 135 0 3.796875 0.421875 7.59375 0.421875 10.96875l-169.171875-169.171875c59.90625-129.515625 191.109375-219.796875 343.40625-219.796875z m0 508.78125c-72.140625 0-130.78125-58.640625-130.78125-130.78125s58.640625-130.78125 130.78125-130.78125 130.78125 58.640625 130.78125 130.78125-58.640625 130.78125-130.78125 130.78125z m-378.421875-130.78125c0-39.65625 6.328125-78.046875 17.296875-113.90625l221.90625 221.90625c1.265625 1.265625 2.53125 1.6875 3.796875 2.53125 32.0625 39.234375 80.578125 64.125 135 64.125 3.796875 0 7.59375-0.421875 10.96875-0.421875l-169.171875 169.171875c-129.515625-59.90625-219.796875-191.109375-219.796875-343.40625z m378.421875 378.421875c-39.65625 0-78.046875-6.328125-113.90625-17.296875l221.90625-221.90625c1.265625-1.265625 1.6875-2.53125 2.53125-3.796875 39.234375-32.0625 64.125-80.578125 64.125-135 0-3.796875-0.421875-7.59375-0.421875-10.96875l169.171875 169.171875c-59.90625 129.515625-191.109375 219.796875-343.40625 219.796875z m138.796875-486.421875c-1.265625-1.265625-2.53125-1.6875-3.796875-2.53125-32.0625-39.234375-80.578125-64.125-135-64.125-3.796875 0-7.59375 0.421875-10.96875 0.421875l169.171875-169.171875c129.9375 59.90625 220.21875 190.6875 220.21875 343.40625 0 39.65625-6.328125 78.046875-17.296875 113.90625l-222.328125-221.90625z"  horiz-adv-x="1024" />

    
    <glyph glyph-name="quanzimingcheng" unicode="&#59223;" d="M512-43.52c-235.73504 0-427.52 191.78496-427.52 427.52S276.26496 811.52 512 811.52s427.52-191.78496 427.52-427.52-191.78496-427.52-427.52-427.52z m0 793.6c-201.856 0-366.08-164.224-366.08-366.08s164.224-366.08 366.08-366.08 366.08 164.224 366.08 366.08-164.224 366.08-366.08 366.08zM561.46432 279.20896H335.04768a30.72 30.72 0 0 0 0 61.44h226.41664a30.72 30.72 0 0 0 0-61.44zM688.96256 448.512H335.04768a30.72 30.72 0 0 0 0 61.44h353.91488a30.72 30.72 0 0 0 0-61.44z"  horiz-adv-x="1024" />

    
    <glyph glyph-name="quanzixinxi-mian" unicode="&#60763;" d="M512-37.875A421.875 421.875 0 1 0 512 805.875a421.875 421.875 0 0 0 0-843.75z m140.64257813 634.86914063c-37.86328125 0-70.34765625-32.58984375-70.34765626-70.55859375 0-37.96875 32.484375-70.55859375 70.34765625-70.55859375 37.86328125 0 70.29492188 32.58984375 70.29492188 70.55859375 0 37.96875-32.43164063 70.55859375-70.29492188 70.55859375zM512 596.99414063c-113.58984375 0-210.9375-94.97460938-210.9375-211.62304688 0-116.6484375 94.65820313-211.62304688 210.9375-211.62304688s210.9375 94.921875 210.9375 211.62304688c0 21.67382813-13.5 35.27929688-35.17382813 35.27929688-21.62109375 0-35.12109375-13.60546875-35.12109375-35.33203125A139.90429688 139.90429688 0 0 0 512 244.25390625a139.90429688 139.90429688 0 0 0-140.64257813 141.1171875A139.90429688 139.90429688 0 0 0 512 526.3828125c21.62109375 0 35.17382813 13.55273438 35.17382813 35.27929688 0 21.67382813-13.55273438 35.27929688-35.17382813 35.27929687z"  horiz-adv-x="1024" />

    
    <glyph glyph-name="jfblogo" unicode="&#59214;" d="M512 805.875c-232.60700967 0-421.875-189.26799033-421.875-421.875 0-232.60700967 189.26799033-421.875 421.875-421.875 232.60700967 0 421.875 189.26799033 421.875 421.875C933.875 616.60700967 744.60700967 805.875 512 805.875L512 805.875M512 16.351116759999968c-202.66749344 0-367.54419973 164.8767063-367.54419973 367.64888324 0 202.66749344 164.8767063 367.54419973 367.54419973 367.54419973 202.66749344 0 367.64888324-164.8767063 367.64888324-367.54419973C879.54419973 181.33250655999996 714.66749344 16.351116759999968 512 16.351116759999968L512 16.351116759999968M512 16.351116759999968L512 16.351116759999968zM212.70952198 261.10142670000005L212.70952198 458.8487906l48.15446621 0 0-279.81932356c0 0.1046835-7.85127173 9.63089291-15.28380863 20.51799033-5.4435487 8.06063873-10.46836258 16.22596179-12.14330026 19.05241964-5.4435487 9.73557724-9.63089291 18.00558298-11.09646441 20.62267382-3.45455969 7.32785339-6.28101755 13.81823795-8.16532224 18.42431782-0.31405051 0.62810183-0.52341833 1.36088718-0.73278534 1.77962119C213.02357331 260.15927435000003 212.8142063 260.68269267999995 212.70952198 261.10142670000005L212.70952198 261.10142670000005zM247.56916857 566.98697278l189.79140784 0 0-63.54295916L354.24178009 503.44401361 354.24178009 99.88864792000004c-12.7714021 7.22316989-26.06622171 15.91191046-39.88446048 26.48495655-7.64190472 5.96696621-15.28380863 12.45735077-22.92571335 19.47115366L291.43160709 503.44401361l-78.51271729 0c0.83746884 2.09367251 1.98898901 4.60607904 3.24519269 7.53722122 4.08266153 9.63089291 10.67772959 22.92571335 17.48216465 34.44091178C238.98511152 554.32025418 244.00992538 562.0668424 247.56916857 566.98697278L247.56916857 566.98697278zM376.33002461 667.48325024l61.0305518 0 0-63.54295916L277.61336832 603.94029189C293.62996311 622.05055838 327.44277304 649.47766727 352.4621589 662.8771712 363.87267383 668.94882175 363.76799033 667.48325024 376.33002461 667.48325024L376.33002461 667.48325024zM386.37965234 91.82800836000001L386.37965234 457.69727041l50.98092407 0 0-365.86926205L386.37965234 91.82800836000001zM466.56730732 144.06513611000003L466.56730732 324.01628402999995c0 18.94773533 5.4435487 33.81280994 16.33064529 44.59522302 10.67772959 10.88709658 23.86786569 16.12127829 39.46572564 16.12127828l244.33157593 0c18.84305182 0 33.70812644-5.4435487 44.59522302-16.54001229 11.09646442-11.09646442 16.7493793-24.49596753 16.7493793-40.19851099l0-18.73836831c-1.67493769-6.80443588-3.14050837-13.92292145-5.4435487-20.93672433-1.98898901-5.96696621-3.97797803-11.93393326-6.07164972-17.90089948-3.14050837-9.0027919-6.17633404-18.11026648-10.67772958-26.69432354-3.24519268-6.49038455-6.07164971-13.08545261-9.94494425-19.26178666-10.99178009-17.37748114-20.30862249-30.98635207-31.19571991-44.59522302l-0.1046835 0 0 25.33343637-86.57335601 0 0-53.49333143 61.44928665 0 0.1046835-0.1046835 0 0c-2.40772302-2.40772302-4.92013037-5.02481387-7.4325369-7.53722121-2.82645786-2.93114136-6.28101755-5.65291571-8.89810757-8.06063875-5.4435487-5.02481387-11.30583142-9.0027919-16.4353288-12.98076909-13.71355445-10.67772959-27.95052722-18.73836832-44.38585602-28.26457856-1.98898901-1.15152017-13.60887095-7.11848638-14.96975812-7.11848638l-119.1299631 0.3140505c-19.47115366 0.1046835-34.85964661 5.5482322-45.85142669 16.74937931C471.80148901 115.48650705 466.56730732 128.57196048000003 466.56730732 144.06513611000003L466.56730732 144.06513611000003zM615.11336832 151.91640784000003l0 53.49333141-85.52652017 0 0-36.74395128c0-6.69975156 2.19835601-11.30583142 6.49038454-14.13228929 2.40772302-1.67493769 9.4215259-2.61709085 20.83204084-2.61709084L615.11336832 151.91640784000003zM529.58684897 268.95269842000005l85.52652017 0 0 52.34181125-66.16005002 0c-12.8760856 0-19.36647016-5.96696621-19.36647015-17.58684896L529.58684897 268.95269842000005zM678.13290915 268.95269842000005l86.57335602 0-0.62810184 37.26736963c-0.31405051 9.94494425-5.96696621 14.96975813-17.06343064 14.96975812l-68.88182354 0L678.13290915 268.95269842000005zM468.97503116 601.84661938l0 63.54295916L639.08591833 665.38957854c2.19835601 0 8.89810757 0.209367 15.49317645 0.20936701 5.02481387 0 9.84026074 0 12.6667186-0.31405051 3.03582486-0.31405051 5.33886438-2.09367251 7.95595523-3.66392669 17.27279764-9.94494425 45.32800836-28.68331255 74.53473926-59.77434897L468.97503116 601.84661938zM531.57583716 576.09444818l228.21029764 0c4.29202853 0 8.27000656-0.209367 12.03861676-0.62810184l0 0c22.19292801-29.3114144 38.10483848-62.07738849 46.47952852-87.51550836 1.15152017-3.55924319 0.41873483-16.12127829 0.41873485-20.51799032 0-14.65570679-4.92013037-26.69432355-14.5510233-36.42990079-9.84026074-9.73557724-22.50697852-14.65570679-37.89547146-14.65570678L532.30862249 416.34723925c-18.00558298 0-31.71913742 4.71076336-41.24534765 14.34165628-9.3168424 9.52620941-13.92292145 20.93672434-13.92292145 34.02217778l0 65.95068218c0 15.17912513 6.80443588 26.79900705 20.20393899 35.27838062C508.1267063 572.63988849 519.53722122 576.09444818 531.57583716 576.09444818L531.57583716 576.09444818zM554.39686701 473.39981387l192.19913167 0c9.94494425 0 14.96975813 6.28101755 14.96975813 18.84305182l0 10.46836258c0 6.28101755-1.88430551 10.67772959-5.4435487 12.98076911-1.88430551 1.15152017-6.38570105 1.67493769-13.60887095 1.67493768L548.95331912 517.36693588c-9.3168424 0-13.92292145-4.29202853-13.92292145-12.87608559l0-17.27279765c0-6.28101755 2.09367251-10.46836258 6.07164972-12.45735077C543.09103558 473.9232322 547.59243195 473.39981387 554.39686701 473.39981387L554.39686701 473.39981387z"  horiz-adv-x="1024" />

    
    <glyph glyph-name="shouye5" unicode="&#59216;" d="M647.04 354.98666667h-71.14666667c-10.13333333 0-18.45333333-8.32-18.45333333-18.45333334v-71.14666666c0-10.13333333 8.32-18.45333333 18.45333333-18.45333334h71.14666667c10.13333333 0 18.45333333 8.32 18.45333333 18.45333334v71.14666666c-0.10666667 10.24-8.32 18.45333333-18.45333333 18.45333334zM336.10666667 423.57333333h-52.69333334c-10.13333333 0-18.45333333-8.32-18.45333333-18.45333333v-52.69333333c0-10.13333333 8.32-18.45333333 18.45333333-18.45333334h52.69333334c10.13333333 0 18.45333333 8.32 18.45333333 18.45333334v52.69333333c0 10.13333333-8.32 18.45333333-18.45333333 18.45333333zM969.49333333 494.93333333c-1.28 9.49333333-16.74666667 12.16-42.45333333 16.64-24.53333333 4.16-58.13333333 9.92-89.28 24.64-73.06666667 34.45333333-119.89333333 91.30666667-143.25333333 173.86666667-3.73333333 13.33333333-16.10666667 22.82666667-30.08 23.04-13.97333333 0.21333333-26.45333333-8.96-30.61333334-22.29333333-0.21333333-0.85333333-15.46666667-47.36-45.86666666-95.14666667-28.37333333 8.21333333-100.37333333 40.10666667-158.93333334 160.21333333-5.65333333 11.62666667-18.13333333 18.77333333-31.14666666 17.6-12.90666667-1.06666667-24-10.24-27.73333334-22.82666666-1.6-5.76-40.53333333-141.54666667-129.38666666-169.81333334-74.88-23.78666667-122.88 5.33333333-151.57333334 22.61333334-14.4 8.74666667-23.89333333 14.50666667-31.04 10.34666666-2.13333333-1.28-5.33333333-4.8-2.56-14.93333333 4.8-17.70666667 30.93333333-57.92 80.32-77.76v-449.70666667c0-17.49333333 14.18666667-31.57333333 31.57333334-31.57333333s31.57333333 14.18666667 31.57333333 31.57333333v438.4c21.97333333 0.10666667 43.62666667 4.16 64.32 12.05333334 70.61333333 27.2 116.05333333 94.4 142.18666667 147.73333333 49.6-74.98666667 104.10666667-109.86666667 141.76-125.97333333-15.89333333-16.10666667-34.02666667-29.97333333-54.29333334-39.14666667-55.25333333-24.96-105.70666667-13.86666667-135.78666666-7.25333333-17.06666667 3.73333333-27.30666667 5.97333333-32 0.96-2.45333333-2.66666667-4.69333333-7.36-1.6-14.29333334 7.25333333-16.10666667 41.6-36.90666667 77.12-47.25333333v-450.77333333c0-17.49333333 14.18666667-31.57333333 31.57333333-31.57333334s31.57333333 14.18666667 31.57333333 31.57333334v445.86666666c18.56 2.24 36.8 7.14666667 54.4 14.82666667 69.76 30.50666667 116.8 98.02666667 144.42666667 151.25333333 43.94666667-85.86666667 106.88-123.94666667 152.42666667-140.69333333 62.72-23.14666667 129.92-7.68 148.48 7.14666667 4.26666667 3.52 6.29333333 7.14666667 5.86666666 10.66666666z"  horiz-adv-x="1024" />

    
    <glyph glyph-name="shouye6" unicode="&#59217;" d="M863.4 596.3l-312.9 149c-24.5 11.7-53 11.7-77.5 0l-312.9-149c-31.4-15-51.4-46.6-51.4-81.4v-410.2c0-49.8 40.4-90.2 90.2-90.2h625.7c49.8 0 90.2 40.4 90.2 90.2V514.8c0 34.8-20 66.5-51.4 81.5zM511.8 212.9s-144.3 64.6-144.3 144.3c0 79.7 115.4 115.4 144.3 28.9 28.9 86.6 144.3 50.8 144.3-28.9 0-79.7-144.3-144.3-144.3-144.3z"  horiz-adv-x="1024" />

    
    <glyph glyph-name="sidebar_blog" unicode="&#59218;" d="M752-15.998399999999947c44.0016 0 80.0016 36 80.0016 80.0016V704.0016c0 44.0016-36 80.0016-80.0016 80.0016h-240v-279.9984l-99.9984 60-99.9984-60V784.0032h-39.9984c-44.0016 0-80.0016-36-80.0016-80.0016v-639.9984c0-44.0016 36-80.0016 80.0016-80.0016h480z"  horiz-adv-x="1024" />

    
    <glyph glyph-name="92woderiji" unicode="&#59861;" d="M718.378667 479.146667l-86.613334-84.352 20.48-119.168a22.912 22.912 0 0 0-33.28-24.149334L512 307.754667l-107.008-56.32a22.826667 22.826667 0 0 0-30.890667 9.685333 22.528 22.528 0 0 0-2.346666 14.506667l20.437333 119.168L305.493333 479.146667a22.954667 22.954667 0 0 0 12.757334 39.082666l119.637333 17.408 53.546667 108.373334a22.869333 22.869333 0 0 0 41.088 0l53.461333-108.373334 119.68-17.408a22.912 22.912 0 0 0 12.672-39.082666m92.501333 342.186666H213.077333c-42.24 0-76.544-34.261333-76.544-76.458666v-590.08c0-30.293333 17.92-57.813333 45.824-70.058667l302.08-132.48a69.12 69.12 0 0 1 55.04 0l302.293334 132.522667a76.586667 76.586667 0 0 1 45.653333 70.058666V744.917333c0 42.197333-34.346667 76.501333-76.544 76.501334"  horiz-adv-x="1024" />

    
    <glyph glyph-name="shouye7" unicode="&#59219;" d="M860.85714312 558.6857146899999l-68.91428624 56.4-68.91428532 56.4-68.91428625 56.4-68.91428531 56.4c-10.62857156 8.74285687-22.45714312 15.25714313-34.8 19.54285687-12.34285687 4.28571469-25.37142844 6.51428531-38.22857156 6.51428532s-25.88571469-2.22857156-38.22857157-6.51428532c-12.34285687-4.28571469-24.17142844-10.8-34.8-19.54285687l-68.91428531-56.4-68.91428625-56.4-68.91428531-56.4-68.91428531-56.4c-7.54285688-6.17142844-14.22857156-13.02857156-20.22857157-20.57142938-5.82857156-7.54285688-10.8-15.6-14.91428625-24.17142843-4.11428531-8.57142844-7.2-17.65714312-9.25714218-26.91428532s-3.25714313-18.85714313-3.25714313-28.62857156v-371.14285688c0-18 3.6-34.97142844 10.11428531-50.57142843s16.11428531-29.48571469 27.77142844-41.31428625 25.71428531-21.25714312 41.31428625-27.77142844 32.57142844-10.11428531 50.57142844-10.11428531h533.14285688c18 0 34.97142844 3.6 50.57142843 10.11428531 15.6 6.51428531 29.48571469 16.11428531 41.31428625 27.77142844 11.65714313 11.65714313 21.25714312 25.71428531 27.77142844 41.31428625 6.51428531 15.6 10.11428531 32.57142844 10.11428531 50.57142844V458.22857156c0 9.77142844-1.02857156 19.37142844-3.25714218 28.62857157s-5.31428531 18.34285687-9.25714313 26.91428531c-4.11428531 8.57142844-9.08571469 16.8-14.91428531 24.17142844-6 7.71428531-12.68571469 14.57142844-20.22857156 20.74285781zM631.82857156 144.34285687h-240c-4.8 0-9.42857156 1.02857156-13.71428625 2.74285782s-8.05714312 4.28571469-11.14285687 7.54285687c-3.25714313 3.25714313-5.82857156 7.02857156-7.54285688 11.14285688-1.71428531 4.28571469-2.74285688 8.91428531-2.74285687 13.71428625s1.02857156 9.42857156 2.74285687 13.71428531 4.28571469 8.05714312 7.54285688 11.14285688c3.25714313 3.25714313 7.02857156 5.82857156 11.14285687 7.54285781 4.28571469 1.71428531 8.91428531 2.74285688 13.71428625 2.74285687h240c4.8 0 9.42857156-1.02857156 13.71428532-2.74285687s8.05714312-4.28571469 11.14285781-7.54285781 5.82857156-7.02857156 7.54285687-11.14285688c1.71428531-4.28571469 2.74285688-8.91428531 2.74285688-13.71428531s-1.02857156-9.42857156-2.74285688-13.71428625-4.28571469-8.05714312-7.54285687-11.14285688-7.02857156-5.82857156-11.14285781-7.54285687c-4.28571469-1.71428531-8.91428531-2.74285688-13.71428532-2.74285781z"  horiz-adv-x="1024" />

    
    <glyph glyph-name="bianzu37" unicode="&#59220;" d="M746.50387421-37.66411522999999H277.41177222c-69.46544641 0.16870798-128.19685693 50.19057752-137.56014103 117.20976031L91.45357419 435.24500135c-6.45307417 47.44907557 13.28574106 94.68726553 51.91983243 124.29548876l283.11281597 210.12559332a141.54586358 141.54586358 0 0 0 171.1751748 1e-8l282.43798408-210.12559333c38.76062256-29.52386883 58.62596814-76.78314761 52.29942517-124.29548876l-48.31370261-355.69935627c-9.3843729-67.0191828-68.11578342-117.04105234-137.58122982-117.20976031zM512 738.68710923c-17.29255161 0-34.0789801-5.67280069-47.70213712-16.02724302l-283.4291423-210.61062844a74.58994639 74.58994639 0 0 1-28.5959762-68.95932249l48.37696821-355.72044507c5.20885437-37.38987158 37.93817148-65.31101587 76.69879403-65.45863504H746.50387421c38.76062256 0.14761917 71.48993967 28.06876428 76.67770523 65.45863504l48.48241058 355.69935627a74.96953912 74.96953912 0 0 1-28.99665692 69.27564962l-282.58560324 209.91470938a79.41920801 79.41920801 0 0 1-48.08172986 16.44901255zM627.03764707 110.88312322000002c-16.95513648 0-30.68373504 13.37009464-30.68373587 29.8612848v104.51449594c0 49.41030405-37.87490588 89.58385437-84.3539112 89.58385436-46.47900531 0-84.35391119-40.17355032-84.35391119-89.58385436v-104.51449594c0-16.49118933-13.72859939-29.86128479-30.68373588-29.8612848-16.93404766 0-30.66264707 13.37009464-30.66264623 29.8612848v104.51449594c0 82.11853317 65.33210467 149.30642313 145.7002933 149.30642312 80.34710065 0 145.72138211-67.18789077 145.72138211-149.30642312v-104.51449594c0-16.49118933-13.74968738-29.86128479-30.68373504-29.8612848z"  horiz-adv-x="1024" />

    
    <glyph glyph-name="toupiao" unicode="&#59330;" d="M637.36666667 800.09666667l275.73-275.76a90 90 0 0 0 0-127.29L531.28666667 15.26666666999995a90 90 0 0 0-127.29 0L128.23666667 290.96666667a90 90 0 0 0 0 127.29L510.04666667 800.06666667a90 90 0 0 0 127.29 0zM250.66666667 62.66666667000004a30 30 0 0 0 0-60H130.66666667a30 30 0 0 0 0 60h120z m600 0a30 30 0 0 0 0-60h-210a30 30 0 0 0 0 60h210z m-189.3 421.74l-2.82-2.49-212.1-212.13-106.08 106.05a30 30 0 0 1-39.81 2.34l-2.64-2.34a30 30 0 0 1-2.49-39.6l2.49-2.82 127.29-127.29a30 30 0 0 1 39.6-2.49l2.82 2.49 233.34 233.37a30 30 0 0 1-39.6 44.91z"  horiz-adv-x="1024" />

    
    <glyph glyph-name="gengduo" unicode="&#59200;" d="M1277.03645833 779.5078125H262.63802083A86.0625 86.0625 0 0 1 176.57552083 693.4453125v-618.890625A86.0625 86.0625 0 0 1 262.63802083-11.5078125h1014.3984375A86.0625 86.0625 0 0 1 1363.09895833 74.5546875V693.4453125A86.0625 86.0625 0 0 1 1277.03645833 779.5078125zM506.16536483 304.8984375a79.1015625 79.1015625 0 1 0 79.1015625 79.1015625 79.1015625 79.1015625 0 0 0-79.1015625-79.1015625z m263.67187475 0a79.1015625 79.1015625 0 1 0 79.1015625 79.1015625 79.1015625 79.1015625 0 0 0-79.1015625-79.1015625z m263.67187473 0a79.1015625 79.1015625 0 1 0 79.1015625 79.1015625 79.1015625 79.1015625 0 0 0-79.1015625-79.1015625z"  horiz-adv-x="1536" />

    
    <glyph glyph-name="more" unicode="&#59212;" d="M753.49503 150.648111h-483.499006A258.799205 258.799205 0 0 0 270.250497 666.974155h483.499006a258.799205 258.799205 0 0 0 0-517.598409zM373.057654 446.091451a46.314115 46.314115 0 0 1-35.626242 15.26839 43.005964 43.005964 0 0 1-34.862824-15.26839 50.894632 50.894632 0 0 1-14.50497-37.153081 50.894632 50.894632 0 0 1 14.50497-37.153082 47.586481 47.586481 0 0 1 34.862824-14.50497 50.894632 50.894632 0 0 1 35.626242 14.50497 54.202783 54.202783 0 0 1 14.50497 37.153082 52.675944 52.675944 0 0 1-14.50497 37.153081z m174.314115 0a46.314115 46.314115 0 0 1-35.626242 15.26839 43.005964 43.005964 0 0 1-34.862823-15.26839 50.894632 50.894632 0 0 1-14.50497-37.153081 50.894632 50.894632 0 0 1 14.50497-37.153082 47.586481 47.586481 0 0 1 34.862823-14.50497 50.894632 50.894632 0 0 1 35.626242 14.50497 54.202783 54.202783 0 0 1 14.504971 37.153082 52.675944 52.675944 0 0 1-14.504971 37.153081z m174.314116 0a46.059642 46.059642 0 0 1-35.37177 15.26839 43.514911 43.514911 0 0 1-35.117296-15.26839 50.894632 50.894632 0 0 1-14.50497-37.153081 50.894632 50.894632 0 0 1 14.50497-37.153082 48.095427 48.095427 0 0 1 35.117296-14.50497 50.894632 50.894632 0 0 1 35.37177 14.50497 54.202783 54.202783 0 0 1 14.50497 37.153082 52.675944 52.675944 0 0 1-14.50497 37.153081z"  horiz-adv-x="1024" />

    
    <glyph glyph-name="fangke" unicode="&#59010;" d="M532.48 622.592c-175.104-20.992-220.672-143.36-220.672-143.36-45.568-166.4 129.024-179.712 164.352-223.744 50.176-63.488 6.656-137.216 0-182.272-18.944-127.488 126.976-139.776 177.664-130.048 208.384 41.472 218.112 313.856 195.584 439.808-47.104 257.536-316.928 239.616-316.928 239.616z m120.832-624.128c-50.176-10.24-119.808-32.256-122.368 74.752 6.656 45.056 50.176 136.704 0 200.704-35.328 68.096-211.968 84.48-164.352 205.312 0 0 37.888 84.992 165.376 88.064 0 0 214.528 29.184 261.12-183.808 23.04-125.952 37.888-297.472-139.776-385.024zM502.272 696.832c36.864 0 66.56 29.184 66.56 65.536 0 36.352-29.696 65.536-66.56 65.536s-66.56-29.184-66.56-65.536c0-36.352 29.696-65.536 66.56-65.536z m192.512-16.384c36.864 0 66.56 29.184 66.56 65.536 0 36.352-29.696 65.536-66.56 65.536s-66.56-29.184-66.56-65.536 30.208-65.536 66.56-65.536z m-333.312 15.36c0 69.632-57.344 125.952-127.488 125.952-70.656 0-127.488-56.32-127.488-125.952 0-69.632 57.344-125.952 127.488-125.952s127.488 56.32 127.488 125.952z m489.472 30.72c-36.864 0-66.56-29.184-66.56-65.536s29.696-65.536 66.56-65.536 66.56 29.184 66.56 65.536c0 35.84-29.696 65.536-66.56 65.536z"  horiz-adv-x="1024" />

    
    <glyph glyph-name="fangkeguanli" unicode="&#59213;" d="M856.5-10.3h-690c-35.8 0-65 29.2-65 65v615c0 35.8 29.2 65 65 65h55.3c16 0 29-13 29-29s-13-29-29-29h-55.3c-3.9 0-7-3.1-7-7v-615c0-3.9 3.1-7 7-7h690c3.9 0 7 3.1 7 7v615c0 3.9-3.1 7-7 7H806c-16 0-29 13-29 29s13 29 29 29h50.6c35.8 0 65-29.2 65-65v-615c-0.1-35.8-29.2-65-65.1-65zM646 676.7H381.8c-16 0-29 13-29 29s13 29 29 29H646c16 0 29-13 29-29s-13-29-29-29zM726 641.1c-16 0-29 13-29 29V773.2c0 16 13 29 29 29s29-13 29-29v-103.1c0-16-13-29-29-29zM297.5 641.1c-16 0-29 13-29 29V773.2c0 16 13 29 29 29s29-13 29-29v-103.1c0-16-13-29-29-29zM511.8 351.7c-73.9 0-134 60.1-134 134s60.1 134 134 134 134-60.1 134-134-60.1-134-134-134z m0 200c-36.4 0-66-29.6-66-66s29.6-66 66-66 66 29.6 66 66-29.6 66-66 66zM719.3 63.3c-18.8 0-34 15.2-34 34 0 95.7-77.8 173.5-173.5 173.5S338.3 193 338.3 97.3c0-18.8-15.2-34-34-34s-34 15.2-34 34c0 64.5 25.1 125.2 70.7 170.8 45.6 45.6 106.3 70.7 170.8 70.7s125.2-25.1 170.8-70.7c45.6-45.6 70.7-106.3 70.7-170.8 0-18.8-15.3-34-34-34z"  horiz-adv-x="1024" />

    
    <glyph glyph-name="xiaochengxu-gengduo" unicode="&#59210;" d="M0 384.16c0-59.52 48.32-107.84 107.84-107.84s107.84 48.32 107.84 107.84-48.32 107.84-107.84 107.84C48.32 491.84 0 443.68 0 384.16zM336.8 384.16c0-96.8 78.4-175.2 175.2-175.2s175.2 78.4 175.2 175.2c0 96.8-78.4 175.2-175.2 175.2s-175.2-78.56-175.2-175.2zM808.48 384.16c0-59.52 48.32-107.84 107.84-107.84s107.84 48.32 107.84 107.84-48.32 107.84-107.84 107.84c-59.68-0.16-107.84-48.32-107.84-107.84z"  horiz-adv-x="1024" />

    
    <glyph glyph-name="tubiaozhizuomoban1" unicode="&#59211;" d="M688.74804688 745.84570313c120.67382813 0 218.84765625-90.703125 218.84765624-203.02734376 0-34.98046875-10.01953125-69.08203125-28.30078124-99.84374999-27.421875-44.91210938-71.54296875-78.22265625-124.80468751-94.04296875-14.15039063-4.13085938-24.9609375-5.80078125-34.98046875-5.80078125-23.29101563 0-41.57226563 18.28125-41.57226562 41.57226562 0 23.29101563 18.28125 41.57226563 41.57226562 41.57226563 1.66992188 0 5.00976563 0 9.140625 1.66992187 35.77148438 10.01953125 64.07226563 30.76171875 79.89257813 58.27148438 10.81054688 17.49023438 15.8203125 36.65039063 15.8203125 56.6015625 0 65.7421875-60.73242188 119.79492188-134.82421875 119.79492187-25.83984375 0-50.80078125-6.6796875-73.21289063-19.16015625-39.11132813-22.5-62.40234375-59.94140625-62.40234374-100.72265625v-348.66210938c0-70.75195313-39.11132813-135.61523438-104.06250001-172.26562499-34.98046875-19.95117188-74.09179688-29.97070313-113.99414062-29.97070313-120.67382813 0-218.84765625 90.703125-218.84765625 203.02734375 0 34.98046875 10.01953125 69.08203125 28.30078125 99.84375 27.421875 44.91210938 71.54296875 78.22265625 124.8046875 94.04296875 14.94140625 4.13085938 24.9609375 5.80078125 34.98046875 5.80078125 23.29101563 0 41.57226563-18.28125 41.57226563-41.57226563 0-23.29101563-18.28125-41.57226563-41.57226563-41.57226562-1.66992188 0-5.00976563 0-9.140625-1.66992188-35.77148438-10.81054688-64.07226563-31.640625-79.89257813-58.27148437-10.81054688-17.49023438-15.8203125-36.65039063-15.82031249-56.6015625 0-65.7421875 60.73242188-119.79492188 135.61523437-119.79492188 25.83984375 0 50.80078125 6.6796875 73.21289063 19.16015626 39.11132813 22.5 62.40234375 59.94140625 62.40234374 100.72265624V542.73046875c0 70.75195313 39.11132813 135.61523438 104.06250001 172.265625 34.1015625 20.83007813 73.21289063 30.84960938 113.203125 30.84960938z"  horiz-adv-x="1024" />

    
    <glyph glyph-name="weixin1" unicode="&#59190;" d="M512 805.875C279.125 805.875 90.125 616.98046875 90.125 384c0-232.98046875 189-421.875 421.875-421.875 232.92773438 0 421.875 188.89453125 421.875 421.875C933.875 616.98046875 744.92773438 805.875 512 805.875zM414.81054687 262.921875c-26.84179688 0-48.41015625 5.58984375-75.30468749 11.02148438l-75.14648438-38.54882813 21.46289063 66.18164063C232.03320312 340.01953125 199.8125 389.64257813 199.8125 450.0234375 199.8125 554.70117188 296.6328125 637.125 414.81054687 637.125c105.6796875 0 198.33398438-65.8125 216.94921876-154.45898438-6.85546875 0.79101563-13.7109375 1.265625-20.72460938 1.26562501-102.14648438 0-182.77734375-77.94140625-182.77734375-174.07617188 0-15.97851563 2.42578125-31.37695313 6.64453125-46.08984375C428.2578125 263.23828125 421.56054687 262.921875 414.81054687 262.921875zM732.0078125 185.87695312000005l16.18945313-55.00195312-58.95703126 33.06445313c-21.515625-5.53710938-43.13671875-11.02148438-64.54687499-11.02148438-102.3046875 0-182.83007813 71.5078125-182.83007813 159.62695313 0 87.9609375 80.578125 159.62695313 182.83007813 159.62695312 96.55664063 0 182.61914063-71.66601563 182.61914062-159.62695313C807.3125 262.921875 775.14453125 218.94140625 732.0078125 185.87695312000005zM332.59765625 558.60351563c-17.77148438 0-35.75390625-11.91796875-35.75390625-30.00585938 0-18.03515625 17.98242188-30.11132813 35.75390625-30.11132813 17.77148438 0 29.63671875 12.07617188 29.63671875 30.11132813C362.234375 546.68554688 350.36914062 558.60351563 332.59765625 558.60351563zM498.81640625 498.43359375c17.87695313 0 29.68945313 12.07617188 29.68945313 30.11132813 0 18.140625-11.86523438 30.00585938-29.68945313 30.00585937-17.82421875 0-35.70117188-11.91796875-35.70117188-30.00585938C463.11523437 510.50976563 480.9921875 498.43359375 498.81640625 498.43359375zM575.96679688 384C564.15429688 384 552.23632813 371.92382812000005 552.23632813 359.953125c0-12.18164063 11.91796875-24.09960938 23.78320312-24.09960938 17.98242188 0 29.68945313 11.91796875 29.68945313 24.09960938C605.70898438 371.92382812000005 593.94921875 384 575.96679688 384zM706.58984375 384c-11.75976563 0-23.57226563-12.07617188-23.57226563-24.046875 0-12.18164063 11.86523438-24.09960938 23.57226563-24.09960938 17.82421875 0 29.7421875 11.91796875 29.7421875 24.09960938C736.27929688 371.92382812000005 724.4140625 384 706.58984375 384z"  horiz-adv-x="1024" />

    
    <glyph glyph-name="jifen" unicode="&#59196;" d="M439.09824219 500.97011719c100.67431641 0 205.38193359 22.27148438 268.26767578 64.73583984l0-77.30859375 58.26269531 0L765.62861328 657.67207031c0 101.76152344-168.19189453 156.70458984-326.43193359 156.70458985-158.24707031 0-326.52597656-54.9421875-326.52597656-156.70458985l0-461.98037109c0-101.77294922 168.18046875-156.71337891 326.42753906-156.71337891l0 58.50439453c-166.21611328 0-268.2703125 57.22119141-268.2703125 98.20898438l0 138.87597656c62.88574219-42.36328125 167.49755859-64.74023438 268.2703125-64.74023437l0 58.60107422c-166.21611328 0-268.2703125 57.21855469-268.2703125 98.19755859L170.82792969 565.6092773400001C233.71367187 523.2416015599999 338.42216797 500.97011719 439.09824219 500.97011719L439.09824219 500.97011719zM439.09824219 755.87226563c166.21435547 0 268.26767578-57.22119141 268.26767578-98.20195313s-102.04980469-98.19755859-268.26767578-98.19755859-268.27207031 57.21679688-268.27207032 98.19755859C170.82792969 698.65107422 272.98056641 755.87226563 439.09824219 755.87226563L439.09824219 755.87226563zM700.08417969 468.89707031c-144.56689453 0-220.14316406-55.92919922-220.14316407-111.16582031l0-296.87607422c0-55.23046875 75.67822266-111.1640625 220.14316407-111.1640625 143.48583984 0 218.95664063 55.13818359 220.14316406 109.97753906l0.10107422 0L920.32841797 357.73037108999995C920.22822266 412.96962891 844.65107422 468.89707031 700.08417969 468.89707031L700.08417969 468.89707031zM700.08417969 410.39267578c106.875 0 161.97802734-36.92460937 161.97802734-52.65703125 0-15.74121094-55.10302734-52.6640625-161.97802734-52.6640625-106.87939453 0-161.99121094 36.92285156-161.99121094 52.6640625C538.09384766 373.4671875 593.20478516 410.39267578 700.08417969 410.39267578L700.08417969 410.39267578zM700.08417969 8.190234379999993c-106.87939453 0-161.99121094 36.92724609-161.99121094 52.6640625l0 70.88378906c36.90966797-20.20166016 91.13378906-33.66210938 161.99121094-33.66210938 70.85302734 0 124.98046875 13.46044922 161.97802734 33.66210938l0-70.88378906C862.06220703 45.11748047000003 806.95917969 8.190234379999993 700.08417969 8.190234379999993L700.08417969 8.190234379999993zM700.08417969 156.68144530999996c-106.87939453 0-161.99121094 36.92724609-161.99121094 52.6640625l0 70.87939453c36.90966797-20.19726563 91.13378906-33.65771484 161.99121094-33.65771484 70.85302734 0 124.98046875 13.46044922 161.97802734 33.65771484l0-70.87939453C862.06220703 193.60869141 806.95917969 156.68144530999996 700.08417969 156.68144530999996L700.08417969 156.68144530999996z"  horiz-adv-x="1024" />

    
    <glyph glyph-name="chajian-yangshizhihuan" unicode="&#59198;" d="M768 800H256c-88.2 0-160-71.8-160-160v-512c0-88.2 71.8-160 160-160h512c88.2 0 160 71.8 160 160V640c0 88.2-71.8 160-160 160z m96-672c0-25.5-10-49.6-28.2-67.8C817.6 42 793.5 32 768 32H256c-25.5 0-49.6 10-67.8 28.2C170 78.4 160 102.5 160 128V640c0 25.5 10 49.6 28.2 67.8S230.5 736 256 736h512c25.5 0 49.6-10 67.8-28.2C854 689.6 864 665.5 864 640v-512zM704 512H398.5l39.9 39.1c12.6 12.4 12.8 32.6 0.5 45.3-12.4 12.6-32.6 12.8-45.3 0.5l-95.9-94c-9.3-9.1-12.1-22.9-7.2-35s16.6-19.9 29.6-19.9H704c17.7 0 32 14.3 32 32s-14.3 32-32 32zM703.9 320H320c-17.7 0-32-14.3-32-32s14.3-32 32-32h305.7l-39.9-39.2c-12.6-12.4-12.8-32.6-0.4-45.3 6.3-6.4 14.5-9.6 22.8-9.6 8.1 0 16.2 3.1 22.4 9.2l95.7 94c9.3 9.1 12.1 22.9 7.2 34.9s-16.6 20-29.6 20z"  horiz-adv-x="1024" />

    
    <glyph glyph-name="caidan3" unicode="&#58940;" d="M128 640h597.333333a42.666667 42.666667 0 0 1 0 85.333333H128a42.666667 42.666667 0 0 1 0-85.333333zM896 426.666667H128a42.666667 42.666667 0 0 1 0-85.333334h768a42.666667 42.666667 0 0 1 0 85.333334zM640 128H128a42.666667 42.666667 0 0 1 0-85.333333h512a42.666667 42.666667 0 0 1 0 85.333333z"  horiz-adv-x="1024" />

    
    <glyph glyph-name="heshidaxiao" unicode="&#58968;" d="M721.1 652.8H302.9c-33 0-59.7-26.7-59.7-59.7V175c0-33 26.7-59.7 59.7-59.7H721c33 0 59.7 26.7 59.7 59.7V593.1c0.1 33-26.6 59.7-59.6 59.7z m0-477.9H302.9l-0.1 418.1H721v-418.1zM273.1 832H93.9C77.4 832 64 818.6 64 802.1v-179.2c0-16.5 13.4-29.9 29.9-29.9s29.9 13.4 29.9 29.9V772.3h149.3c16.5 0 29.9 13.4 29.9 29.9-0.1 16.4-13.4 29.8-29.9 29.8zM273.1-4.2999999999999545H123.7V145.10000000000002c0 16.5-13.4 29.9-29.9 29.9s-29.9-13.4-29.9-29.9v-179.2c0-16.5 13.4-29.9 29.9-29.9H273c16.5 0 29.9 13.4 29.9 29.9s-13.3 29.8-29.8 29.8zM930.1 832H750.9C734.4 832 721 818.6 721 802.1s13.4-29.9 29.9-29.9h149.3v-149.3c0-16.5 13.4-29.9 29.9-29.9s29.9 13.4 29.9 29.9V802.1c0 16.5-13.4 29.9-29.9 29.9zM930.1 174.89999999999998c-16.5 0-29.9-13.4-29.9-29.9v-149.3H750.9c-16.5 0-29.9-13.4-29.9-29.9s13.4-29.9 29.9-29.9h179.2c16.5 0 29.9 13.4 29.9 29.9V145.10000000000002c0 16.5-13.4 29.8-29.9 29.8z"  horiz-adv-x="1024" />

    
    <glyph glyph-name="xiaochengxu1" unicode="&#59202;" d="M397.14411729 145.76470546999997c-76.73823545 0-139.18235273 57.73235273-139.18235274 129.15 0 22.20882364 6.40588271 43.96764727 18.05294092 63.52941182 17.49705908 28.58823545 45.55588271 49.71176455 79.41176542 59.74411816 8.94705908 2.67352911 15.88235273 3.73235273 22.18235275 3.73235273 14.8235291 0 26.47058818-11.64705908 26.47058818-26.47058818s-11.64705908-26.47058818-26.47058818-26.47058818c-1.05882363 0-3.1764709 0-5.85-1.05882364-22.76470547-6.40588271-40.76470547-19.64117637-50.82352911-37.05882363a66.70588271 66.70588271 0 0 1-10.03235361-35.94705908c0-41.8235291 38.64705908-76.20882364 85.81764726-76.20882276 16.43823545 0 32.34705908 4.26176455 46.64117637 12.17647002 24.88235273 14.29411729 39.70588271 38.11764727 39.70588272 64.03235274v221.9029418c0 45.05294092 24.88235273 86.24117637 66.17647002 109.61470546a145.50882364 145.50882364 0 0 0 72.58235361 19.11176456c76.76470547 0 139.18235273-57.73235273 139.18235273-129.15 0-22.20882364-6.40588271-43.96764727-18.0264709-63.52941182-17.49705908-28.58823545-45.58235273-49.71176455-79.41176455-59.74411729-9.52941182-2.67352911-15.90882363-3.73235273-22.20882363-3.73235273-14.8235291 0-26.47058818 11.64705908-26.47058819 26.47058819s11.64705908 26.47058818 26.47058819 26.47058818c1.05882363 0 3.20294092 0 5.8764709 1.05882363 22.73823545 6.82941182 40.76470547 20.17058818 50.8235291 37.05882363 6.80294092 11.06470547 10.00588271 23.24117637 10.00588272 35.94705821 0 41.8235291-38.64705908 76.20882364-86.24117638 76.20882363-16.41176455 0-32.34705908-4.26176455-46.64117636-12.17647002-24.88235273-14.29411729-39.70588271-38.11764727-39.70588271-64.03235361v-221.26764639c0-45.05294092-24.88235273-86.34705908-66.1764709-109.61470635a137.77941182 137.77941182 0 0 0-72.15882363-19.74705908zM935.52941182 384c0 233.9735291-189.55588271 423.52941182-423.52941182 423.52941182S88.47058818 618.07941182 88.47058818 384s189.55588271-423.52941182 423.52941182-423.52941182 423.52941182 189.55588271 423.52941182 423.52941182z"  horiz-adv-x="1024" />

    
    <glyph glyph-name="rengong" unicode="&#59203;" d="M861.76074244 512.6718752500001A65.9179685 65.9179685 0 0 0 907.5078125 449.9179685v-131.835937a65.9179685 65.9179685 0 0 0-57.480469-65.39062525 363.70239283 363.70239283 0 0 0-206.71874975-206.71874975A65.9179685 65.9179685 0 0 0 577.9179685-11.5078125h-131.835937a65.9179685 65.9179685 0 1 0 0 131.83593775h131.835937c15.02929688 0 28.87207031-5.04272461 39.9792483-13.5131841A296.72973633 296.72973633 0 0 1 808.63085938 384v32.95898463a296.63085938 296.63085938 0 0 1-593.26171875 0v-164.79492238H182.410156a65.9179685 65.9179685 0 0 0-65.9179685 65.91796925v131.835937a65.9179685 65.9179685 0 0 0 45.74707006 62.75390675C204.22900416 666.4584958400001 344.89794922 779.5078125 512 779.5078125s307.77099584-113.04931666 349.76074244-266.83593725zM347.20507838 351.04101536999997h65.91796849a98.87695313 98.87695313 0 0 1 197.75390626 0h65.91796849a164.79492162 164.79492162 0 0 0-329.58984324 0z"  horiz-adv-x="1024" />

    
    <glyph glyph-name="yangshi" unicode="&#59334;" d="M513.536-29.2864a601.2928 601.2928 0 0 0-195.4304 31.8976 524.8 524.8 0 0 0-160.256 87.3984 419.84 419.84 0 0 0-109.312 130.9184 346.88 346.88 0 0 0-40.6016 162.4064 356.352 356.352 0 0 0 40.5504 164.1472 437.4016 437.4016 0 0 0 109.1584 134.912A525.7216 525.7216 0 0 0 317.952 773.8368a573.7984 573.7984 0 0 0 194.048 33.792h3.6352l0.512 0.256c122.368-0.512 240.64-39.3728 333.6704-109.6192a455.2192 455.2192 0 0 0 111.0528-119.3984 370.432 370.432 0 0 0 55.1936-147.3536c0.8192-5.7344 1.4848-11.6736 2.048-17.664v-0.9728c0-3.328 0.256-6.3488 0.256-9.0112 0-79.8208-57.6-144.7424-128.3584-144.7936h-77.4144a93.5424 93.5424 0 0 1-77.3632-43.52 113.152 113.152 0 0 1-13.568-92.16c0.4096-1.6384 0.8704-3.1744 1.3312-4.7616l0.256-0.7168v-0.5632a113.1008 113.1008 0 0 0-10.24-85.8112 89.856 89.856 0 0 0-63.488-45.7728h-0.9216a614.7072 614.7072 0 0 0-134.4-14.8992z m-10.24 779.8272a509.4912 509.4912 0 0 1-166.2464-30.72A471.04 471.04 0 0 1 194.048 638.3104a381.4912 381.4912 0 0 1-95.1296-117.3504 299.0592 299.0592 0 0 1-34.3552-138.24 290.7136 290.7136 0 0 1 34.1504-135.936 364.2368 364.2368 0 0 1 94.72-112.9984A469.8112 469.8112 0 0 1 336.4352 56.32a544.256 544.256 0 0 1 176.9984-28.8768 569.2416 569.2416 0 0 1 122.88 13.568l2.4576 0.5632 2.4576 0.4096a33.8944 33.8944 0 0 1 22.3232 17.6128v0.3072a56.0128 56.0128 0 0 1 5.12 40.96l-0.256 1.1264-1.4336 5.12a169.7792 169.7792 0 0 0 20.48 139.7248 149.9136 149.9136 0 0 0 124.9792 69.1712h77.2608a66.1504 66.1504 0 0 1 51.5072 27.4432 98.8672 98.8672 0 0 1 19.8656 60.3648V410.7776c-0.4096 4.5568-0.9728 9.1648-1.3824 12.2368a316.416 316.416 0 0 1-46.8992 124.928 399.36 399.36 0 0 1-97.28 104.4992C731.648 715.8784 624.64 750.6944 513.536 750.6944h-10.24zM231.5776 326.912a51.2 51.2 0 1 0 0 102.656h1.8432a51.2 51.2 0 0 0-1.792-102.656zM363.52 503.296a51.2 51.2 0 1 0 19.6096 3.9424 51.2 51.2 0 0 0-19.6096-3.9424z m244.8896 21.9648a51.2 51.2 0 1 0 19.6096 3.9424 51.2 51.2 0 0 0-19.6096-3.9424z"  horiz-adv-x="1024" />

    
    <glyph glyph-name="huangeyangshi" unicode="&#59204;" d="M512 805.875C744.758621 805.875 933.875 637.125 933.875 430.55172437c0-130.92672437-101.83189663-235.66810337-235.66810337-235.66810337H613.83189663c-37.82327563 0-69.82758654-32.00431009-69.82758654-69.82758654 0-17.45689663 8.7284479-32.00431009 20.36637982-46.55172437 14.54741346-14.54741346 17.45689663-29.09482773 17.45689663-46.55172355 0-37.82327563-32.00431009-69.82758654-69.82758654-69.82758654C276.33189663-37.875 90.125 151.24137900000005 90.125 384S276.33189663 805.875 512 805.875z m256.03448236-279.31034454c-37.82327563 0-69.82758654-32.00431009-69.82758573-69.82758655s32.00431009-69.82758654 69.82758574-69.82758654c37.82327563 0 69.82758654 32.00431009 69.82758654 69.82758654s-32.00431009 69.82758654-69.82758654 69.82758656z m-514.9784479 0c-37.82327563 0-69.82758654-32.00431009-69.82758656-69.82758655s32.00431009-69.82758654 69.82758656-69.82758654S322.883621 418.91379327 322.883621 456.73706891 290.87931009 526.56465546 253.05603446 526.56465546z m375.32327563 186.20689664c-37.82327563 0-69.82758654-32.00431009-69.82758572-69.82758656S590.55603446 573.116379 628.37931009 573.116379c37.82327563 0 69.82758654 32.00431009 69.82758654 69.82758654 0 37.82327563-32.00431009 69.82758654-69.82758654 69.82758656z m-232.75862018 0C357.79741346 712.7715521 322.883621 680.76724118 322.883621 642.94396554S357.79741346 573.116379 395.62068991 573.116379s69.82758654 32.00431009 69.82758572 69.82758654c0 37.82327563-34.91379327 69.82758654-69.82758572 69.82758656z"  horiz-adv-x="1024" />

    
    <glyph glyph-name="daxiaoxie" unicode="&#59205;" d="M257.815625 629.3325h91.9921875l204-517.88625H467.009375l-49.69875 133.4596875H189.569375l-49.69875-133.4596875H53.815625l204 517.88625z m-43.76625-319.1465625h178.78125l-87.538125 234.2878125h-2.96625l-88.2721875-234.2878125z m580.756875 186.4125c56.38125 0 97.92-13.78125 124.6275-41.3475 22.9921875-23.9325 34.861875-58.7521875 34.861875-104.446875v-239.3578125H881.6V164.390625a158.990625 158.990625 0 0 0-55.63125-44.96625c-25.224375-11.60625-54.898125-18.135-89.02125-18.135-40.06125 0-71.218125 10.156875-93.470625 29.74125-24.48 19.584375-36.350625 44.9709375-36.350625 76.156875 0 42.07125 17.064375 74.71125 51.1875 97.2 31.1521875 21.7584375 75.661875 32.64 132.043125 34.089375l86.049375 2.175v15.2296875c0 52.224375-28.929375 78.335625-86.79375 78.335625-24.48 0-44.505-4.348125-59.341875-13.055625-17.8078125-10.1521875-28.935-25.3875-33.384375-46.415625l-77.889375 6.5278125c8.16 40.6125 28.929375 71.0784375 61.569375 89.9371875 28.190625 17.409375 66.76875 25.3875 114.24 25.3875z m81.6-211.8l-80.855625-2.175c-71.956875-1.449375-107.56875-26.11125-107.56875-72.5325 0-14.505 5.938125-26.1121875 18.5475-35.5434375 11.870625-9.4275 28.190625-14.5059375 48.22125-14.5059375 33.37875 0 61.569375 10.156875 85.305 29.74125 23.74125 19.584375 36.350625 44.24625 36.350625 73.2571875v21.7584375z"  horiz-adv-x="1024" />

    
    <glyph glyph-name="wenzidaxiao" unicode="&#59206;" d="M488 420H152c-16.00000031 0-31.99999969 12-31.99999969 31.99999969s16.00000031 28.00000031 31.99999969 28.00000031h336c16.00000031 0 31.99999969-12 31.99999969-31.99999969s-12-28.00000031-31.99999969-28.00000031zM912.00000031 672H404c-16.00000031 0-31.99999969 12-31.99999969 31.99999969s12 31.99999969 31.99999969 32.00000062H912.00000031c16.00000031 0 31.99999969-12 31.99999969-32.00000062s-16.00000031-31.99999969-31.99999969-31.99999969zM320 40.00000031000002c-16.00000031 0-31.99999969 12-31.99999969 31.99999969v336c0 16.00000031 12 31.99999969 31.99999969 31.99999969s31.99999969-16.00000031 31.99999969-31.99999969v-336c0-19.99999969-16.00000031-31.99999969-31.99999969-31.99999969zM660.00000031 40.00000031000002c-16.00000031 0-31.99999969 12-32.00000062 31.99999969V660c0 16.00000031 12 31.99999969 32.00000062 31.99999969s31.99999969-12 31.99999969-31.99999969v-592.00000031c-4.00000031-16.00000031-16.00000031-28.00000031-31.99999969-27.99999938z"  horiz-adv-x="1024" />

    
    <glyph glyph-name="jianliyangshi" unicode="&#59207;" d="M930.79 529.378c-0.055 2.036-0.112 4.079-0.263 6.12-4.657 12.65-13.646 19.184-22.112 27.91-10.3 10.878-22.273 20.23-32.625 31.054-32.823 31.31-65.76 62.565-98.642 93.884a15489.058 15489.058 0 0 1-30.525 29.008c-7.32 6.953-14.48 14.694-23.829 19.606-13.284 6.791-43.185 4.13-63.306 4.13h-20.855c-3.146-1.89-5.857-1.047-9.675-2.512-4.44-2.404-8.888-4.859-13.273-7.218-7.844-5.64-11.871-15.363-19.402-21.274-19.286-14.95-33.978-19.652-63.3-25.406-5.434-1.095-14.848-2.663-21.435-1.67-4.91 0.314-9.825 0.524-14.738 0.841-15.573 2.818-29.061 5.74-41.762 10.869-10.882 4.44-23.793 12.7-30.638 21.223-5.065 6.33-9.726 12.493-16.2 17.357-4.757 3.603-12.393 4.755-17.62 7.788h-70.88v-1.046c-19.759-0.628-28.91-12.651-39.157-22.369a5684.923 5684.923 0 0 0-21.171-20.135c-38.942-37.056-77.89-74.124-116.825-111.182-7.01-6.12-13.231-13.173-20.29-19.234-11.86-10.298-23.52-19.973-27.077-38.319-1.513-7.742 2.61-16.048 4.702-20.65 4.867-10.868 13.702-16.889 21.804-24.625 6.688-6.474 13.017-13.27 20.28-19.232a1896.22 1896.22 0 0 1 17.67-17.41c12.438-11.603 24.882-23.26 37.319-34.919 5.226-4.96 9.826-10.348 15.893-14.53 8.681-5.853 24.937-11.708 38.844-6.122 16.352 6.542 25.713 19.508 37.894 29.963h1.203v-332.251c0-11.972-0.836-24.521 2.609-33.509 3.036-7.789 10.562-15.624 17.412-19.817 12.232-7.736 33.711-6.215 54.149-6.215H645.634c29.32 0 58.544-2.718 75.115 9.515 6.644 4.964 12.703 14.372 14.633 23.465 0.164 26.248 0.264 52.596 0.317 78.831V420.962c0.317 0.159 0.677 0.363 0.886 0.57 4.758-2.554 7.846-7.108 11.497-10.662 11.298-10.718 24.994-25.246 49.148-20.906 17.72 3.19 30.26 18.401 40.294 29.328 27.599 26.034 55.152 52.165 82.697 78.254 6.49 7.991 12.92 18.032 10.569 31.832z"  horiz-adv-x="1024" />

    
    <glyph glyph-name="kefu" unicode="&#59208;" d="M930.18359375 447.45703125c-28.38867188 207.7734375-193.62304688 355.69335938-403.41796875 362.63671874-213.66210938 7.03125001-401.04492188-149.58984375-430.75195313-361.23046874-14.94140625-106.78710938-8.61328125-214.36523438-8.52539062-321.6796875 0-31.37695313 26.98242188-57.83203125 58.44726563-61.61132813 27.7734375-3.33984375 55.72265625-3.07617188 83.58398437-0.703125 42.80273438 3.60351563 68.02734375 30.32226563 68.37890625 72.59765625 0.52734375 58.0078125 0.52734375 116.015625 0 174.0234375-0.3515625 43.68164063-29.1796875 71.71875001-73.30078125 72.42187501-21.4453125 0.3515625-43.06640625 1.31835938-64.42382813-0.3515625-16.34765625-1.31835938-19.07226563 5.44921875-16.87499999 18.984375 2.98828125 19.07226563 4.83398438 38.3203125 8.26171875 57.3046875C186.8046875 655.14257813 386.4921875 790.31835938 582.13671875 751.29492188c174.90234375-34.89257813 293.5546875-176.22070313 299.35546875-355.86914063 0.3515625-10.10742188-2.28515625-11.953125-11.42578125-11.68945313-22.93945313 0.61523438-45.79101563 0.3515625-68.73046875 0.17578126-47.72460938-0.3515625-75.32226563-28.30078125-75.49804688-76.46484376-0.17578125-47.28515625 0.703125-94.5703125-0.26367187-141.76757812-0.703125-35.15625001-0.96679687-69.2578125 37.35351563-91.49414063-53.96484375-21.26953125-103.62304688-40.51757813-153.01757813-60.38085937-10.8984375-4.39453125-18.28125001-8.61328125-21.62109375 8.70117188-2.19726563 11.33789063-14.32617188 14.32617188-26.10351563 14.15039061-22.23632813-0.3515625-44.38476563-0.703125-66.62109374 0.08789064-18.19335938 0.703125-33.13476563-2.37304688-37.265625-23.203125-6.06445313-30.49804688 1.31835938-47.109375 24.43359375-55.81054688h99.31640625c13.18359375 2.8125 26.71875001-0.96679687 40.16601562 4.30664063 86.22070313 34.1015625 172.79296875 67.1484375 259.01367188 101.25 39.90234375 15.73242188 56.33789063 41.484375 56.51367187 84.375 0.08789063 14.32617188 0.17578125 28.65234375 0 42.97851562-0.87890625 85.69335938 4.13085938 171.5625-7.55859375 256.81640625zM163.16210937 331.6171875c19.3359375 0 38.58398438 0.08789063 57.91992188 0 16.34765625-0.08789063 24.9609375-7.29492188 24.87304688-24.78515625-0.3515625-55.01953125-0.26367188-110.0390625-0.08789063-165.05859375 0.08789063-16.61132813-6.41601563-25.22460938-24.34570312-24.52148438-19.24804688 0.79101563-38.58398438 0.79101563-57.83203125 1e-8-17.49023438-0.703125-24.87304688 6.94335938-24.69726563 24.08203124 0.3515625 27.86132813 0.08789063 55.72265625 0.08789063 83.58398438 0 27.15820313 0.43945313 54.31640625-0.17578124 81.47460938-0.3515625 17.31445313 7.55859375 25.22460938 24.25781249 25.22460937z m721.0546875-192.39257813c-0.08789063-13.09570313-7.11914063-21.26953125-21.62109376-21.09374999-20.7421875 0.17578125-41.484375 0-62.22656249 0.08789063-15.29296875 0.08789063-21.70898438 8.34960938-21.62109375 23.02734374 0.08789063 28.65234375 0 57.21679689 0 85.86914063 0 26.45507813 0.43945313 52.91015625-0.17578125 79.36523437-0.43945313 18.45703125 7.99804688 25.83984375 25.92773438 25.3125 19.24804688-0.61523438 38.58398438-0.17578125 57.91992187-0.17578125 13.88671875 0 21.70898438-7.03125001 21.796875-20.7421875 0.3515625-57.21679689 0.43945313-114.43359375 0-171.65039063z"  horiz-adv-x="1024" />

    
    <glyph glyph-name="yangshi_1" unicode="&#59209;" d="M180.13923115 328.04092503000004c-6.02773846 0-12.05547775 0-12.05547776 6.02773846l-12.05547693 30.13869315a22.10170825 22.10170825 0 0 1-18.08321622-6.02773846l-6.02773846-24.11095469a20.89616089 20.89616089 0 0 0-12.05547776-6.02773846H96.15273847l-6.02773847-6.02773929c0-6.02773846 0-12.05547775 6.02773846-12.05547693l18.08321622-24.11095468c6.02773846 0 6.02773846-6.02773846 6.02773846-12.05547775l-6.02773846-24.11095468v-6.02773847h12.05547775l18.0832154 12.05547775h12.05547775l24.11095468-12.05547775h6.02773847c6.02773846 0 6.02773846 6.02773846 6.02773845 12.05547775l-6.02773845 24.11095469a8.43883402 8.43883402 0 0 0 0 12.05547693l18.08321621 18.08321621a6.02773846 6.02773846 0 0 1 6.02773847 6.02773847 20.89616089 20.89616089 0 0 1-6.02773847 12.05547775zM462.63924978 69.65186025000003c-6.02773846 0-18.08321621 6.02773846-18.08321621 12.05547774l-12.05547693 36.16643161a6.02773846 6.02773846 0 0 1-6.02773847 6.02773847c-6.02773846 0-18.08321621 0-18.08321621-12.05547693l-12.05547775-36.16643243c-6.02773846-6.02773846-12.05547775-12.05547775-18.0832154-12.05547693h-36.16643244a6.02773846 6.02773846 0 0 1-6.02773845-6.02773846 11.25177869 11.25177869 0 0 1 0-18.08321623l30.13869314-24.11095467c6.02773846 0 6.02773846-12.05547775 6.02773846-18.08321622l-12.05547692-36.1664316v-12.05547777a11.65362781 11.65362781 0 0 1 18.08321621-6.02773847l30.13869315 18.08321624a11.25177869 11.25177869 0 0 0 18.08321621 0l30.13869315-18.08321624h12.05547693c12.05547775 0 12.05547775 12.05547775 12.05547775 18.08321624l-12.05547775 36.1664316a22.10170825 22.10170825 0 0 0 6.02773929 18.08321622l30.13869314 24.11095467c6.02773846 6.02773846 6.02773846 6.02773846 6.02773847 12.05547694s-6.02773846 12.05547775-12.05547693 18.08321622zM930.79362006 706.58291328h-48.22190936c-12.05547775 0-18.08321621 6.02773846-24.11095469 18.08321623L840.77938891 772.48618892a12.859176 12.859176 0 0 1-12.05547693 12.05547775c-6.02773846 0-18.08321621 0-12.05547775-6.02773847l-18.08321539-48.22190936c-6.02773846-12.05547775-12.05547775-18.08321621-24.11095468-18.08321621h-48.22190937c-6.02773846 0-6.02773846 0-12.05547774-6.02773847a19.6906127 19.6906127 0 0 1 0-30.13869397l36.16643243-30.13869315a54.24964783 54.24964783 0 0 0 6.02773847-30.13869314l-12.05547776-48.22190936c-6.02773846-6.02773846 0-12.05547775 0-18.08321622s18.08321621-6.02773846 36.16643244-6.02773847l36.1664316 24.11095469a26.92389936 26.92389936 0 0 0 30.13869398 0l36.16643161-24.11095469h18.08321621c6.02773846 0 12.05547775 12.05547775 12.05547693 24.11095469l-12.05547693 48.22190936a26.52205023 26.52205023 0 0 0 6.02773847 30.13869314l36.16643243 30.13869315c6.02773846 0 6.02773846 6.02773846 6.02773847 12.05547776a19.28876358 19.28876358 0 0 1-18.48506534 18.48506533zM451.78932022 752.7955762199999a113.32148675 113.32148675 0 0 1-156.31935589 0L180.94292938 639.07224034a110.50854209 110.50854209 0 0 1 0-156.31935673l454.49149604-454.4914952a110.50854209 110.50854209 0 0 1 156.31935588 0L905.47711719 141.58287515999996a110.50854209 110.50854209 0 0 1 0 156.3193559zM223.5389494 596.4762203099999l113.72333588 113.72333589a50.23115579 50.23115579 0 0 0 71.12731668 0l92.42532587-92.42532586-184.85065256-184.85065256-92.42532586 92.42532586a50.23115579 50.23115579 0 0 0 0 71.12731668z m639.34214859-411.89547601l-113.7233367-113.7233367a51.43670316 51.43670316 0 0 0-71.12731585 0l-321.47939658 321.47939658 184.85065339 184.85065256 321.47939574-321.47939576a50.23115579 50.23115579 0 0 0 0-71.12731668z"  horiz-adv-x="1043" />

    
    <glyph glyph-name="zhiyin" unicode="&#59189;" d="M782 474H242c-9 0-18 4.5-24 12l-90 120c-7.5 10.5-7.5 25.5 0 36l90 120c6 7.5 15 12 24 12h540c16.5 0 30-13.5 30-30v-240c0-16.5-13.5-30-30-30z m-525 60h495V714H257l-67.5-90 67.5-90z m525-450H242c-16.5 0-30 13.5-30 30V354c0 16.5 13.5 30 30 30h540c9 0 18-4.5 24-12l90-120c7.5-10.5 7.5-25.5 0-36l-90-120c-6-7.5-15-12-24-12z m-510 60h495l67.5 90-67.5 90H272v-180z m240 180c-16.5 0-30 13.5-30 30V504c0 16.5 13.5 30 30 30s30-13.5 30-30v-150c0-16.5-13.5-30-30-30z m0-390c-16.5 0-30 13.5-30 30V114c0 16.5 13.5 30 30 30s30-13.5 30-30v-150c0-16.5-13.5-30-30-30z"  horiz-adv-x="1024" />

    
    <glyph glyph-name="shouye4" unicode="&#59194;" d="M164.52840924 596.5866481L448.6803981 769.44034075a115.05681848 115.05681848 0 0 0 119.77414728-0.07670462l282.65625-172.70028423a115.05681848 115.05681848 0 0 0 55.11221575-98.18181766V77.18181847999995a115.05681848 115.05681848 0 0 0-115.05681765-115.05681848H224.35795462a115.05681848 115.05681848 0 0 0-115.05681849 115.05681848V498.2897731a115.05681848 115.05681848 0 0 0 55.22727312 98.296875z m31.90909076-52.42755734A53.69318152 53.69318152 0 0 1 170.6647731 498.2897731V77.18181847999995A53.69318152 53.69318152 0 0 1 224.35795462 23.48863613000003h566.76988613a53.69318152 53.69318152 0 0 1 53.69318235 53.69318235V498.44318152a53.69318152 53.69318152 0 0 1-25.6960231 45.83096658l-282.65625 172.66193152a53.69318152 53.69318152 0 0 1-55.91761387 0.07670463L196.4375 544.15909075zM358.59090925 142.38068152000005h306.8181815a30.68181848 30.68181848 0 1 1 1e-8 61.36363696h-306.81818151a30.68181848 30.68181848 0 1 1-1e-8-61.36363696z"  horiz-adv-x="1024" />

    
    <glyph glyph-name="erweima1" unicode="&#59236;" d="M218.52173916 797.07065249h146.73913001a110.05434751 110.05434751 0 0 0 110.05434833-110.05434831v-146.73913002a110.05434751 110.05434751 0 0 0-110.05434833-110.05434832H218.52173916a110.05434751 110.05434751 0 0 0-110.0543475 110.05434832v146.73913002a110.05434751 110.05434751 0 0 0 110.05434751 110.05434831z m1e-8-58.69565249a51.35869582 51.35869582 0 0 1-51.35869584-51.35869583v-146.73913001A51.35869582 51.35869582 0 0 1 218.52173916 488.91847834h146.73913001a51.35869582 51.35869582 0 0 1 51.35869583 51.35869582v146.73913002A51.35869582 51.35869582 0 0 1 365.26086917 738.375H218.52173916zM163.49456501 272.47826083999996h281.04211998a29.34782584 29.34782584 0 1 1 1e-8 58.69565249H163.49456501a29.34782584 29.34782584 0 1 1-1e-8-58.6956525zM134.14673916 210.11413083000002v-165.08152249a29.34782584 29.34782584 0 1 1 58.69565251-1e-8v165.0815225a29.34782584 29.34782584 0 1 1-58.6956525 0zM391.01358667 210.11413083000002v-165.08152249a29.34782584 29.34782584 0 1 1 58.6956525-1e-8v165.0815225a29.34782584 29.34782584 0 1 1-58.6956525 0zM262.61684751 173.42934750999996v-91.71195584a29.34782584 29.34782584 0 1 1 58.69565249 0v91.71195584a29.34782584 29.34782584 0 1 1-58.69565249 0zM658.73913083 805.875h146.73913a110.05434751 110.05434751 0 0 0 110.0543475-110.05434751v-146.73913082a110.05434751 110.05434751 0 0 0-110.0543475-110.05434751h-146.73913a110.05434751 110.05434751 0 0 0-110.05434833 110.05434751V695.8206524899999a110.05434751 110.05434751 0 0 0 110.05434833 110.05434751z m0-58.69565249A51.35869582 51.35869582 0 0 1 607.380435 695.8206524899999v-146.73913083A51.35869582 51.35869582 0 0 1 658.73913083 497.72282584h146.73913A51.35869582 51.35869582 0 0 1 856.83695667 549.08152166V695.8206524899999A51.35869582 51.35869582 0 0 1 805.47826084 747.1793475100001h-146.73913001zM658.73913083 356.85326082999995h146.73913a110.05434751 110.05434751 0 0 0 110.0543475-110.0543475v-146.73913083a110.05434751 110.05434751 0 0 0-110.0543475-110.05434751h-146.73913a110.05434751 110.05434751 0 0 0-110.05434833 110.05434751v146.73913083a110.05434751 110.05434751 0 0 0 110.05434833 110.05434751z m0-58.6956525a51.35869582 51.35869582 0 0 1-51.35869583-51.358695v-146.73913083a51.35869582 51.35869582 0 0 1 51.35869583-51.35869583h146.73913a51.35869582 51.35869582 0 0 1 51.35869584 51.35869583v146.73913083a51.35869582 51.35869582 0 0 1-51.35869584 51.358695h-146.73913z"  horiz-adv-x="1024" />

    
    <glyph glyph-name="dianyingpiao" unicode="&#59567;" d="M640 501.333333a32 32 0 0 0 0-64H384a32 32 0 0 0 0 64h256z m0-170.666666a32 32 0 0 0 0-64H384a32 32 0 0 0 0 64h256zM117.333333 458.666667a32 32 0 0 0-32 32V640c0 64.8 52.533333 117.333333 117.333334 117.333333h618.666666c64.8 0 117.333333-52.533333 117.333334-117.333333v-149.333333a32 32 0 0 0-32-32 74.666667 74.666667 0 0 1 0-149.333334 32 32 0 0 0 32-32v-149.333333c0-64.8-52.533333-117.333333-117.333334-117.333333H202.666667c-64.8 0-117.333333 52.533333-117.333334 117.333333V277.333333a32 32 0 0 0 32 32 74.666667 74.666667 0 0 1 0 149.333334z m138.666667-74.666667c0-65.568-45.514667-120.512-106.666667-134.954667V128a53.333333 53.333333 0 0 1 53.333334-53.333333h618.666666a53.333333 53.333333 0 0 1 53.333334 53.333333V249.045333C813.514667 263.488 768 318.432 768 384c0 65.568 45.514667 120.512 106.666667 134.954667V640a53.333333 53.333333 0 0 1-53.333334 53.333333H202.666667a53.333333 53.333333 0 0 1-53.333334-53.333333v-121.045333C210.485333 504.512 256 449.568 256 384z"  horiz-adv-x="1024" />

    
    <glyph glyph-name="faxian" unicode="&#59573;" d="M512 810.666667c235.637333 0 426.666667-191.029333 426.666667-426.666667S747.637333-42.666667 512-42.666667 85.333333 148.362667 85.333333 384 276.362667 810.666667 512 810.666667z m0-64c-200.298667 0-362.666667-162.368-362.666667-362.666667s162.368-362.666667 362.666667-362.666667 362.666667 162.368 362.666667 362.666667-162.368 362.666667-362.666667 362.666667z m149.162667-158.901334a42.666667 42.666667 0 0 0 54.602666-54.602666L637.642667 316.16a96 96 0 0 0-57.813334-57.802667l-216.992-78.122666a42.666667 42.666667 0 0 0-54.602666 54.602666l78.122666 217.002667a96 96 0 0 0 57.813334 57.802667z m-20.970667-75.573333l-174.346667-62.762667a32 32 0 0 1-19.274666-19.274666l-62.762667-174.346667 174.346667 62.762667a32 32 0 0 1 19.274666 19.274666l62.762667 174.346667z"  horiz-adv-x="1024" />

    
    <glyph glyph-name="ertongpiao" unicode="&#59587;" d="M512 768c162.666667 0 305.568-102.058667 360.458667-251.328A138.741333 138.741333 0 0 0 970.666667 384a138.741333 138.741333 0 0 0-98.208-132.672C817.568 102.058667 674.677333 0 512 0c-162.666667 0-305.568 102.058667-360.458667 251.328A138.741333 138.741333 0 0 0 53.333333 384a138.741333 138.741333 0 0 0 98.208 132.672C206.432 665.941333 349.322667 768 512 768z m0-64c-140.832 0-263.893333-91.808-305.386667-224.096a32 32 0 0 0-25.802666-22.069333 74.688 74.688 0 0 1 0-147.669334 32 32 0 0 0 25.802666-22.08C248.106667 155.818667 371.168 64 512 64s263.893333 91.808 305.386667 224.096a32 32 0 0 0 25.802666 22.069333 74.688 74.688 0 0 1 0 147.669334 32 32 0 0 0-25.802666 22.08 319.808 319.808 0 0 1-128.714667 170.922666c-16.704-69.589333-77.621333-99.477333-170.88-85.130666a32 32 0 0 0 9.738667 63.253333c69.216-10.645333 97.728 4.981333 101.386666 52.949333A319.221333 319.221333 0 0 1 512 704zM364.714667 256.746667a32 32 0 0 0 45.066666 4.16A159.189333 159.189333 0 0 1 512 224c37.888 0 73.674667 13.173333 102.186667 36.885333a32 32 0 0 0 40.917333-49.216A223.178667 223.178667 0 0 0 512 160a223.178667 223.178667 0 0 0-143.136 51.690667 32 32 0 0 0-4.149333 45.066666zM384 490.666667a42.666667 42.666667 0 0 0 42.666667-42.666667v-42.666667a42.666667 42.666667 0 1 0-85.333334 0v42.666667a42.666667 42.666667 0 0 0 42.666667 42.666667z m256 0a42.666667 42.666667 0 0 0 42.666667-42.666667v-42.666667a42.666667 42.666667 0 1 0-85.333334 0v42.666667a42.666667 42.666667 0 0 0 42.666667 42.666667z"  horiz-adv-x="1024" />

    
    <glyph glyph-name="guanzhu" unicode="&#59588;" d="M790.976 705.28a32 32 0 0 0 45.258667 0.021333A457.248 457.248 0 0 0 970.666667 380.885333a457.248 457.248 0 0 0-134.293334-324.277333 32 32 0 1 0-45.258666 45.248A393.258667 393.258667 0 0 1 906.666667 380.885333a393.258667 393.258667 0 0 1-115.68 279.146667 32 32 0 0 0 0 45.258667z m-603.36-0.128a32 32 0 0 0 45.269333-45.248A393.258667 393.258667 0 0 1 117.333333 380.885333a393.258667 393.258667 0 0 1 115.466667-278.944 32 32 0 0 0-45.28-45.237333A457.248 457.248 0 0 0 53.333333 380.885333a457.248 457.248 0 0 0 134.293334 324.266667zM330.794667 610.133333a32 32 0 0 0 0.032-45.248A255.04 255.04 0 0 1 256 384a255.050667 255.050667 0 0 1 75.146667-181.184 32 32 0 1 0-45.216-45.301333A319.04 319.04 0 0 0 192 384a319.04 319.04 0 0 0 93.546667 226.090667 32 32 0 0 0 45.248 0.032z m407.36 0.266667A319.04 319.04 0 0 0 832 384a319.04 319.04 0 0 0-93.653333-226.208 32 32 0 0 0-45.28 45.237333A255.050667 255.050667 0 0 1 768 384a255.050667 255.050667 0 0 1-75.072 181.12 32 32 0 1 0 45.226667 45.269333zM566.752 512C637.408 512 682.666667 454.826667 682.666667 381.077333c0-58.005333-47.946667-116.789333-140.096-181.237333a53.333333 53.333333 0 0 0-61.141334 0C389.28 264.288 341.333333 323.072 341.333333 381.077333 341.333333 454.826667 386.592 512 457.258667 512c21.632 0 37.514667-5.994667 54.741333-18.421333C529.226667 506.005333 545.109333 512 566.741333 512z m0-64c-8.32 0-14.56-3.328-27.52-14.538667l-6.336-5.504a32 32 0 0 0-41.770667 0l-6.336 5.504c-12.96 11.2-19.2 14.538667-27.52 14.538667C425.653333 448 405.333333 422.325333 405.333333 381.077333c0-29.941333 34.410667-72.938667 106.666667-124.48 72.256 51.541333 106.666667 94.538667 106.666667 124.48C618.666667 422.325333 598.346667 448 566.741333 448z"  horiz-adv-x="1024" />

    
    <glyph glyph-name="shouye2" unicode="&#59592;" d="M155.584 553.44l312.874667 224.565333a74.666667 74.666667 0 0 0 87.082666 0l312.874667-224.565333A117.333333 117.333333 0 0 0 917.333333 458.133333V96c0-64.8-52.533333-117.333333-117.333333-117.333333H224c-64.8 0-117.333333 52.533333-117.333333 117.333333V458.122667a117.333333 117.333333 0 0 0 48.917333 95.317333z m37.322667-51.989333A53.333333 53.333333 0 0 1 170.666667 458.122667V96a53.333333 53.333333 0 0 1 53.333333-53.333333h576a53.333333 53.333333 0 0 1 53.333333 53.333333V458.122667a53.333333 53.333333 0 0 1-22.24 43.328L518.218667 726.016a10.666667 10.666667 0 0 1-12.437334 0L192.906667 501.44z"  horiz-adv-x="1024" />

    
    <glyph glyph-name="xiaoxizhongxin" unicode="&#59593;" d="M192.032 264.597333V491.274667C192.032 667.669333 335.285333 810.666667 512 810.666667s319.968-142.997333 319.968-319.392v-226.677334l60.608-121.013333c10.645333-21.237333-4.832-46.218667-28.618667-46.218667H160.042667c-23.786667 0-39.253333 24.981333-28.618667 46.218667l60.608 121.013333z m620.16-103.36l-40.842667 81.536a31.893333 31.893333 0 0 0-3.381333 14.282667V491.274667c0 141.12-114.602667 255.509333-255.968 255.509333S256.032 632.394667 256.032 491.274667V257.066667c0-4.96-1.162667-9.845333-3.381333-14.293334l-40.842667-81.525333h600.384z m-443.306667-152.32a31.893333 31.893333 0 0 0-4.149333 44.981334 32.032 32.032 0 0 0 45.056 4.138666A159.36 159.36 0 0 1 512 21.226667a159.36 159.36 0 0 1 102.186667 36.8 32.032 32.032 0 0 0 45.056-4.138667 31.893333 31.893333 0 0 0-4.16-44.981333A223.402667 223.402667 0 0 0 512-42.666667c-52.981333 0-103.2 18.453333-143.114667 51.594667z"  horiz-adv-x="1024" />

    
    <glyph glyph-name="dianyingpiao1" unicode="&#59594;" d="M821.333333 757.333333c64.8 0 117.333333-52.533333 117.333334-117.333333v-149.333333a32 32 0 0 0-32-32 74.666667 74.666667 0 0 1 0-149.333334 32 32 0 0 0 32-32v-149.333333c0-64.8-52.533333-117.333333-117.333334-117.333333H202.666667c-64.8 0-117.333333 52.533333-117.333334 117.333333V277.333333a32 32 0 0 0 32 32 74.666667 74.666667 0 0 1 0 149.333334 32 32 0 0 0-32 32V640c0 64.8 52.533333 117.333333 117.333334 117.333333h618.666666zM640 330.666667H384a32 32 0 0 1 0-64h256a32 32 0 0 1 0 64z m0 170.666666H384a32 32 0 0 1 0-64h256a32 32 0 0 1 0 64z"  horiz-adv-x="1024" />

    
    <glyph glyph-name="faxian1" unicode="&#59595;" d="M512 810.666667c235.637333 0 426.666667-191.029333 426.666667-426.666667S747.637333-42.666667 512-42.666667 85.333333 148.362667 85.333333 384 276.362667 810.666667 512 810.666667z m149.162667-222.901334L444.16 509.642667a96 96 0 0 1-57.802667-57.813334l-78.122666-216.992a42.666667 42.666667 0 0 1 54.602666-54.602666l217.002667 78.122666a96 96 0 0 1 57.802667 57.813334l78.122666 216.992a42.666667 42.666667 0 0 1-54.602666 54.602666zM512 330.666667a53.333333 53.333333 0 1 1 0 106.666666 53.333333 53.333333 0 0 1 0-106.666666z"  horiz-adv-x="1024" />

    
    <glyph glyph-name="shouye3" unicode="&#59596;" d="M555.541333 778.005333l312.874667-224.565333A117.333333 117.333333 0 0 0 917.333333 458.133333V96c0-64.8-52.533333-117.333333-117.333333-117.333333H640V149.333333c0 70.688-57.312 128-128 128s-128-57.312-128-128v-170.666666H224c-64.8 0-117.333333 52.533333-117.333333 117.333333V458.122667a117.333333 117.333333 0 0 0 48.917333 95.317333l312.874667 224.565333a74.666667 74.666667 0 0 0 87.082666 0z"  horiz-adv-x="1024" />

    
    <glyph glyph-name="shuju2" unicode="&#59597;" d="M512 810.666667c235.637333 0 426.666667-191.029333 426.666667-426.666667S747.637333-42.666667 512-42.666667 85.333333 148.362667 85.333333 384 276.362667 810.666667 512 810.666667z m214.592-318.677334a32 32 0 0 1-45.248-0.064L544.736 354.933333l-81.792 89.109334a32 32 0 0 1-46.613333 0.576l-119.36-123.733334a32 32 0 1 1 46.058666-44.437333l95.754667 99.264 81.418667-88.704a32 32 0 0 1 46.24-0.96l160.213333 160.693333a32 32 0 0 1-0.064 45.248z"  horiz-adv-x="1024" />

    
    <glyph glyph-name="wenda" unicode="&#59598;" d="M512 810.666667c235.637333 0 426.666667-191.029333 426.666667-426.666667S747.637333-42.666667 512-42.666667a424.778667 424.778667 0 0 0-219.125333 60.501334 2786.56 2786.56 0 0 1-20.053334 11.765333l-104.405333-28.48c-23.893333-6.506667-45.802667 15.413333-39.285333 39.296l28.437333 104.288c-11.008 18.688-18.218667 31.221333-21.802667 37.909333A424.885333 424.885333 0 0 0 85.333333 384C85.333333 619.637333 276.362667 810.666667 512 810.666667z m0-586.666667a32 32 0 1 1 0-64 32 32 0 0 1 0 64z m-2.517333 373.333333c-48.416 0-92.746667-24.16-118.613334-63.413333a137.088 137.088 0 0 1-15.978666-33.237333 32 32 0 0 1 60.906666-19.690667c2.016 6.24 4.885333 12.202667 8.522667 17.717333C458.4 520.085333 482.709333 533.333333 509.482667 533.333333 552.277333 533.333333 586.666667 499.733333 586.666667 458.666667s-34.4-74.666667-77.194667-74.666667a32 32 0 0 1-32-32v-64a32 32 0 0 1 64 0v35.584C603.946667 337.802667 650.666667 392.768 650.666667 458.666667c0 76.757333-63.381333 138.666667-141.194667 138.666666z"  horiz-adv-x="1024" />

    
    <glyph glyph-name="yingchengka1" unicode="&#59599;" d="M821.333333 757.333333c64.8 0 117.333333-52.533333 117.333334-117.333333v-512c0-64.8-52.533333-117.333333-117.333334-117.333333H202.666667c-64.8 0-117.333333 52.533333-117.333334 117.333333V640c0 64.8 52.533333 117.333333 117.333334 117.333333h618.666666zM425.546667 499.872a32 32 0 0 1-40.085334-20.992L362.666667 405.952l-22.794667 72.928a32 32 0 1 1-61.077333-19.093333l53.333333-170.666667c9.354667-29.941333 51.733333-29.941333 61.077333 0l53.333334 170.666667a32 32 0 0 1-20.992 40.085333zM512 501.333333a32 32 0 0 1-32-32v-170.666666a32 32 0 0 1 64 0V469.333333a32 32 0 0 1-32 32z m160 0h-64a32 32 0 0 1-32-32v-170.666666a32 32 0 0 1 64 0v53.333333h32a74.666667 74.666667 0 0 1 0 149.333333z m0-64a10.666667 10.666667 0 0 0 0-21.333333h-32v21.333333z"  horiz-adv-x="1024" />

    
    <glyph glyph-name="dianying1" unicode="&#59601;" d="M512 810.666667c235.637333 0 426.666667-191.029333 426.666667-426.666667a432.554667 432.554667 0 0 0-4.490667-62.112 423.36 423.36 0 0 0-8.789333-43.914667l-0.458667-1.749333-0.330667-1.301333-1.418666-5.216a423.210667 423.210667 0 0 0-9.365334-29.546667l-1.066666-2.944a426.698667 426.698667 0 0 0-94.357334-150.154667c22.986667-3.082667 43.818667-10.837333 62.4-23.466666a32 32 0 1 0-35.957333-52.938667c-30.485333 20.714667-77.781333 18.965333-144.053333-9.386667a343.68 343.68 0 0 0-5.706667-2.773333l-1.834667-0.853333c-1.568-0.746667-3.136-1.472-4.704-2.186667l-0.874666-0.394667c-1.834667-0.832-3.68-1.653333-5.525334-2.453333l-0.778666-0.330667c-1.706667-0.746667-3.413333-1.472-5.12-2.197333-0.533333-0.202667-1.034667-0.416-1.546667-0.629333-3.658667-1.514667-7.349333-2.986667-11.061333-4.394667l-2.250667-0.832a278.826667 278.826667 0 0 0-3.914667-1.450667l-2.453333-0.874666c-1.6-0.576-3.232-1.152-4.853333-1.706667a322.752 322.752 0 0 0-6.08-2.026667l-1.941334-0.618666c-1.781333-0.576-3.573333-1.130667-5.365333-1.685334l-0.693333-0.202666c-1.717333-0.533333-3.445333-1.034667-5.173334-1.536l-2.101333-0.597334c-1.248-0.362667-2.485333-0.704-3.733333-1.045333l-3.082667-0.832c-1.173333-0.32-2.346667-0.629333-3.530667-0.928l-2.922666-0.736c-1.706667-0.426667-3.434667-0.853333-5.162667-1.258667l-1.173333-0.266666c-10.346667-2.410667-20.821333-4.448-31.424-6.08l-2.592-0.394667-0.746667-0.106667A426.250667 426.250667 0 0 0 512-42.666667C276.362667-42.666667 85.333333 148.362667 85.333333 384S276.362667 810.666667 512 810.666667z m0-522.666667a64 64 0 1 1 0-128 64 64 0 0 1 0 128z m160 160a64 64 0 1 1 0-128 64 64 0 0 1 0 128z m-320 0a64 64 0 1 1 0-128 64 64 0 0 1 0 128z m160 160a64 64 0 1 1 0-128 64 64 0 0 1 0 128z"  horiz-adv-x="1024" />

    
    <glyph glyph-name="ziyuan" unicode="&#59184;" d="M897.82162842 793.45708713a66.86859402 66.86859402 0 0 1-70.3291506 4.5253427L133.41137478 430.09868169a67.18803003 67.18803003 0 0 1 0.42591496-118.98989482l181.01371096-93.59473618a26.61966321 26.61966321 0 1 1 24.43685064 47.27652209l-181.01371096 93.54149671a13.94870362 13.94870362 0 0 0 0 24.70304718l654.52428286 346.85421377L422.44767996 264.73733331999995A201.83028743 201.83028743 0 0 1 375.17115787 135.04633357v-131.92705181a40.4618887 40.4618887 0 0 1 30.55937338-39.61005962 42.0590679 42.0590679 0 0 1 10.64786545-1.38422214 40.40864922 40.40864922 0 0 1 35.4041521 20.92305542l68.30605645 121.1727074L725.91184235 0.5105542699999432a67.18803003 67.18803003 0 0 1 97.69416476 49.51257412l101.846832 678.58845804a66.86859402 66.86859402 0 0 1-27.63121069 64.8455007z m-127.0290336-735.50129892a13.68250708 13.68250708 0 0 0-7.50674488-10.64786546 13.89546414 13.89546414 0 0 0-13.15011401 0.26619654l-224.77643783 113.77244148a26.61966321 26.61966321 0 0 1-7.24054834 2.28929066 26.61966321 26.61966321 0 0 1-32.36951047-11.81913051L428.41048428 49.86341078999999v85.18292278a148.48448209 148.48448209 0 0 0 34.71204144 95.29839431l406.37578052 484.47787335z"  horiz-adv-x="1024" />

    
    <glyph glyph-name="chat" unicode="&#59186;" d="M862.64 601.74c14.76-0.54 29.28-3.3 43.14-8.76a127.8 127.8 0 0 0 72.48-74.28c4.74-12.96 7.14-26.46 7.68-40.26 0.84-70.56 0.84-141.12 0-211.68a133.2 133.2 0 0 0-8.76-43.2 127.92 127.92 0 0 0-77.22-73.5 130.68 130.68 0 0 0-40.44-6.66h-76.8l-1.98-69-0.18-2.4a27.9 27.9 0 0 0-3.06-9.06 24.36 24.36 0 0 0-24.6-11.58 26.1 26.1 0 0 0-8.94 3.42L603.74 143.39999999999998c-52.68 0-105.36-0.6-158.04 0.06a130.8 130.8 0 0 0-45.96 9.9 127.74 127.74 0 0 0-69.66 73.14 131.52 131.52 0 0 0-7.68 40.26 8890.86 8890.86 0 0 0 0 211.68c0.54 13.8 2.94 27.3 7.68 40.26a127.8 127.8 0 0 0 72.48 74.28c13.86 5.46 28.38 8.22 43.14 8.76 138.96 1.74 277.98 1.74 416.94 0z m-413.52-47.94a80.16 80.16 0 0 1-27.12-4.8 79.5 79.5 0 0 1-46.86-46.8 82.5 82.5 0 0 1-4.74-24.96c-0.9-70.44-2.58-140.94 0.12-211.32 0.48-7.86 1.92-15.54 4.62-22.92a78.78 78.78 0 0 1 71.82-51.54c54.54-0.72 109.14-0.06 163.74-0.06a27.42 27.42 0 0 0 12.78-3.72l110.46-69.84 1.44 50.22 0.18 2.34a24 24 0 0 0 21.54 20.88c35.4 1.74 70.92-1.14 106.32 0.24 7.86 0.48 15.54 1.92 22.92 4.62a79.44 79.44 0 0 1 51.6 71.82c0.9 70.44 2.58 140.94-0.12 211.26a81.48 81.48 0 0 1-4.62 22.98 79.56 79.56 0 0 1-45.06 46.14 81.78 81.78 0 0 1-26.76 5.4c-137.4 1.74-274.8 0.06-412.26 0.06z m47.82 161.94a110.22 110.22 0 0 0 77.22-34.74 32.7 32.7 0 0 0 8.76-13.56 24.24 24.24 0 0 0-22.14-30.3 25.02 25.02 0 0 0-16.02 5.28c-3.24 2.82-5.94 6.24-9.12 9.18a64.02 64.02 0 0 1-38.28 16.08 4364.88 4364.88 0 0 1-352.26 0 62.4 62.4 0 0 1-54.84-39.42 64.8 64.8 0 0 1-4.2-19.62 2347.2 2347.2 0 0 1 0-179.16c0.36-6.24 1.5-12.36 3.66-18.24a63.18 63.18 0 0 1 52.2-40.62c2.94-0.3 5.88-0.24 8.88-0.42 2.1-0.3 2.1-0.3 4.26-0.84a24.72 24.72 0 0 0 17.28-22.5l0.48-22.38 72.18 34.5c1.98 0.84 1.92 0.84 4.02 1.5a25.62 25.62 0 0 0 10.68 0.48 24.24 24.24 0 0 0 18.48-31.08 24.84 24.84 0 0 0-10.56-13.14c-35.1-18.78-71.7-34.44-107.58-51.6a24.18 24.18 0 0 0-34.32 21.12l-0.9 38.58c-3.18 0.66-6.24 1.56-9.3 2.46a113.04 113.04 0 0 0-33.24 16.98A111 111 0 0 0 38 429.84C37.22 489.3 37.22 548.8199999999999 38 608.28c0.48 12.9 2.88 25.56 7.62 37.62 11.46 29.1 35.4 52.44 64.74 63.18 11.34 4.14 23.1 6.24 35.1 6.66 117.18 1.5 234.36 1.68 351.48 0z m5.1-311.94a36 36 0 1 0-0.06-72.06 36 36 0 0 0 0.06 72.06z m152.1 0a36 36 0 1 0 0-72 36 36 0 0 0 0 72z m152.16 0a36 36 0 1 0-0.06-72.06 36 36 0 0 0 0.06 72.06z"  horiz-adv-x="1024" />

    
    <glyph glyph-name="fabuhui" unicode="&#59180;" d="M512-27.33333332999996q-4.68 0-9.39 1.41t-8.43 4.23-6.57 6.57l-60.93 85.32q-146.25 26.25-240.48 125.16t-94.23 227.34q0 149.07 123.27 254.52t296.73 105.48 296.73-105.48 123.27-254.52q0-128.43-94.23-227.34t-240.48-125.16l-60.93-85.32q-9.39-12.18-24.39-12.18zM512 722.66666667q-149.07 0-254.52-88.14t-105.48-211.89q0-71.25 37.98-134.52t105.93-105.48 152.34-55.32q12.18-1.89 19.68-12.18l44.07-60.93 44.07 60.93q6.57 10.32 19.68 12.18 128.43 19.68 212.34 103.14t83.91 192.18q0 123.75-105.48 211.89t-254.52 88.14zM302.48 362.66666667000004q-24.84 0-42.66 17.82t-17.82 42.18 17.82 42.18 42.66 17.82 42.18-17.82 17.34-42.18-17.34-42.18-42.18-17.82zM302 422.66666667l0 0zM722 362.66666667000004q-6.57 0-13.59 1.41t-12.66 4.68-11.25 7.02-9.39 9.39-7.02 11.25-4.68 12.66-1.41 13.59q0 24.39 17.82 42.18t42.18 17.82q9.39 0 18.75-2.82t16.89-8.43 13.14-13.14 8.43-16.89 2.82-18.75q0-24.39-17.34-42.18t-42.66-17.82zM722 422.66666667l0 0zM512.48 362.66666667000004q-24.84 0-42.66 17.82t-17.82 42.18 17.82 42.18 42.18 17.82q9.39 0 18.75-2.82t16.89-8.43 13.14-13.14 8.43-16.89 2.82-18.75q0-24.39-17.34-42.18t-42.18-17.82zM512 422.66666667l0 0z"  horiz-adv-x="1024" />

    
    <glyph glyph-name="houtui" unicode="&#59182;" d="M511.22793579-35.14929199000005c-231.90930175 0-419.90982055 188.00381469-419.90982056 419.91394043s188.0005188 419.90734864 419.90982056 419.90734864c231.91342163 0 419.90982055-187.9972229 419.90982056-419.90734864s-187.9972229-419.91394043-419.90982056-419.91394044zM511.22793579 752.1864624c-202.91857911 0-367.42181396-164.49993896-367.42181396-367.42181396s164.50323487-367.41851807 367.42181396-367.41851807c202.92517089 0 367.42181396 164.49664307 367.42181397 367.41851807s-164.49499511 367.42181396-367.42181397 367.42181396zM694.93884278 358.51940917h-277.81622315l108.15902709-108.16232299c10.25271607-10.24942016 10.25271607-26.86816406 0-37.11593628-10.24942016-10.24942016-26.86816406-10.24942016-37.11593627 0l-148.45715332 148.46209717c-6.29104614 6.29598999-8.24386597 14.90982055-6.81674195 23.05975342-1.427948 8.14334107 0.52487182 16.76129151 6.81674195 23.05728149l148.45632935 148.46621704c10.24942016 10.24942016 26.86816406 10.24942016 37.11593628 1e-8 10.25271607-10.24612427 10.25271607-26.86816406 0-37.11593629l-108.15820313-108.162323h277.81622314c14.49783325 0 26.24523925-11.74987793 26.24523926-26.24441528s-11.74658203-26.24523925-26.24523925-26.24523925z"  horiz-adv-x="1024" />

    
    <glyph glyph-name="tishi1" unicode="&#59185;" d="M234.85900977 673.32771094c-11.43841289 10.90390781-29.82539531 10.90390781-41.26380821 0-11.43841289-10.90390781-11.43841289-28.54258242 0-39.33958886L234.85900977 594.5416318299999c11.43841289-10.90390781 29.82539531-10.90390781 41.26380732 1e-8 11.43841289 10.90390781 11.43841289 28.54258242 0 39.33958886l-41.26380732 39.44649024z m554.28198046 0L747.87718291 633.8812207c-11.43841289-10.90390781-11.43841289-28.54258242 0-39.33958886 11.3315124-10.90390781 29.82539531-10.90390781 41.26380732 0l41.26380821 39.33958886c11.43841289 10.90390781 11.43841289 28.54258242 0 39.33958975-11.3315124 10.90390781-29.82539531 10.90390781-41.26380821 0.10690049zM161.95248828 452.89773164h-58.36797685c-16.14205987 0-29.18398887-12.50742393-29.18398887-27.79427549 0-15.39375205 13.04192901-27.79427461 29.18398887-27.79427461h58.36797685c16.14205987 0 29.18398887 12.50742393 29.18398887 27.79427461 0 15.39375205-13.14883037 27.79427461-29.18398887 27.79427549z m758.46300029 0h-58.36797685c-16.14205987 0-29.18398887-12.50742393-29.18398887-27.79427549 0-15.39375205 13.04192901-27.79427461 29.18398887-27.79427461h58.36797685c16.14205987 0 29.18398887 12.50742393 29.18398887 27.79427461 0 15.39375205-13.04192901 27.79427461-29.18398887 27.79427549zM482.86946182 773.1732987299999V717.47784815c0-15.39375205 13.04192901-27.79427461 29.18398886-27.79427549 16.14205987 0 29.18398887 12.50742393 29.18398887 27.79427549V773.1732987299999c0 15.39375205-13.04192901 27.79427461-29.18398887 27.79427461-16.14205987 0-29.18398887-12.40052256-29.18398886-27.79427461zM249.39755352 383.30514287000005C249.39755352 244.97517539 366.98871641 132.72906504000002 512.05345068 132.72906504000002 657.01128359 132.72906504000002 774.60244648 244.97517539 774.60244648 383.30514287000005c0 138.43686885-117.59116289 250.57607783-262.5489958 250.57607783-145.06473427 0-262.65589717-112.13920898-262.65589716-250.57607783z m204.28791943-389.76125362c0-15.39375205 13.04192901-27.79427461 29.18398887-27.79427548h58.36797773c16.14205987 0 29.18398887 12.50742393 29.18398799 27.79427548 0 15.39375205-13.04192901 27.79427461-29.18398799 27.79427461h-58.36797773c-16.14205987 0-29.18398887-12.40052256-29.18398887-27.79427461z m-58.36797686 83.4897252c0-15.39375205 13.04192901-27.79427461 29.18398888-27.79427461h174.99703007c16.14205987 0 29.18398887 12.50742393 29.18398887 27.79427461 0 15.39375205-13.04192901 27.79427461-29.18398887 27.79427461H424.50148496c-16.14205987 0.10690137-29.18398887-12.40052256-29.18398887-27.79427461z m0 0"  horiz-adv-x="1024" />

    
    <glyph glyph-name="fabuqingbao" unicode="&#59187;" d="M521.71036574-35.302591649999954c-226.37195095 0-411.58536575 185.21341479-411.58536574 411.58536577S295.33841479 787.86813986 521.71036574 787.86813986c48.87576205 0 95.17911575-7.71722588 141.48246946-25.7240852 12.8620426-5.14481671 20.57926849-20.57926849 15.43445178-33.4413111-5.14481671-12.8620426-20.57926849-20.57926849-33.44131109-15.43445096-38.58612781 15.43445095-79.74466479 20.57926849-123.47561015 20.5792685C323.63490835 733.8475611 161.57317041 574.35823151 161.57317041 376.28277412s162.06173795-360.13719534 360.13719533-360.13719453 360.13719534 162.06173795 360.13719535 360.13719452c0 15.43445095 10.28963425 25.72408521 25.7240852 25.72408603s25.72408521-10.28963425 25.72408521-25.72408603c0-228.94436014-185.21341479-411.58536575-411.58536576-411.58536576zM367.36585369 167.91768329s182.64100644 360.13719534 231.5167685 411.58536576c154.34451205 156.91692041 424.44740835 239.23399356 437.30945096 180.06859726s-10.28963425-154.34451205-51.44817041-180.06859726-92.6067074-33.44131109-102.89634164-51.44817124-12.8620426-72.02743891-51.44817124-102.89634083-208.36509165-61.73780466-231.51676767-51.44817123-36.01371945 30.86890274-51.44817124 25.7240852-25.72408521-110.61356671-51.4481704-154.34451204-90.03429905-108.04115835-102.89634165-102.89634165-33.44131109 0-25.72408521 25.72408603z"  horiz-adv-x="1158" />

    
    <glyph glyph-name="hongbao2" unicode="&#59188;" d="M564.40478516 755.36535645L155.87817383 645.85913086C108.58203125 633.16992188 80.56689453 584.5554199200001 93.17370605 537.2592773399999l1.89514161-7.08618164 286.99035645-14.50195312 52.32238769 14.00756836L675.0645752 684.75073242l-2.14233399 7.91015625C660.23303223 739.95703125 611.70092773 768.05456543 564.40478516 755.36535645zM393.75964355 471.7532959L106.11010742 488.89196778 226.90478516 38.01306151999995c12.68920898-47.29614258 61.30371094-75.3112793 108.59985351-62.70446777l408.52661133 109.50622559c47.29614258 12.68920898 75.3112793 61.30371094 62.70446778 108.59985351L686.10583497 643.38720703 446.08203125 485.76086426l-52.3223877-14.00756837zM512.82397461 441.43103028l29.99267578-10.29968262c4.28466797-1.4831543 6.50939942-6.17980958 5.10864258-10.38208008l-37.65563965-109.09423828c-0.49438477-1.40075684 0.82397461-2.80151367 2.22473145-2.38952638l49.52087402 13.26599122c4.36706543 1.15356445 8.89892578-1.40075684 10.05249024-5.76782227l8.23974609-30.56945801c1.15356445-4.36706543-1.40075684-8.89892578-5.76782226-10.05249023l-64.10522462-17.22106933c-2.71911622-0.74157715-4.36706543-3.54309083-3.62548828-6.3446045l4.8614502-18.29223633c0.74157715-2.71911622 3.54309083-4.36706543 6.34460448-3.62548828l64.10522461 17.22106934c4.36706543 1.15356445 8.89892578-1.40075684 10.05249024-5.76782226l8.23974609-30.56945802c1.15356445-4.36706543-1.40075684-8.89892578-5.76782226-10.05249023l-64.10522461-17.22106933c-2.71911622-0.74157715-4.36706543-3.54309083-3.62548829-6.3446045l11.70043946-43.50585937c1.15356445-4.36706543-1.40075684-8.89892578-5.76782227-10.05249024l-30.569458-8.23974609c-4.36706543-1.15356445-8.89892578 1.40075684-10.05249024 5.76782226l-11.70043945 43.50585938c-0.74157715 2.71911622-3.54309083 4.36706543-6.3446045 3.62548828l-65.91796875-17.63305664c-4.36706543-1.15356445-8.89892578 1.40075684-10.05249023 5.76782226l-8.23974609 30.56945802c-1.15356445 4.36706543 1.40075684 8.89892578 5.76782226 10.05249023l65.91796875 17.63305664c2.71911622 0.74157715 4.36706543 3.54309083 3.62548828 6.3446045l-4.86145019 18.29223632c-0.74157715 2.71911622-3.54309083 4.36706543-6.34460449 3.62548829l-65.91796875-17.63305665c-4.36706543-1.15356445-8.89892578 1.40075684-10.05249024 5.76782227l-8.23974609 30.56945801c-1.15356445 4.36706543 1.40075684 8.89892578 5.76782226 10.05249023l54.95910645 14.74914551c1.4831543 0.41198731 1.89514161 2.30712891 0.65917969 3.21350098l-92.28515625 71.85058593c-3.54309083 2.80151367-4.20227051 7.91015625-1.40075684 11.53564453l19.44580079 24.96643067c2.80151367 3.54309083 7.91015625 4.20227051 11.53564452 1.40075683l88.74206544-69.13146973c3.3782959-2.63671875 8.32214356-1.15356445 9.72290039 2.88391114l35.34851074 102.42004395c1.4831543 4.28466797 6.17980958 6.59179688 10.46447754 5.10864257zM845.21533203 699.74707031H695.16955567l9.31091308-34.68933106 0.08239746 0.08239747 33.5357666-124.99694825 195.85876466 62.78686525v8.15734862c-0.08239747 48.9440918-39.79797364 88.65966797-88.74206544 88.65966797zM767.02014161 62.89709472000004l-214.31579591-57.43103027h292.5933838c48.9440918 0 88.65966797 39.71557617 88.65966796 88.65966797V560.08337403l-184.81750488-61.13891603 85.52856445-319.04296874c13.51318359-50.92163086-16.72668458-103.32641602-67.64831543-117.00439454z"  horiz-adv-x="1024" />

    
    </font>
</defs>
</svg>
