<?xml version="1.0" standalone="no"?>
<!DOCTYPE svg PUBLIC "-//W3C//DTD SVG 1.1//EN" "http://www.w3.org/Graphics/SVG/1.1/DTD/svg11.dtd" >
<!--
2013-9-30: Created.
-->
<svg>
<metadata>
Created by iconfont
</metadata>
<defs>

<font id="comiis_mhfont" horiz-adv-x="1024" >
  <font-face
    font-family="comiis_mhfont"
    font-weight="500"
    font-stretch="normal"
    units-per-em="1024"
    ascent="896"
    descent="-128"
  />
    <missing-glyph />
    
    <glyph glyph-name="x" unicode="x" horiz-adv-x="1001"
d="M281 543q-27 -1 -53 -1h-83q-18 0 -36.5 -6t-32.5 -18.5t-23 -32t-9 -45.5v-76h912v41q0 16 -0.5 30t-0.5 18q0 13 -5 29t-17 29.5t-31.5 22.5t-49.5 9h-133v-97h-438v97zM955 310v-52q0 -23 0.5 -52t0.5 -58t-10.5 -47.5t-26 -30t-33 -16t-31.5 -4.5q-14 -1 -29.5 -0.5
t-29.5 0.5h-32l-45 128h-439l-44 -128h-29h-34q-20 0 -45 1q-25 0 -41 9.5t-25.5 23t-13.5 29.5t-4 30v167h911zM163 247q-12 0 -21 -8.5t-9 -21.5t9 -21.5t21 -8.5q13 0 22 8.5t9 21.5t-9 21.5t-22 8.5zM316 123q-8 -26 -14 -48q-5 -19 -10.5 -37t-7.5 -25t-3 -15t1 -14.5
t9.5 -10.5t21.5 -4h37h67h81h80h64h36q23 0 34 12t2 38q-5 13 -9.5 30.5t-9.5 34.5q-5 19 -11 39h-368zM336 498v228q0 11 2.5 23t10 21.5t20.5 15.5t34 6h188q31 0 51.5 -14.5t20.5 -52.5v-227h-327z" />
    

    
    <glyph glyph-name="dianhua1" unicode="&#59055;" d="M881.471488 86.206208c0-137.894912-63.214592-137.614336-368.458752-137.614336-305.22368 0-368.439296-0.280576-368.439296 137.614336 0 150.503424 164.959232 450.78528 368.439296 450.78528C716.50816 536.991488 881.471488 236.708608 881.471488 86.206208zM514.089984 472.453888c-86.46144 0-156.545024-70.501376-156.545024-157.47072 0-86.979584 70.083584-157.47072 156.545024-157.47072 86.449152 0 156.534784 70.491136 156.534784 157.47072C670.625792 401.952512 600.539136 472.453888 514.089984 472.453888zM185.974784 356.537088c64.176128 103.3472 175.115264 213.604352 326.268928 213.604352 151.114752 0 269.262848-119.320576 322.808832-212.68992 27.672576-46.332928 80.812032-41.427968 103.973888 0 14.884864 31.0016 61.395968 290.686976-426.78272 290.686976C18.5856 647.47904 69.59616 379.827968 86.929408 357.450496 117.630976 310.499072 175.473664 334.436096 185.974784 356.537088z"  horiz-adv-x="1024" />

    
    <glyph glyph-name="fuwuchuangb" unicode="&#59051;" d="M638.665 227.488l-132.692 69.906-131.188-72.874 23.593 151.52-107.889 105.918 147.294 23.737 64.511 138.393 67.429-136.889 147.753-20.403-105.625-108.317 26.815-150.991zM856.394 830.973h-693.859c-28.055 0-47.889-30.483-47.889-59.38v-776.948c0-75.516 71.012-60.559 96.698-48.894l253.557 115.265c25.687 11.666 67.389 11.828 93.156 0.406l270.204-119.695c25.746-11.462 82.27-6.179 82.27 60.599v769.266c0 28.898-26.084 59.38-54.137 59.38z"  horiz-adv-x="1024" />

    
    <glyph glyph-name="comiissxyj" unicode="&#59003;" d="M512 725.333c-297.438 0-477.867-231.083-477.867-341.333 0-138.035 180.429-341.333 477.867-341.333 298.667 0 477.867 203.298 477.867 341.333 0 110.251-179.2 341.333-477.867 341.333zM511.795 213.606c-94.276 0-170.667 76.39-170.667 170.667s76.39 170.667 170.667 170.667c94.276 0 170.667-76.39 170.667-170.667 0-94.208-76.39-170.667-170.667-170.667z"  horiz-adv-x="1024" />

    
    <glyph glyph-name="duihuanzhuanqu" unicode="&#59019;" d="M553.125 565.237c-8.178-8.178-8.178-21.436 0-29.613 8.178-8.178 21.435-8.178 29.613 0 8.177 8.177 8.177 25.283 0 33.46-8.178 8.177-21.435 4.33-29.613-3.847zM512 830.71c-348.306 0-446.709-98.403-446.709-446.709s98.403-446.709 446.709-446.709c348.307 0 446.709 98.403 446.709 446.709s-98.402 446.709-446.709 446.709zM375.45 223.601l-138.194 138.194c-10.857 10.857-10.857 28.626 0 39.483l217.158 217.158c10.858 10.858 32.288 20.403 47.623 21.21l131.794 6.941c15.335 0.807 27.22-11.077 26.413-26.413l-6.941-131.794c-0.807-15.334-10.352-36.764-21.21-47.623l-217.157-217.158c-10.858-10.858-28.627-10.858-39.484 0zM760.72 415.462l-130.419-278.039c-6.522-13.903-23.23-19.942-37.133-13.421l-148.825 69.809c0.065 0.064 0.145 0.107 0.211 0.173l217.146 217.152c18.322 18.308 32.063 49.172 33.427 75.033l6.611 125.45c10.962 0.375 21.002-6.386 24.477-17.856l38.268-126.306c4.45-14.695 2.758-38.093-3.763-51.995z"  horiz-adv-x="1024" />

    
    <glyph glyph-name="rexiaopaixing" unicode="&#59020;" d="M512 830.71c-348.306 0-446.709-98.403-446.709-446.709s98.403-446.709 446.709-446.709 446.709 98.402 446.709 446.708-98.403 446.71-446.709 446.71zM285.951 289.128c50.823 93.839 35.685 146.091-30.638 191.591 60.865 3.497 114.193-29.153 150.908-75.024-6.805-12.763-13.394-25.753-19.311-39.338-30.144-69.213-26.659-138.277 9.808-194.446 1.275-1.963 2.802-3.697 4.142-5.604-71.906-36.434-158.635 42.083-114.91 122.82zM545.564 104.805c-100.229 0-205.771 110.855-143.128 254.703 62.644 143.849 196.35 245.974 80.484 359.523 0 0 123.852-28.067 127.431-131.321s-61.898-161.683-21.628-282.586c-27.394 99.883 18.587 197.693 120.606 225.051-101.124-106.783 18.793-142.084 20.583-249.75 1.792-107.667-84.12-175.62-184.349-175.62z"  horiz-adv-x="1024" />

    
    <glyph glyph-name="comiisshequon" unicode="&#58890;" d="M511.628 831.995c-246.852 0-447.666-172.128-447.666-383.715 0-116.394 62.961-225.883 170.465-298.725l87.263-71.465c-3.904-19.317-17.395-60.054-32.618-97.468-4.923-12.085-1.981-25.961 7.357-35.042 6.105-5.884 14.101-8.987 22.256-8.987 4.382 0 8.791 0.897 12.983 2.752 36.389 16.208 147.376 68.908 187.473 125.282 243.439 3.45 440.159 174.237 440.159 383.652 0 211.553-200.814 383.715-447.672 383.715v0zM730.602 489.369l-128.703-188.723c-5.977-8.729-15.858-13.974-26.413-13.974h-0.448c-10.711 0.161-20.654 5.66-26.446 14.677l-91.513 142.102-71.529-139.386c-5.659-11.061-16.853-17.394-28.495-17.394-4.888 0-9.91 1.117-14.578 3.518-15.703 8.055-21.904 27.309-13.847 43.039l96.822 188.758c5.216 10.167 15.447 16.783 26.895 17.331 11.509 0.415 22.254-5.020 28.461-14.648l95.382-148.177 101.556 148.885c9.978 14.579 29.837 18.321 44.449 8.406 14.58-9.911 18.356-29.832 8.407-44.416v0zM730.602 489.369z"  horiz-adv-x="1024" />

    
    <glyph glyph-name="comiisfaxianon" unicode="&#58891;" d="M838.626 383.99c0 70.813-21.951 138.784-63.551 196.6-9.615 13.38-28.281 16.459-41.693 6.84-13.379-9.615-16.455-28.28-6.807-41.691 34.222-47.603 52.292-103.54 52.292-161.775 0-58.238-18.069-114.143-52.292-161.751-9.648-13.406-6.603-32.043 6.807-41.692 5.286-3.759 11.379-5.582 17.414-5.582 9.315 0 18.424 4.33 24.247 12.424 41.6 57.85 63.583 125.821 63.583 196.627v0zM286.575 587.428c-13.443 9.648-32.077 6.603-41.692-6.84-41.515-57.816-63.465-125.787-63.465-196.6 0-70.807 21.951-138.778 63.465-196.597 5.851-8.125 14.993-12.456 24.279-12.456 6.033 0 12.127 1.824 17.413 5.614 13.38 9.616 16.456 28.282 6.837 41.692-34.196 47.576-52.26 103.513-52.26 161.747 0 58.239 18.063 114.176 52.26 161.779 9.619 13.381 6.543 32.046-6.837 41.661v0zM827.543 732.187c-10.928 12.423-29.771 13.648-42.14 2.775-12.389-10.869-13.648-29.743-2.775-42.139 75.228-85.804 116.651-195.464 116.651-308.834 0-113.364-41.451-223.028-116.651-308.832-10.873-12.39-9.615-31.266 2.775-42.14 5.674-4.958 12.696-7.404 19.715-7.404 8.27 0 16.573 3.435 22.456 10.184 84.787 96.673 131.465 220.34 131.465 348.191-0 127.853-46.709 251.494-131.497 348.197v0zM123.663 383.99c0 113.37 41.419 223.030 116.591 308.834 10.869 12.422 9.648 31.27-2.78 42.139-12.422 10.9-31.264 9.648-42.105-2.775-84.757-96.672-131.407-220.344-131.407-348.197 0-127.85 46.649-251.518 131.407-348.191 5.883-6.749 14.153-10.184 22.457-10.184 6.989 0 14.007 2.447 19.681 7.404 12.422 10.874 13.648 29.749 2.775 42.14-75.201 85.773-116.62 195.468-116.62 308.832v0zM678.67 256.886c3.134 4.092 6.239 8.211 9.078 12.605 0.775 1.16 1.494 2.448 2.241 3.673 2.716 4.329 5.372 8.691 7.792 13.229 0.747 1.435 1.376 2.957 2.119 4.361 2.209 4.421 4.361 8.9 6.302 13.496 0.747 1.851 1.345 3.766 2.031 5.614 1.674 4.363 3.313 8.692 4.659 13.143 0.747 2.478 1.284 5.016 1.94 7.496 1.048 4.029 2.183 8.001 3.017 12.063 0.715 3.556 1.135 7.228 1.704 10.842 0.447 3.167 1.044 6.302 1.404 9.495 0.684 6.873 1.045 13.918 1.045 20.995 0 115.462-93.597 209.057-209.054 209.057-115.457 0-209.052-93.596-209.052-209.057 0-7.433 0.413-14.751 1.161-21.98 0.032-0.178 0.059-0.3 0.059-0.478 3.199-29.657 12.663-57.401 26.941-82.009v-0.032c3.614-6.211 7.524-12.212 11.734-18.004 0.182-0.269 0.419-0.537 0.597-0.747 4.093-5.614 8.454-10.96 13.084-16.1 0.297-0.356 0.624-0.684 0.925-1.044 4.656-5.137 9.556-10.035 14.751-14.692 0.15-0.123 0.301-0.301 0.42-0.419 0.058-0.060 0.118-0.060 0.118-0.091 23.805-21.322 52.446-37.212 84.16-45.871-5.138-7.705-10.66-15.202-17.263-21.919-11.498-11.83-11.256-30.732 0.537-42.262 5.824-5.643 13.352-8.481 20.874-8.481 7.767 0 15.532 3.017 21.355 8.992 16.278 16.724 29.448 35.567 39.245 56.35 2.028 0.060 4.002 0.42 6.002 0.57 3.405 0.27 6.841 0.566 10.153 0.954 3.435 0.45 6.841 0.989 10.213 1.585 3.495 0.598 6.93 1.226 10.367 2.001 3.104 0.689 6.153 1.523 9.196 2.362 3.586 0.983 7.168 1.969 10.663 3.162 2.689 0.898 5.373 1.883 8.002 2.957 3.731 1.404 7.405 2.867 11.019 4.421 2.27 1.044 4.48 2.151 6.749 3.254 3.824 1.855 7.588 3.795 11.292 5.883 1.85 1.048 3.674 2.21 5.556 3.345 3.852 2.361 7.642 4.748 11.347 7.378 1.553 1.047 2.985 2.209 4.452 3.317 3.851 2.866 7.614 5.765 11.255 8.868 1.226 1.045 2.361 2.151 3.555 3.254 3.705 3.318 7.346 6.721 10.813 10.276 0.985 1.045 1.909 2.151 2.894 3.195 3.496 3.732 6.899 7.555 10.126 11.556 0.777 1.224 1.584 2.332 2.422 3.434v0zM678.67 256.886z"  horiz-adv-x="1024" />

    
    <glyph glyph-name="comiissousuo" unicode="&#58914;" d="M446.58157 831.75479c-210.821543 0-382.331755-171.543981-382.331755-382.376781 0-210.810287 171.510212-382.320499 382.331755-382.320499 210.822566 0 382.321522 171.510212 382.321522 382.320499C828.903092 660.210809 657.39288 831.75479 446.58157 831.75479zM446.58157 118.345618c-182.545546 0-331.041602 148.507312-331.041602 331.042625 0 182.568059 148.496056 331.075371 331.041602 331.075371 182.536336 0 331.076394-148.518568 331.076394-331.075371C777.647731 266.842697 629.117906 118.345618 446.58157 118.345618zM951.954639-19.671783 818.224892 109.659795c-9.80532 9.457396-26.663266 9.244548-36.222993-0.572028-4.779863-4.925173-7.309476-11.394515-7.220449-18.22406 0.110517-6.873548 2.877537-13.274328 7.813966-18.021445l133.697001-129.376603c4.824889-4.644787 11.160177-7.220449 17.84339-7.220449 6.973832 0 13.520945 2.76395 18.412348 7.80271C962.364733-45.776324 962.120163-29.498592 951.954639-19.671783z"  horiz-adv-x="1024" />

    
    <glyph glyph-name="comiisgonggao" unicode="&#58880;" d="M797.591 115.982c-6.070 0-11.976 3.133-15.26 8.75-4.925 8.421-2.091 19.23 6.332 24.154 40.406 23.622 74.286 57.451 97.961 97.83 24.377 41.574 37.263 89.184 37.263 137.673 0 48.074-12.678 95.325-36.667 136.648-23.295 40.117-56.67 73.888-96.522 97.652-8.377 4.991-11.118 15.832-6.123 24.208 4.993 8.373 15.834 11.119 24.209 6.122 44.994-26.835 82.678-64.959 108.976-110.252 27.109-46.706 41.442-100.084 41.442-154.379 0-54.762-14.562-108.55-42.113-155.534-26.734-45.589-64.98-83.785-110.603-110.456-2.799-1.639-5.865-2.417-8.895-2.417v0zM704.394 230.393c-6.070 0-11.976 3.129-15.26 8.746-4.925 8.419-2.091 19.236 6.33 24.154 20.732 12.119 38.112 29.476 50.258 50.193 12.504 21.32 19.109 45.737 19.109 70.609 0 24.659-6.5 48.89-18.805 70.081-11.946 20.58-29.070 37.907-49.515 50.101-8.379 4.992-11.116 15.832-6.123 24.207 4.997 8.374 15.836 11.115 24.207 6.119 25.587-15.256 47.018-36.94 61.97-62.697 15.423-26.568 23.578-56.937 23.578-87.813 0-31.149-8.285-61.739-23.96-88.471-15.198-25.928-36.949-47.646-62.893-62.818-2.803-1.633-5.873-2.413-8.897-2.413v0zM566.925-10.137c-31.957 0-63.73 21.708-68.22 24.891l-33.998 23.716c-7.995 5.576-9.959 16.58-4.383 24.582 5.581 7.999 16.585 9.958 24.585 4.383l34.198-23.852c8.958-6.328 38.502-23.122 55.77-17.245 6.218 2.118 12.102 4.116 12.817 36.707l-0 641.079c-1.829 30.618-8.369 33.581-15.927 37.007-16.133 7.308-43.537-9.978-51.861-16.614l-0.455-0.352-210.532-157.612c-47.358-38.545-111.886-36.931-119.16-36.611-44.834-0.203-82.775-33.994-88.423-78.799l-1.223-12.138v-110.509l1.223-12.147c5.663-44.901 43.76-78.75 88.723-78.798 0.619 0.010 1.238 0.010 1.853 0.010 60.97 0 111.989-33.447 114.151-34.883 3.285-2.199 79.547-53.989 119.462-140.397 4.091-8.85 0.228-19.347-8.625-23.432-8.851-4.086-19.342-0.229-23.433 8.623-35.223 76.258-104.661 124.231-106.968 125.807-1.664 1.080-46.193 29.548-96.124 28.964l-0.208-0.004c-62.864 0-116.128 47.27-123.896 109.955l-0.050 0.407-1.422 14.118v114.058l1.472 14.526c7.767 62.682 61.032 109.952 123.896 109.952l0.981-0.030c0.528-0.023 57.303-2.548 95.708 28.9l0.605 0.47 210.638 157.697c1.965 1.539 12.831 9.858 27.222 16.548 22.88 10.637 43.982 12.178 61.023 4.453 8.648-3.917 17.626-9.087 24.673-20.28 6.941-11.023 10.743-26.070 11.966-47.363l0.030-1.010v-641.976l-0.006-0.188c-0.596-27.813-3.976-58.422-36.755-69.568-6.299-2.146-12.815-3.045-19.324-3.045v0z"  horiz-adv-x="1024" />

    
    <glyph glyph-name="comiisdazhaohu" unicode="&#58936;" d="M515.048 226.142c21.2 0 124.677 81.307 146.643 153.324 10.905 35.753 21.126 117.438-51.459 126.996-72.586 9.56-95.184-65.177-95.184-65.177s-34.765 86.717-105.193 65.177c-70.426-21.54-64.526-81.217-49.519-126.996 23.485-71.636 133.514-153.324 154.712-153.324zM879.757 130.171c52.213 75.13 79.728 162.549 79.728 253.844 0 246.449-200.724 446.923-447.484 446.923-246.759 0-447.488-200.505-447.488-446.95 0-246.382 200.729-446.888 447.488-446.925 71.894 0 143.076 17.557 206.814 50.857l164.858-49.434c11.787-3.523 24.347-0.321 32.956 8.309 8.611 8.603 11.816 21.245 8.317 32.914l-45.189 150.462zM712.387 25.952c-61.080-34.736-130.388-53.063-200.389-53.063-225.463 0.037-408.909 184.461-408.909 411.091 0 226.702 183.446 411.131 408.909 411.131 225.459 0 408.911-184.428 408.911-411.091 0-89.089-28.338-172.031-81.951-243.948-6.774-9.072-3.225-17.805 0-28.664l43.023-131.301-140.346 45.846c-9.234 2.794-20.807 4.748-29.247-0.001z"  horiz-adv-x="1024" />

    
    <glyph glyph-name="comiisyuandiancaidan" unicode="&#58881;" d="M63.913 384.001c0-51.629 41.853-93.483 93.483-93.483 51.631 0 93.483 41.854 93.483 93.483v0c0 51.63-41.853 93.483-93.483 93.483-51.63-0.001-93.483-41.853-93.483-93.483v0zM418.169 384.001c0-51.629 41.854-93.483 93.483-93.483 51.628 0 93.483 41.854 93.483 93.483 0 51.63-41.854 93.483-93.483 93.483-51.629-0.001-93.483-41.853-93.483-93.483v0zM772.427 384.001c0-51.629 41.853-93.483 93.483-93.483 51.63 0 93.483 41.854 93.483 93.483v0c0 51.63-41.852 93.483-93.483 93.483-51.63-0.001-93.483-41.853-93.483-93.483z"  horiz-adv-x="1024" />

    
    <glyph glyph-name="comiisshanchu" unicode="&#58951;" d="M924.587 558.279c-22.551 53.336-54.856 101.212-95.932 142.288s-88.952 73.38-142.288 95.932c-55.215 23.356-113.831 35.168-174.235 35.168-60.406 0-119.11-11.812-174.324-35.168-53.336-22.462-101.212-54.767-142.377-95.843-41.076-41.076-73.38-88.952-95.933-142.288-23.357-55.304-35.169-113.919-35.169-174.324 0-60.406 11.812-119.11 35.169-174.324 22.552-53.336 54.857-101.21 95.933-142.287 41.076-41.076 88.952-73.38 142.287-95.932 55.215-23.357 113.831-35.169 174.324-35.169 60.405 0 119.021 11.812 174.235 35.169 53.334 22.552 101.21 54.856 142.287 95.932 41.076 41.077 73.381 88.951 95.931 142.287 23.357 55.215 35.17 113.828 35.17 174.324 0.091 60.406-11.722 119.021-35.078 174.235zM696.927 194.596c0-0.088 0-0.088 0 0-12.438-12.438-32.573-12.438-45.011 0l-143.721 143.362-143.449-143.72c-12.439-12.439-32.575-12.439-45.013 0-12.438 12.438-12.528 32.575-0.089 45.102l143.45 143.719-143.808 143.362c-12.439 12.439-12.439 32.574 0 45.013v0c12.438 12.438 32.574 12.438 45.012 0l143.719-143.452 143.451 143.72c12.438 12.438 32.574 12.438 45.012 0 12.439-12.439 12.439-32.575 0-45.013l-143.361-143.629 143.718-143.451c12.529-12.439 12.529-32.663 0.090-45.013z"  horiz-adv-x="1024" />

    
    <glyph glyph-name="comiisfaxinqing" unicode="&#58954;" d="M690.64 786.179h-535.922c-49.246 0-89.32-40.076-89.32-89.32v-387.053c0-49.245 40.075-89.32 89.32-89.32l0.477-149.342c0-12.536 7.86-23.728 19.65-27.987 3.305-1.19 6.759-1.787 10.124-1.787 8.664 0 17.12 3.812 22.925 10.719l154.762 168.398h327.985c49.245 0 89.32 40.076 89.32 89.32l-0 387.052c0 49.245-40.076 89.32-89.32 89.32zM628.294 471.624c-37.425-63.805-130.378-103.403-204.216-103.403-74.195 0-167.296 39.926-204.692 104.146-8.247 14.232-3.423 32.453 10.809 40.7 14.141 8.278 32.393 3.454 40.699-10.748 26.678-46 100.099-74.552 153.184-74.552 52.818 0 126.091 28.344 152.887 73.956 8.306 14.173 26.557 18.996 40.758 10.599 14.173-8.306 18.937-26.557 10.571-40.699zM839.031-18.179c-7.801 0-15.483 3.097-21.169 8.843l-109.418 110.727h-136.897c-16.466 0-29.774 13.309-29.774 29.774 0 16.466 13.308 29.773 29.774 29.773h148.866c7.98 0 16.049-3.186 21.645-8.843l67.467-68.24 0.149 46.297c0 0.745 0.12 2.621 0.178 3.365 1.192 15.482 14.143 27.421 29.655 27.421h30.129c16.495 0 29.417 12.922 29.417 29.386l0 327.507c0 16.644-13.189 30.161-29.417 30.161h-0.357c-16.466 0-29.773 13.309-29.773 29.774 0 16.464 13.307 29.773 29.773 29.773h0.357c49.038 0 88.964-40.254 88.964-89.707v-327.507c0-49.036-39.926-88.932-88.964-88.932h-0.536l-0.296-89.885c-0.060-12.060-7.325-22.926-18.49-27.482-3.662-1.458-7.504-2.204-11.284-2.204z"  horiz-adv-x="1024" />

    
    <glyph glyph-name="comiisfazhaopian" unicode="&#58955;" d="M865.221 689.056h-353.223c0 53.111-43.22 96.333-96.333 96.333h-64.222c-53.112 0-96.334-43.221-96.334-96.333h-96.334c-53.111 0-96.333-43.222-96.333-96.334v-513.777c0-53.112 43.221-96.334 96.333-96.334h706.444c53.112 0 96.334 43.221 96.334 96.334l0 513.779c0.001 53.111-43.22 96.333-96.332 96.333zM511.998 143.167c-106.255 0-192.665 86.412-192.665 192.666 0 106.255 86.41 192.666 192.665 192.666 106.256 0 192.667-86.411 192.667-192.666 0-106.253-86.411-192.666-192.667-192.666zM817.054 464.277c-26.588 0-48.166 21.578-48.166 48.167 0 26.588 21.578 48.166 48.166 48.166s48.166-21.578 48.166-48.166c0.001-26.589-21.577-48.167-48.166-48.167z"  horiz-adv-x="1024" />

    
    <glyph glyph-name="comiisfashuoshuo" unicode="&#58959;" d="M512.001 815.711c-246.875 0-447.701-172.141-447.701-383.743 0-182.853 149.243-338.942 356.816-375.491l64.854-90.788c6.011-8.41 15.702-13.4 26.031-13.4 10.328 0 20.018 4.991 26.029 13.4l64.855 90.82c207.572 36.517 356.815 192.573 356.815 375.458 0 211.602-200.824 383.743-447.699 383.743zM288.182 368.011c-35.273 0-63.957 28.685-63.957 63.958 0 35.273 28.683 63.957 63.957 63.957 35.272 0 63.957-28.683 63.957-63.957 0-35.272-28.684-63.958-63.957-63.958zM512.032 368.011c-35.272 0-63.958 28.685-63.958 63.958 0 35.273 28.685 63.957 63.958 63.957 35.271 0 63.958-28.683 63.958-63.957 0-35.272-28.686-63.958-63.958-63.958zM735.881 368.011c-35.271 0-63.959 28.685-63.959 63.958 0 35.273 28.687 63.957 63.959 63.957 35.272 0 63.957-28.683 63.957-63.957 0-35.272-28.684-63.958-63.957-63.958z"  horiz-adv-x="1024" />

    
    <glyph glyph-name="comiisfamoji" unicode="&#58960;" d="M860.752 635.988c-8.664 0-17.296 3.522-23.548 10.473-11.744 13.011-10.727 33.068 2.285 44.843l32.243 29.070c12.982 11.742 33.038 10.726 44.812-2.317 11.743-13.012 10.727-33.069-2.284-44.843l-32.244-29.039c-6.061-5.489-13.678-8.186-21.263-8.186zM163.219 635.988c-7.586 0-15.169 2.697-21.233 8.157l-32.244 29.101c-13.012 11.743-14.027 31.8-2.316 44.843 11.71 13.044 31.766 14.059 44.842 2.318l32.244-29.070c13.012-11.743 14.027-31.8 2.317-44.843-6.283-6.95-14.915-10.505-23.611-10.505zM511.971 763.251c-17.519 0-31.737 14.219-31.737 31.737l-0 31.737c0 17.518 14.219 31.737 31.737 31.737 17.518 0 31.736-14.219 31.736-31.737v-31.737c-0.001-17.518-14.218-31.737-31.736-31.737zM511.971 741.734c-174.996 0-317.364-142.37-317.364-317.364 0-110.126 68.074-185.595 70.93-188.737 29.832-32.53 56.015-99.809 56.015-143.924v-55.223c0-70.008 56.936-126.946 126.945-126.946h126.945c70.011 0 126.946 56.938 126.946 126.946v55.223c0 44.177 26.151 111.426 56.014 143.924 2.887 3.175 70.931 78.644 70.931 188.737 0 174.995-142.371 317.364-317.363 317.364zM575.442 33.312h-126.945c-17.518 0-31.736 14.189-31.736 31.739s14.218 31.735 31.736 31.735h126.945c17.551 0 31.737-14.185 31.737-31.735s-14.186-31.739-31.737-31.739zM648.944 320.591c-3.333-1.109-6.728-1.651-10.029-1.651-13.298 0-25.674 8.412-30.085 21.709l-15.52 46.493-58.87-58.902c-12.41-12.41-32.466-12.41-44.875 0l-58.903 58.9-15.488-46.493c-5.553-16.599-23.485-25.676-40.146-20.059-16.629 5.522-25.611 23.485-20.057 40.147l31.737 95.208c3.49 10.441 12.123 18.313 22.819 20.85 10.663 2.539 21.96-0.665 29.737-8.441l72.708-72.804 72.771 72.772c7.741 7.775 19.009 10.948 29.737 8.441 10.726-2.539 19.327-10.41 22.818-20.85l31.738-95.208c5.518-16.63-3.462-34.592-20.092-40.115z"  horiz-adv-x="1024" />

    
    <glyph glyph-name="comiisqiandao" unicode="&#58961;" d="M512.001 831.63c-246.838 0-447.632-200.794-447.632-447.631 0-246.834 200.794-447.63 447.632-447.63 246.837 0 447.63 200.796 447.63 447.63-0.001 246.838-200.793 447.631-447.63 447.631zM608.975 492.71c0 26.507 21.486 47.96 47.961 47.96 26.472 0 47.96-21.454 47.96-47.96v-63.946c0-26.507-21.488-47.96-47.96-47.96-26.475 0-47.961 21.485-47.961 47.96v63.946zM321.212 492.71c0 26.507 21.455 47.96 47.961 47.96 26.505 0 47.959-21.454 47.959-47.96v-63.946c0-26.507-21.455-47.96-47.959-47.96-26.507 0-47.961 21.485-47.961 47.96v63.946zM741.281 235.355c-54.962-71.46-138.125-112.484-228.226-112.484-89.111 0-171.764 40.288-226.693 110.535-10.872 13.908-8.441 33.987 5.467 44.89 13.909 10.838 33.989 8.44 44.891-5.5 42.749-54.643 107.014-85.977 176.335-85.977 70.055 0 134.766 31.878 177.517 87.48 10.774 14.004 30.822 16.656 44.827 5.881 14.003-10.773 16.658-30.852 5.882-44.826z"  horiz-adv-x="1024" />

    
    <glyph glyph-name="comiisguanbi" unicode="&#58937;" d="M545.788 384l387.973 387.973c4.66 4.66 4.66 9.321 4.66 15.146 0 13.981-9.321 24.467-24.467 24.467-4.66 0-15.146-4.66-15.146-4.66l-386.809-389.138-387.973 387.973c-4.66 0-9.321 4.66-15.146 4.66-13.981 0-24.467-9.321-24.467-24.467 0-4.66 0-15.146 4.66-15.146l389.138-386.809-387.973-387.973c-4.66-4.66-4.66-9.321-4.66-15.146 0-13.981 9.321-24.467 24.467-24.467 4.66 0 15.146 4.66 15.146 4.66l386.809 389.138 387.973-387.973c4.66-4.66 9.321-4.66 15.146-4.66 13.981 0 24.467 9.321 24.467 24.467 0 4.66-4.66 15.146-4.66 15.146l-389.138 386.809z"  horiz-adv-x="1024" />

    
    <glyph glyph-name="comiiszjt" unicode="&#58887;" d="M349.867 384l369.067 390.4c4.267 4.267 6.4 8.533 6.4 14.933 0 12.8-8.533 21.333-21.333 21.333-6.4 0-10.667-2.133-14.933-6.4l-384-405.333c-4.267-4.267-6.4-8.533-6.4-14.933s2.133-10.667 6.4-14.933l384-405.333c4.267-4.267 8.533-6.4 14.933-6.4 12.8 0 21.333 8.533 21.333 21.333 0 6.4-2.133 10.667-6.4 14.933l-369.067 390.4z"  horiz-adv-x="1024" />

    
    <glyph glyph-name="comiisrenwu" unicode="&#58969;" d="M958.786926 741.212954c0 49.472258-39.547986 89.579065-88.950492 89.579065L154.156466 830.792019c-49.123494 0-88.947494-39.547986-88.947494-88.947494l0-715.682967c0-49.123494 40.600273-88.950492 89.514109-88.950492l711.995467 0c49.437282 0 89.676999 39.606147 89.886857 89.05542l2.181521 514.490975L514.848117 135.147466l-31.804237-31.51963-31.635551 31.51963L203.931718 405.035882l64.827847 60.60471 213.900376-239.02634 476.126986 440.355439L958.786926 741.212954z"  horiz-adv-x="1024" />

    
    <glyph glyph-name="comiisjifen" unicode="&#58971;" d="M511.999049 829.989563c-246.315398 0-445.991418-199.677019-445.991418-445.98842s199.67602-445.987421 445.991418-445.987421c246.3134 0 445.989419 199.67602 445.989419 445.982424C957.988468 630.312544 758.312448 829.989563 511.999049 829.989563zM512.522694 569.09425c56.152728-0.198865 103.767246-30.439362 130.17734-75.587552-143.919023-35.673813-261.246275 0.288804-261.246275 0.288804C408.19163 538.708851 456.403742 569.283122 512.522694 569.09425zM796.016685 377.110815l-94.370817-141.273816-0.263821 0.068953c-11.364295-20.468123-32.464989-34.8082-57.089094-36.708911l0-0.287805-260.381861 0.905386 0 0c-27.066649 0.138906-50.550527 15.234671-62.621343 37.40444l-0.199864-0.048967-93.394479 141.980337c-7.517903 11.353302-11.895935 24.967072-11.846968 39.604948 0.139905 39.475236 22.072035 70.701864 69.925391 70.531979 0.746494 0 3.124881 0.015989 3.871375-0.009993 0 0 13.62776-0.686535 18.24463-1.780793 27.579301-6.57854 128.74631-29.534975 198.145258-29.773613 66.800509-0.228845 160.598714 20.389176 196.824953 27.604284 7.705775 1.541955 35.458959 2.388381 35.847695 2.388381 47.216787-0.158892 69.573629-31.624359 69.438721-71.089601C808.095495 401.991945 803.617531 388.415151 796.016685 377.110815z"  horiz-adv-x="1024" />

    
    <glyph glyph-name="pingjiakongshuju" unicode="&#59025;" d="M898.687 150.757c42.698 70.585 65.233 150.962 65.233 233.243 0 249.186-202.737 451.922-451.922 451.922s-451.922-202.736-451.922-451.922 202.736-451.922 451.922-451.922c83.77 0 165.278 23.171 236.58 67.109l177.802-59.084c9.019-3.007 18.948-0.635 25.652 6.068 6.731 6.731 9.076 16.659 6.096 25.68l-59.441 178.906zM696.173 349.025l-166.437-166.383c-4.882-4.911-11.31-7.365-17.735-7.365s-12.853 2.454-17.734 7.365l-166.437 166.383c-55.636 55.636-55.636 146.244 0 201.909 26.976 26.921 62.835 41.79 100.981 41.79 30.259 0 59.111-9.35 83.19-26.702 24.080 17.351 52.933 26.702 83.19 26.702 38.146 0 74.005-14.868 100.982-41.79 55.636-55.665 55.636-146.274 0-201.909z"  horiz-adv-x="1024" />

    
    <glyph glyph-name="copy3" unicode="&#59026;" d="M527.686 415.767c0 0 380.628 128.423 337.379 256.861-35.429 105.217-240.58 24.265-240.58 24.265 0 0-99.945 198.388-210.478 131.047-110.533-67.342 113.678-412.173 113.678-412.173zM543.609 462.009c0 0 310.69 113.225 285.473 198.763-21.754 73.789-220.492-10.045-220.492-10.045 0 0-83.156 188.009-166.587 151.035-83.431-36.973 101.606-339.753 101.606-339.753zM503.093 344.146c0 0 220.566-336.681 107.225-411.746-92.85-61.494-204.489 129.266-204.489 129.266 0 0-201.179-95.493-246.684 26.085-45.505 121.578 343.95 256.394 343.95 256.394zM487.644 303.309c0 0 172.089-284.69 99.278-338.3-62.81-46.246-165.802 145.099-165.802 145.099 0 0-181.67-100.608-223.801-18.839-42.131 81.769 290.325 212.039 290.325 212.039zM549.94 366.937c0 0 128.423-380.628 256.861-337.379 105.217 35.429 24.265 240.58 24.265 240.58 0 0 198.388 99.945 131.047 210.478-67.342 110.533-412.173-113.678-412.173-113.678zM591.988 355.25c0 0 113.225-310.69 198.763-285.473 73.789 21.754-10.045 220.492-10.045 220.492 0 0 188.009 83.156 151.035 166.587-36.973 83.431-339.753-101.606-339.753-101.606zM480.171 391.233c0 0-128.423 380.628-256.861 337.379-105.217-35.429-24.265-240.58-24.265-240.58 0 0-198.388-99.945-131.047-210.478 67.342-110.533 412.173 113.678 412.173 113.678zM438.122 402.919c0 0-113.225 310.69-198.763 285.473-73.789-21.754 10.045-220.492 10.045-220.492 0 0-188.009-83.156-151.035-166.587 36.973-83.431 339.753 101.606 339.753 101.606z"  horiz-adv-x="1024" />

    
    <glyph glyph-name="jinrizuire" unicode="&#58882;" d="M735.850496 245.225472l-20.7104-13.179904c15.331328-19.6352 27.435008-37.655552 36.31104-54.063104l21.249024 15.062016C764.092416 207.839232 751.988736 225.321984 735.850496 245.225472zM684.208128 237.156352l-23.938048-5.110784c7.53152-15.331328 13.986816-33.083392 19.096576-53.525504l25.283584 5.917696C698.732544 203.266048 692.00896 221.018112 684.208128 237.156352zM628.5312 233.391104l-23.938048-4.841472c5.110784-14.524416 9.413632-31.200256 12.910592-50.566144l25.551872 5.917696C638.752768 201.652224 633.911296 218.059776 628.5312 233.391104zM563.97824 240.922624c-9.145344-18.828288-20.1728-34.966528-32.81408-48.41472l20.979712-15.331328c12.64128 15.062016 23.66976 32.81408 33.352704 53.256192L563.97824 240.922624zM536.274944 395.580416l0-24.74496 36.041728 0 0-41.152512c-13.986816-2.958336-28.511232-5.379072-43.035648-7.262208l5.917696-23.938048c12.64128 2.151424 25.014272 4.841472 37.117952 7.53152l0-26.090496c0-6.455296-2.690048-9.952256-8.06912-9.952256-7.262208 0-14.793728 0.806912-22.593536 1.883136l5.917696-24.476672 25.551872 0c16.407552 0 24.74496 8.876032 24.74496 26.358784l0 38.462464c9.682944 2.420736 19.096576 5.110784 28.77952 7.799808l0 24.476672c-9.413632-3.227648-19.096576-5.917696-28.77952-8.60672l0 34.966528L628.5312 370.835456l0 24.74496-30.662656 0 0 32.007168-25.551872 0 0-32.007168L536.274944 395.580416 536.274944 395.580416zM760.864768 247.646208c4.841472 0 8.60672 2.420736 11.834368 7.262208 4.303872 6.724608 7.262208 21.786624 8.60672 45.456384l-19.365888 9.682944c-0.269312-10.220544-0.806912-18.828288-1.883136-26.090496-1.344512-7.262208-2.690048-11.027456-4.03456-11.027456-1.613824 0-3.227648 2.690048-4.841472 7.53152-4.303872 11.027456-6.185984 30.931968-6.185984 59.9808l0 54.063104L690.1248 394.505216l0 33.083392-25.014272 0 0-33.083392L636.60032 394.505216l0-25.014272 28.511232 0c-0.5376-12.910592-1.883136-25.014272-4.03456-36.31104-5.648384 3.765248-11.296768 7.53152-17.214464 10.759168l-13.717504-19.903488c7.799808-4.303872 15.60064-9.413632 23.66976-15.331328-7.799808-19.365888-19.6352-34.966528-35.504128-47.070208l18.828288-16.67584c15.868928 12.372992 28.24192 28.24192 37.117952 47.338496 9.145344-7.53152 18.289664-15.868928 27.435008-25.551872l14.524416 21.786624c-10.489856 10.489856-21.517312 20.1728-33.083392 28.77952 4.03456 15.60064 6.455296 32.81408 6.992896 52.179968l29.855744 0 0-29.048832c0-40.8832 5.648384-67.780608 16.945152-80.960512C743.382016 251.95008 751.181824 247.91552 760.864768 247.646208zM449.128448 235.004928c-9.952256 10.220544-16.945152 21.786624-21.249024 34.159616l40.3456 0C464.190464 256.791552 457.735168 245.494784 449.128448 235.004928zM405.823488 269.164544c4.841472-17.752064 13.986816-34.159616 27.70432-49.221632-10.759168-8.60672-23.66976-15.868928-39.001088-22.324224l13.179904-19.6352c16.407552 6.992896 30.662656 15.60064 43.035648 25.821184 11.834368-9.413632 25.821184-18.021376 42.497024-25.821184l13.179904 21.249024c-15.331328 6.185984-28.511232 13.179904-39.538688 20.979712 11.56608 14.255104 19.6352 30.931968 24.20736 50.297856l0 19.365888L397.48608 289.875968l0-20.7104L405.823488 269.164544 405.823488 269.164544zM323.250176 386.973696l0 13.448192 126.954496 0 0-13.448192L323.250176 386.973696zM450.203648 355.234816 323.250176 355.234816 323.250176 369.48992l126.954496 0 0-14.255104L450.203648 355.234816zM298.773504 418.980864l0-81.498112 175.906816 0 0 81.498112L298.773504 418.980864zM313.83552 287.72352l0 15.868928 47.87712 0 0-15.868928L313.83552 287.72352zM313.83552 253.026304l0 16.407552 47.87712 0 0-16.407552L313.83552 253.026304zM313.83552 216.17664l0 18.558976 47.87712 0 0-14.524416C347.188224 218.597376 331.319296 217.252864 313.83552 216.17664zM267.034624 324.03456l0-20.442112 23.400448 0 0-88.76032-23.131136-1.076224 3.227648-21.517312c36.31104 2.420736 66.704384 5.110784 91.181056 8.06912l0-22.055936 24.476672 0 0 25.283584c5.110784 1.076224 9.952256 1.883136 14.255104 2.690048l0 19.6352-14.255104-2.420736 0 80.1536 119.153664 0L505.342976 324.03456 267.034624 324.03456zM596.793344 626.625536l0 69.394432 121.306112 0 0-69.394432L596.793344 626.625536zM596.793344 526.83776l0 74.773504 121.306112 0 0-74.773504L596.793344 526.83776zM743.651328 720.765952l-172.41088 0 0-238.03904 25.551872 0 0 19.096576 121.306112 0 0-18.828288 25.551872 0L743.651328 720.765952 743.651328 720.765952zM377.043968 730.179584c-31.200256-34.966528-69.932032-64.283648-116.732928-87.684096l13.448192-24.20736c46.531584 24.74496 83.918848 54.063104 112.43008 87.684096 30.931968-36.041728 68.318208-65.09056 112.43008-87.415808l13.448192 23.938048c-44.110848 21.517312-83.111936 50.566144-116.732928 87.684096l-18.290688 0L377.043968 730.179584zM289.897472 599.45984l0-23.938048 161.651712 0c-17.214464-30.931968-47.607808-54.870016-91.450368-72.08448l17.214464-22.324224c52.98688 22.593536 87.953408 55.407616 104.629248 98.712576L481.942528 599.45984 289.897472 599.45984zM363.864064 662.398976l-13.986816-20.442112c21.517312-8.60672 42.497024-20.7104 63.208448-36.31104l13.448192 21.249024C407.706624 640.881664 386.726912 652.716032 363.864064 662.398976zM116.948992 896l790.100992 0 0-975.0784c0-37.103616-28.41088-57.495552-63.690752-45.466624L512-11.565056 180.640768-124.545024c-35.175424-11.993088-63.690752 8.352768-63.690752 45.466624L116.948992 896 116.948992 896z"  horiz-adv-x="1024" />

    
    <glyph glyph-name="comiisyjt" unicode="&#58883;" d="M674.133 384l-369.067-390.4c-4.267-4.267-6.4-8.533-6.4-14.933 0-12.8 8.533-21.333 21.333-21.333 6.399 0 10.667 2.133 14.933 6.4l384 405.333c4.267 4.267 6.4 8.533 6.4 14.933s-2.133 10.667-6.4 14.933l-384 405.333c-4.267 4.267-8.533 6.4-14.933 6.4-12.8 0-21.333-8.533-21.333-21.333 0-6.399 2.133-10.667 6.4-14.933l369.067-390.4z"  horiz-adv-x="1024" />

    
    <glyph glyph-name="comiisxjt" unicode="&#58912;" d="M512 221.867l-390.4 369.067c-4.267 4.267-8.533 6.4-14.933 6.4-12.8 0-21.333-8.533-21.333-21.333 0-6.399 2.133-10.667 6.4-14.933l405.333-384c4.267-4.267 8.533-6.4 14.933-6.4s10.667 2.133 14.933 6.4l405.333 384c4.267 4.267 6.4 8.533 6.4 14.933 0 12.8-8.533 21.333-21.333 21.333-6.399 0-10.667-2.133-14.933-6.4l-390.4-369.067z"  horiz-adv-x="1024" />

    
    <glyph glyph-name="comiisjingxuan" unicode="&#58888;" d="M511.677267 755.181483c13.623763 0 26.31316-4.14519 35.758556-11.691073l316.484623-252.423257 0-60.26594 0-363.429595c0-12.797323-3.018953-54.550815-41.804656-54.550815L225.131145 12.820803c-29.567353 0-65.677271 25.166737-65.677271 54.550815L159.453874 432.215254l0 58.855896L475.922109 743.505399C485.341123 751.036293 498.041512 755.181483 511.677267 755.181483M511.677267 791.002197c-20.923814 0-41.834636-6.50459-58.110001-19.508773L75.280744 469.74281c-12.923638-10.332994-15.128743-29.279149-4.921064-42.314111 5.882412-7.522899 14.482181-11.452235 23.18628-11.452235 6.389068 0 12.828702 2.115566 18.307587 6.47561l11.78501 9.76338 0-364.843636c0-51.72493 54.000787-90.370529 101.492988-90.370529l596.99084 0c46.923986 0 77.61118 36.329369 77.61118 90.370529l0 363.429595 10.891615-8.349339c5.50127-4.365041 12.236704-6.47561 18.715311-6.47561 8.80503 0 17.645037 3.914346 23.522052 11.452235 10.240057 13.035162 8.182452 31.981317-4.769766 42.314111L569.772678 771.493423C553.493715 784.497607 532.578096 791.002197 511.677267 791.002197L511.677267 791.002197zM511.683263 216.713964c14.931876 0 29.855758-4.15918 29.855758-12.467547l0-191.295702-59.70432 0 0 191.295702C481.830503 212.554784 496.756383 216.713964 511.683263 216.713964M511.683263 252.53168c-45.363044 0-65.669876-24.251557-65.669876-48.285063l0-191.295702 0-35.819714 35.821113 0 59.70432 0 35.814718 0 0 35.819714 0 191.295702C577.353538 228.280122 557.048305 252.53168 511.683263 252.53168L511.683263 252.53168z"  horiz-adv-x="1024" />

    
    <glyph glyph-name="comiispengyouquanon" unicode="&#58985;" d="M387.412318 437.791473c65.861746-24.248559 144.751059 23.508062 175.141254 106.210789l70.944699 192.612009c30.496323 82.69973-9.212754 118.278407-88.100068 79.099171l-46.060571-22.977421c-78.889913-39.179236-163.389222-125.160741-187.637382-191.131013C287.451892 535.847791 321.441647 462.039034 387.412318 437.791473zM457.828376 259.791757c24.248559 65.863145-23.506463 144.751459-106.206792 175.141854l-192.614008 70.944699c-82.69913 30.498322-118.278008-9.212754-79.098571-88.100068l22.871893-46.060571c39.178437-78.888314 125.161341-163.387823 191.131413-187.636383C359.774057 159.830731 433.579417 193.823484 457.828376 259.791757zM943.225477 350.220047l-22.872492 46.064568c-39.178237 78.886315-125.16174 163.387823-191.026084 187.636383-65.861146 24.248559-139.666906-9.741395-163.915465-75.713466-24.248559-65.862145 23.507062-144.74946 106.206792-175.139855l192.615007-70.946698C946.931964 231.624854 982.509842 271.333932 943.225477 350.220047zM635.827693 330.207815c-65.861146 24.248559-144.751059-23.507062-175.141254-106.206792l-70.945299-192.613008c-30.496323-82.69873 9.213353-118.279407 88.100068-79.099171l46.06157 22.871493c78.889313 39.179236 163.388822 125.160741 187.636383 191.130813C735.788719 232.155495 701.797765 305.958256 635.827693 330.207815z"  horiz-adv-x="1024" />

    
    <glyph glyph-name="comiischakanshu" unicode="&#58884;" d="M507.574 208.878c90.692 0 164.468 76.231 164.468 169.915 0 93.687-73.776 169.923-164.468 169.923s-164.462-76.236-164.462-169.923c-0-93.684 73.77-169.915 164.462-169.915zM507.574 508.998c68.795 0 124.749-58.416 124.749-130.204 0-71.786-55.954-130.196-124.749-130.196s-124.743 58.41-124.743 130.196c-0.001 71.789 55.948 130.204 124.743 130.204zM35.628 376.806c78.962-202.381 265.963-333.134 476.315-333.134 210.431 0 397.46 130.751 476.422 333.134l2.808 7.205-2.808 7.205c-78.99 202.356-266.013 333.114-476.422 333.114-210.352 0-397.328-130.758-476.315-333.089l-2.805-7.205 2.805-7.229zM511.943 684.612c191.42 0 361.976-117.705 436.543-300.6-74.567-182.89-245.123-300.649-436.543-300.649-191.391 0-361.87 117.73-436.437 300.649 74.567 182.895 245.046 300.6 436.437 300.6z"  horiz-adv-x="1024" />

    
    <glyph glyph-name="comiispinglun" unicode="&#58885;" d="M348.62-23.828c-18.625 0-33.463-0.098-48.301 0.032-11.673 0.103-20.156 8.538-20.137 19.693 0.019 11.171 8.623 19.829 20.171 19.646 41.402-0.654 82.717 0.896 123.943 4.658 84.955 7.749 168.593 22.153 249.406 50.359 44.574 15.558 87.152 35.267 125.696 62.887 39.608 28.385 72.133 63.006 93.242 107.468 14.594 30.741 22.239 63.308 23.351 97.162 1.828 55.606-3.686 110.45-20.82 163.67-31.218 96.968-95.907 162.662-189.283 201.118-43.395 17.872-88.737 28.080-135.469 31.605-79.314 5.983-157.079-1.958-232.553-27.981-47.059-16.226-90.17-39.585-127.311-73.116-47.998-43.332-76.98-97.576-91.171-160.184-7.762-34.243-11.203-68.899-8.81-103.972 4.777-69.985 32.79-128.988 84.287-176.752 38.051-35.293 82.42-60.106 130.922-77.558 19.511-7.021 39.787-11.966 59.833-17.421 10.609-2.887 17.618-12.476 15.612-22.794-2.148-11.047-11.694-18.007-22.763-15.911-30.869 5.84-60.501 15.79-89.327 28.105-45.957 19.635-88.281 45.046-124.512 79.856-49.987 48.026-80.819 106.107-90.77 174.868-5.869 40.552-3.859 80.986 3.221 121.252 8.095 46.047 23.414 89.399 48.225 129.173 35.991 57.698 85.892 99.781 146.53 129.58 47.123 23.157 97.002 37.554 148.717 46.012 46.494 7.603 93.289 9.837 140.24 7.020 77.694-4.662 151.268-24.055 218.33-64.592 78.455-47.423 129.179-116.457 155.824-203.57 18.125-59.261 24.143-120.127 19.576-181.73-5.582-75.294-37.347-138.573-92.147-190.327-40.071-37.843-86.972-64.892-137.403-86.252-51.339-21.745-104.752-36.618-159.293-47.675-49.529-10.042-99.548-16.628-149.915-20.461-23.605-1.796-47.272-2.746-67.146-3.867zM350.901 345.031c-16.612 0.024-30.664 14.16-30.529 30.717 0.136 16.949 13.749 30.693 30.461 30.754 17.045 0.063 30.88-13.634 31-30.686 0.119-16.802-13.957-30.809-30.934-30.785zM751.153 376.183c0.388-16.672-13.127-30.692-30.017-31.135-16.614-0.435-30.901 13.182-31.352 29.882-0.457 16.942 13.113 31.175 30.098 31.57 16.979 0.394 30.868-13.071 31.269-30.318zM505.215 375.987c0.12 17.123 13.909 30.687 31.026 30.517 16.932-0.168 30.33-14.097 30.181-31.377-0.143-16.474-14.078-30.183-30.593-30.093-17.102 0.091-30.733 13.874-30.613 30.953z"  horiz-adv-x="1024" />

    
    <glyph glyph-name="yinle" unicode="&#59102;" d="M511.998584375 798.5482777430555c15.0439621875 0 30.01712625-0.0434221875 44.5645621875-2.2504115625 9.970153125-1.5103434375 44.1718734375 16.931890312500002 70.1639353125 38.184306562500005 20.2187746875 16.530705937500002 33.856230000000004 37.3215234375 37.881294375 36.8476528125 14.509678125-1.7076318750000001-2.79319125-97.3586071875 32.4686015625-113.92423968749999 148.17221531250001-69.5947246875 250.80758343750003-220.21558312499997 250.80758343750003-394.7423418749999 0-240.69111656249996-195.19391718749998-435.8840896875-435.886921875-435.8840896875-240.6901725 0-435.88503375 195.19297312499998-435.88503375 435.8840896875C76.11355062500002 603.3543605555556 271.30841187499993 798.5482777430555 511.998584375 798.5482777430555L511.998584375 798.5482777430555zM648.8743765625 829.1582133680556c-30.975250312500002-33.812806875-58.1444353125-51.6037059375-98.814200625-63.661907812500004-60.110713125-17.825824687500003-195.2996409375-20.491580625-188.4153084375-107.99897531250001C365.4726434375 608.8293549305556 544.6059490625 391.88366399305556 599.991175625 319.32677961805564c-80.255859375 2.3287603125-156.5659471875-0.9873871875-217.915141875-56.665243125-71.337283125-64.739915625-93.6308915625-185.337984375-1.6019081249999998-249.85606781250002 132.581698125-92.9333025 360.4962553125 51.3214603125 323.7637659375 201.8904009375-9.429260625000001 38.653456874999996-36.295433437499995 66.38241375-56.5802859375 99.2578640625-48.008145 77.6911078125-96.0238415625 155.38315968749998-144.03765093750002 233.0714353125-14.0471353125 25.7513503125-17.29342875 37.757634375-19.55328 67.04224500000001C608.6492178125 645.2182411805557 688.971155 678.6241993055555 648.8743765625 829.1582133680556z"  horiz-adv-x="1024" />

    
    <glyph glyph-name="comiistupian" unicode="&#58919;" d="M171.818 715.213h680.36c38.882 0 71.774-32.897 71.774-71.774v-515.88c0-38.876-32.891-71.777-71.774-71.777l-680.36-0c-38.878 0-71.775 32.901-71.775 71.777l0 515.88c0 38.877 32.897 71.774 71.775 71.774v0zM171.818 18.399c227.288 0 454.575 0 680.36 0 59.814 0 107.661 47.855 107.661 107.66 0 171.963 0 343.926 0 515.884 0 59.812-47.847 107.662-107.661 107.662-227.284 0-454.571 0-680.36 0-59.813 0-107.662-47.849-107.662-107.662 0-171.958 0-343.921 0-515.884 0-58.316 47.849-107.66 107.662-107.66zM222.659 492.412c0-41.87 34.392-76.259 76.262-76.259 41.867 0 76.257 34.389 76.257 76.259 0 41.867-34.39 76.26-76.257 76.26-41.87 0-76.262-34.393-76.262-76.26v0zM258.547 492.412c0 22.431 17.942 40.374 40.373 40.374 22.429 0 40.373-17.943 40.373-40.374 0-22.428-17.944-40.373-40.373-40.373-20.937 0-40.373 17.945-40.373 40.373zM665.268 417.646l189.907-189.9c7.473-7.483 7.473-17.945 0-25.427v0c-7.483-7.473-17.946-7.473-25.427 0l-189.898 189.905c-13.457 13.459-37.384 13.459-50.843 0l-152.52-151.021c-28.411-28.413-74.765-28.413-103.177 0l-23.926 23.919c-13.456 13.458-37.381 13.458-50.837 0l-62.804-62.802c-7.478-7.473-17.944-7.473-25.421 0v0c-7.476 7.482-7.476 17.944 0 25.427l62.802 62.801c28.412 28.406 74.766 28.406 103.176 0l23.926-23.928c13.457-13.456 37.381-13.456 50.84 0l151.027 151.026c28.414 28.411 74.761 28.411 103.175 0z"  horiz-adv-x="1024" />

    
    <glyph glyph-name="comiiszanwushuju" unicode="&#58889;" d="M958.958 723.096c0 6.638 0 13.294-0.392 19.911-2.626 44.452-44.659 84.17-89.183 84.191-118.45 0.053-236.902 0.016-355.352 0.016v-0.281c-119.562 0-239.124 0.074-358.686-0.032-48.835-0.042-90.936-42.857-90.385-91.465 0.201-17.704 0.402-35.419 0.397-53.124-0.079-164.929 1.244-329.87-1.096-494.767-0.858-59.921 52.065-103.96 100.36-99.025 19.165 1.959 38.702 0.222 58.079 0.169 7.38-0.021 12.993-0.53 10.959-11.15-2.864-14.93-4.616-30.155-5.649-45.341-1.139-16.761 8.625-28.822 19.054-40.766 5.411-6.205 9.011-14.22 12.432-21.854 1.964-4.405 0.646-10.537 3.145-14.348 2.573-3.918 7.888-7.868 12.219-8.132 2.827-0.159 9.091 6.724 8.609 9.583-3.41 20.363 7.682 27.669 24.968 30.888 3.664 0.689 7.015 3.198 10.43 5.019 40.539 21.591 72.903 53.199 105.199 85.048 5.347 5.284 13.824 10.166 20.997 10.368 39.268 1.122 78.595 1.206 117.868 0.413 7.302-0.149 15.73-4.448 21.495-9.351 21.019-17.852 40.518-37.517 61.743-55.103 21.706-17.99 45.283-33.63 72.532-42.206 20.66-6.512 20.485-5.983 19.029-27.753-0.27-4.034 2.339-10.261 5.516-11.976 3.548-1.917 11.192-1.641 13.532 0.91 3.177 3.463 3.135 9.964 4.236 15.216 2.128 10.113 0.694 23.497 6.713 29.84 24.512 25.825 24.756 55.357 17.090 86.414-3.135 12.706 1.366 14.316 12.055 14.104 22.115-0.434 44.287 0.932 66.354-0.148 51.673-2.509 97.088 47.289 96.516 98.421-1.991 178.748-0.763 357.539-0.784 536.313zM330.873 25.412c-11.563-8.799-25.709-15.047-39.591-19.791-22.474-7.688-40.205 5.284-42.302 29.076-0.286 3.283-0.042 6.618-0.042 9.921 0.175 29.744 16.264 51.992 35.409 72.226 23.951 25.329 54.484 41.307 86.229 53.971 28.532 11.393 58.349 19.6 87.733 28.79 4.5 1.408 9.784 1.090 14.601 0.572 9.52-1.027 12.421-6.787 8.35-15.153-4.818-9.9-9.202-20.372-15.899-28.938-38.818-49.661-84.445-92.598-134.488-130.675zM463.507 118.719c15.068 22.492 27.87 41.604 40.904 61.044 13.548-19.738 26.456-38.543 41.899-61.044h-82.803zM764.057 20.657c-7.746-17.090-22.474-22.755-40.634-16.9-29.033 9.361-52.699 27.266-74.782 47.163-27.832 25.084-55.448 50.54-81.379 77.54-14.338 14.93-26.25 32.602-37.029 50.382-8.959 14.77-2.563 22.955 15.194 23.771 20.182-5.421 40.618-10.038 60.493-16.423 33.651-10.822 66.694-23.56 95.908-43.922 27.409-19.102 51.35-41.582 61.806-74.894 4.872-15.511 7.503-31.078 0.424-46.717zM931.624 442.13c-0.032-85.218-0.217-170.435-0.36-255.642-0.048-30.824-13.263-53.631-42.779-64.020-11.648-4.108-24.936-4.68-37.5-4.807-26.938-0.265-53.918 0.339-80.834 1.673-6.392 0.318-14.073 3.357-18.615 7.773-54.49 52.901-122.258 77.688-194.738 91.868-15.914 3.113-33.195 3.727-47.114-9.466-1.938-1.843-9.149-1.229-11.436 0.899-13.098 12.251-29.404 11.764-44.028 8.428-67.868-15.512-133.635-36.88-183.042-89.506-14.627-15.586-31.559-10.621-47.559-11.764-21.887-1.557-44.028 0.604-66.063 1.079-38.162 0.805-64.221 26.843-64.274 64.888-0.138 91.307-0.042 182.613-0.042 273.919-0.032 0-0.053 0-0.084 0 0 91.285 0.826 182.581-0.413 273.855-0.482 35.314 30.845 67.281 62.156 66.276 31.47-1.006 62.992-0.117 94.493-0.006 81.21 0.281 162.42 0.842 243.625 0.815 102.287-0.037 204.574-0.546 306.861-0.862 22.078-0.075 44.16 0.021 66.238-0.334 38.162-0.62 65.079-27.382 65.248-66.164 0.424-96.299 0.297-192.598 0.26-288.902zM801.408 569.788c-25.814 22.321-55.823 37.388-88.204 46.844-18.339 5.358-37.843 7.121-56.966 9.112-4.331 0.45-9.271-4.877-13.936-7.545 4.145-3.415 7.815-7.931 12.548-9.964 6.162-2.636 13.172-3.293 19.811-4.807 0-1.504 0-3.007 0-4.511-4.913-3.431-9.773-6.935-14.739-10.282-34.752-23.417-49.147-70.743-32.863-108.12 21.745-49.905 66.789-68.076 115.74-51.006 41.793 14.581 63.077 45.691 58.587 95.68-0.615 6.892-1.292 10.949 7.275 13.183 12.452 3.251 13.58 8.232 5.522 18.54-3.701 4.733-8.211 8.926-12.776 12.876zM644.266 537.026c0.451 8.423 10.362 17.948 18.843 18.107 10.292 0.191 18.848-8.418 18.842-18.953 0-11.235-7.385-18.388-18.969-18.373-9.477 0.011-19.208 10.006-18.716 19.219zM675.419 451.829c-12.373 0.191-23.756 13.173-23.734 27.076 0.021 13.501 12.187 25.392 25.534 24.958 12.061-0.387 23.502-12.675 23.576-25.318 0.090-15.121-11.128-26.923-25.376-26.716zM740.799 472.191c-20.479 0.63-37.887 20.542-37.379 42.747 0.519 22.417 21.273 41.931 43.593 40.999 20.197-0.846 39.708-22.576 39.332-43.805-0.419-23.629-19.918-40.73-45.547-39.941zM340.133 594.406c-4.188 2.917-8.365 5.856-10.668 7.465 7.454 7.688 18.218 14.698 17.185 18.488-3.023 11.049-14.422 5.506-22.66 5.935-0.551 0.026-1.101-0.101-1.652-0.143-39.443-3.161-72.453-22.12-103.917-43.795-11.627-8.006-21.612-18.853-30.898-29.659-8.64-10.059-6.316-16.582 6.321-17.831 10.626-1.059 10.472-6.142 10.451-14.29-0.069-34.329 15.115-60.424 44.89-77.398 27.938-15.925 56.459-17.148 84.958-0.952 59.848 34.022 62.935 112.564 5.989 152.181zM226.405 540.97c-1.387 8.476 9.604 19.648 18.319 19.584 8.873-0.063 17.027-8.715 17.318-18.377 0.344-11.235-5.734-17.652-16.614-17.699-11.198-0.048-17.328 6.141-19.023 16.492zM257.663 459.628c-12.463-0.063-25.62 13.231-25.403 25.683 0.238 14.179 11.182 23.804 26.504 23.317 14.474-0.456 22.84-9.635 22.617-24.82-0.201-14.369-9.758-24.111-23.718-24.18zM324.176 478.333c-21.633-0.106-39.909 17.98-40.168 39.761-0.281 22.851 17.587 43.032 39.453 42.455 24.682-0.652 40.396-16.535 42.016-42.477 1.144-18.275-20.479-40.861-41.301-39.739zM504.782 338.806c-37.458-0.604-63.151-16.487-83.883-40.692-4.416-5.147-3.685-14.687-5.327-22.205 6.671 1.228 13.538 1.811 19.97 3.801 19.346 6.003 38.12 15.27 57.878 18.234 26.249 3.928 50.821-5.505 73.682-18.922 3.975-2.34 9.524-2.002 14.347-2.891-0.746 5.126 0.116 11.331-2.494 15.217-18.658 27.837-42.873 47.067-74.174 47.459zM730.496 396.716c-2.393-1.62-7.201-1.695-9.975-0.435-20.807 9.424-28.991 7.794-44.52-10.456h72.791c0.276 1.54 0.551 3.086 0.826 4.632-4.585 6.639-8.889 13.215-19.123 6.259zM274.149 404.736c-3.854-1.053-6.872-5.172-10.271-7.884 3.711-1.493 7.502-4.405 11.129-4.209 11.975 0.641 23.888 2.409 35.832 3.743 0.032-0.296 0.064-0.593 0.101-0.894 1.646-0.095 3.314-0.429 4.924-0.238 3.727 0.439 7.422 1.132 11.133 1.72-3.33 2.398-6.66 4.802-9.985 7.206-14.125 10.164-28.658 4.457-42.863 0.556z"  horiz-adv-x="1024" />

    
    <glyph glyph-name="comiishuifushu" unicode="&#58886;" d="M679.850845-16.976994c-4.095223 0-8.211433 1.31311-11.701067 4.013279l-160.984453 124.753017-1.75481 0 0.245833 1.159214-3.664515 2.844072 4.501948 5.810061 0.523645-2.402371 0.92937 4.271104 2.523289 3.251795-0.911382 4.191158 4.150186 19.121036 6.539566 0 171.337433-132.767584c8.345342-6.467615 9.864312-18.477472 3.397696-26.833807-3.767446-4.854709-9.418614-7.400982-15.13274-7.400982L679.850845-16.976994zM321.90833 111.789303c-13.810636 0.337771-48.533894 7.031233-82.494868 20.849864-38.668583 15.745325-74.083571 40.4124-102.409366 71.341431-28.4667 31.072933-49.973918 68.705218-62.19763 108.810027-8.386314 27.523339-12.294664 57.424466-12.294664 94.122385l0 79.585241c0 24.913509 1.172205 57.731258 10.314007 90.672724 11.232384 40.467363 31.837414 78.667463 59.584402 110.4719 27.540328 31.567597 62.311553 57.071106 100.555623 73.757392 35.670815 15.559451 73.93767 23.492072 113.735687 23.56942 7.476931 0.01499 14.95586 0.011992 22.428793 0.004397l301.821565-0.004397c28.358773 0 53.337637-2.833479 76.368022-8.656131 40.788146-10.322002 79.4979-30.092597 111.952696-57.173037 32.134213-26.817818 58.383216-60.992447 75.915329-98.831792 17.045443-36.78406 26.094308-78.100848 26.176053-119.475196 0.030979-14.94027 0.020986-29.880741 0.009993-44.82301 0-7.461341-0.009993-14.913888-0.009993-22.377228 0-4.332463 0.030979-8.684112 0.060959-13.037161 0.133909-20.22169 0.276812-41.12152-2.473323-62.124679-5.532249-42.209382-20.857858-83.3333-44.33594-118.92317-22.963431-34.818393-53.917244-64.699933-89.505915-86.40122-36.508247-22.274898-78.323697-36.143295-120.924813-40.116601-5.476287-0.511653-11.066497-0.871409-16.614735-1.067276-10.546849-0.347764-19.410839 7.882656-19.780589 18.435501-0.369749 10.564837 7.883655 19.422831 18.441497 19.792581 4.809739 0.163889 9.655454 0.47168 14.397239 0.923374 36.837024 3.439668 72.996309 15.42754 104.566704 34.686483 30.810111 18.795257 57.612739 44.663518 77.495258 74.811078 20.305233 30.777133 33.557048 66.334825 38.341804 102.828083 2.406368 18.393929 2.277456 37.10924 2.145545 56.909815-0.026982 4.435393-0.055962 8.86399-0.055962 13.28899 0 7.466338 0.002998 14.929878 0.013991 22.403211 0.009993 14.905294 0.01499 29.811188-0.013991 44.72008-0.067954 35.892665-7.899644 71.66681-22.630457 103.472646-15.172713 32.746198-37.898305 62.328541-65.717444 85.548198-28.085758 23.432513-61.566058 40.536916-96.831148 49.456868-19.920494 5.04358-41.831438 7.491321-66.99138 7.491321L369.110327 746.736209c-7.442954 0.002598-14.884908 0.010393-22.332858-0.004997-34.530588-0.066555-67.675916-6.926304-98.514008-20.378583-33.093563-14.438211-63.187959-36.515243-87.03479-63.847511-24.009721-27.52274-41.835436-60.563738-51.550849-95.558012-6.251761-22.532723-8.920952-46.59321-8.920952-80.448656l0-79.574249c0-32.81755 3.380708-59.179276 10.632791-82.974943 10.569834-34.684484 29.181215-67.236214 53.814314-94.12998 24.524372-26.783841 55.172393-48.133166 88.630708-61.757928 29.834772-12.141768 60.127034-17.807926 68.996021-18.033773 10.153116-0.247832 51.114145-1.263144 57.615737-1.263144l136.881794 1.271138-8.73108-39.375304-128.113739-0.051965c-6.395664 0-51.954575 1.027303-58.573087 1.191192L321.90833 111.789303zM275.346099 454.15338 275.346099 454.15338c0-19.006114 15.415548-34.419064 34.422661-34.419064 19.010111 0 34.422462 15.41295 34.422462 34.419064l0 0 0 0c0 19.01111-15.411551 34.42406-34.422462 34.42406C290.761648 488.57744 275.346099 473.16449 275.346099 454.15338 275.346099 435.147266 275.346099 454.15338 275.346099 454.15338zM470.181401 454.15338 470.181401 454.15338c0-19.006114 15.41255-34.419064 34.423661-34.419064 19.01111 0 34.418464 15.41295 34.418464 34.419064l0 0 0 0c0 19.01111-15.407554 34.42406-34.418464 34.42406C485.598948 488.57744 470.181401 473.16449 470.181401 454.15338 470.181401 435.147266 470.181401 454.15338 470.181401 454.15338zM665.018901 459.254921c0-19.01111 15.407554-34.419064 34.418464-34.419064s34.418464 15.407953 34.418464 34.419064c0 19.01111-15.407554 34.419064-34.418464 34.419064S665.018901 478.266032 665.018901 459.254921z"  horiz-adv-x="1024" />

    
    <glyph glyph-name="yinyong" unicode="&#59103;" d="M417.522232 326.86881500000004h145.616472l32.380478 145.712663H449.972295zM512 831.305559c-246.403946 0-446.154339-199.750393-446.154339-446.15434 0-88.355327 25.689079-170.70794 69.997214-240.007259L83.169211-63.304535999999985l210.115462 59.531862c64.632019-36.424584 139.238204-57.230446 218.714304-57.230446 246.403946 0 446.154339 199.750393 446.154339 446.154339S758.403946 831.305559 512 831.305559z m250.895237-358.724081H653.80568l-32.380478-145.713686h109.092627l-12.954033-58.285475H608.472192l-32.381501-145.716756h-58.285475l32.381501 145.716756H404.542616l-32.451086-145.716756h-58.285475l32.381502 145.716756h-99.966783l12.979616 58.285475h99.940177l32.380478 145.713686h-99.869569l12.978593 58.285474h99.842962l25.903973 116.566856h58.534138l-25.959231-116.566856H608.472192l25.903973 116.566856h58.285474l-25.903973-116.566856h109.090581l-12.95301-58.285474z"  horiz-adv-x="1024" />

    
    <glyph glyph-name="shipin" unicode="&#59105;" d="M927.3846157226562 799.3846157226562l-34.61538427734375 0 0-69.23076943359375-103.8461537109375 0L788.9230768554688 799.3846157226562 235.07692314453124 799.3846157226562l0-69.23076943359375L131.2307694335937 730.1538462890626 131.2307694335937 799.3846157226562 96.61538427734376 799.3846157226562C77.54230742187502 799.3846157226562 62 783.8423074218749 62 764.7692305664063l0-761.5384611328126c0-19.07307685546875 15.542307421875-34.61538427734375 34.61538427734375-34.61538427734375l34.61538427734375 0 0 34.61538427734375 103.8461537109375 0 0-34.61538427734375 553.8461537109376 0 0 34.61538427734375 103.8461537109375 0 0-34.61538427734375 34.61538427734375 0c19.07307685546875 0 34.61538427734375 15.542307421875 34.61538427734375 34.61538427734375L962 764.7692305664063C962 783.8423074218749 946.457692578125 799.3846157226562 927.3846157226562 799.3846157226562zM235.07692314453124 107.07692314453118L131.2307694335937 107.07692314453118l0 103.8461537109375 103.8461537109375 0L235.07692314453124 107.07692314453118zM235.07692314453124 314.76923056640624L131.2307694335937 314.76923056640624l0 103.8461537109375 103.8461537109375 0L235.07692314453124 314.76923056640624zM235.07692314453124 522.4615388671875L131.2307694335937 522.4615388671875 131.2307694335937 626.307692578125l103.8461537109375 0L235.07692314453124 522.4615388671875zM670.8153842773438 361.29230742187497l-225.10384628906252-131.2961537109375c-3.6692305664062506-1.8346157226562498-7.68461572265625-2.6999999999999997-11.66538427734375-2.6999999999999997-4.776923144531249 0-9.41538427734375 1.2807694335937498-13.6384611328125 3.7730768554687497C412.79230742187497 235.6730768554687 408.1538462890625 243.91153886718746 408.1538462890625 252.70384628906243L408.1538462890625 515.2615388671875c0 8.82692314453125 4.6384611328125 17.065384277343753 12.253846289062501 21.669230566406252 7.68461572265625 4.6384611328125 17.27307685546875 5.0538462890625 25.26923056640625 1.0384611328125l225.10384628906252-131.2615388671875C679.5384611328125 402.38076943359374 685.0769231445313 393.62307685546875 685.0769231445313 384S679.5384611328125 365.61923056640626 670.8153842773438 361.29230742187497zM892.7692305664063 107.07692314453118l-103.8461537109375 0 0 103.8461537109375 103.8461537109375 0L892.7692305664063 107.07692314453118zM892.7692305664063 314.76923056640624l-103.8461537109375 0 0 103.8461537109375 103.8461537109375 0L892.7692305664063 314.76923056640624zM892.7692305664063 522.4615388671875l-103.8461537109375 0L788.9230768554688 626.307692578125l103.8461537109375 0L892.7692305664063 522.4615388671875z"  horiz-adv-x="1024" />

    
    <glyph glyph-name="dashang1" unicode="&#59108;" d="M592.9721728000001-71.05526080000004c-75.97352640000001-4.816906666666667-165.17635626666666 0-165.17635626666666 0s-365.5184245333333 8.047826133333334-365.5184245333333 288.04623146666665 288.7535413333333 460.4474026666667 288.7535413333333 460.4474026666667h316.32441173333336s294.36398826666664-216.12663573333333 294.36398826666664-465.63324586666664c0.0010912-249.53498986666668-368.74716053333333-285.26829653333334-368.74716053333333-282.8603882666667z m70.67198186666666 791.7912202666666H359.70202026666664L252.2772458666667 837.5282154666667s79.82443306666667-23.647924266666667 128.93439786666667-23.647924266666667c49.07940266666667 0 132.92720213333334 24.411992533333333 132.92720213333334 24.411992533333333s77.70141333333332-24.411992533333333 126.810288-24.411992533333333c49.051022933333336 0 132.95667306666667 25.134583466666665 132.95667306666667 25.134583466666665L663.6441546666666 720.7359594666667zM465.8235125333333 92.79052373333343h90.67966506666667v81.2128544h121.19656533333334v65.74155626666666H556.5020853333333v35.7605952H677.6986517333333v65.769936h-85.4359712l101.61785280000001 187.7906037333333H594.5024928L528.7598453333334 402.2568736c-7.535899733333333-14.819656533333333-13.346096-28.817394133333334-17.396750933333333-41.9659232-3.486336 12.157422933333333-9.267061333333334 26.068930133333332-17.454602666666666 41.9659232l-64.49612373333333 126.80919573333334h-99.29290133333333l100.31238719999999-187.7906037333333H346.2129344v-65.769936h119.61057813333333v-35.7605952H346.2129344v-65.74155626666666h119.61057813333333v-81.2128544z"  horiz-adv-x="1024" />

    
    <glyph glyph-name="shouye_xingzhuang" unicode="&#59045;" d="M512.2133333333334 154.13333333333333c83.52 0 151.14666666666665 68.16 151.14666666666665 152.2133333333333s-67.62666666666667 152.2133333333333-151.14666666666665 152.2133333333333S361.06666666666666 390.4 361.06666666666666 306.3466666666667s67.62666666666667-152.2133333333333 151.14666666666665-152.2133333333333zM156.8 420.9066666666667l-87.68-88.32c-18.88-18.986666666666668-47.46666666666667 9.173333333333332-28.69333333333333 28.266666666666666l0.10666666666666667 0.10666666666666667 395.4133333333333 398.2933333333333c39.14666666666667 39.46666666666667 103.03999999999999 39.89333333333333 142.72 0.8533333333333334l405.12-399.04c18.986666666666668-18.666666666666668-8.746666666666666-47.36-28.053333333333335-29.013333333333332l-96.63999999999999 91.73333333333333L816 80.74666666666667c-6.826666666666667-54.29333333333333-56-97.70666666666666-110.61333333333333-97.70666666666666H310.18666666666667c-54.72 0-103.78666666666666 43.413333333333334-110.61333333333333 97.70666666666666L156.8 420.9066666666667z"  horiz-adv-x="1024" />

    
    <glyph glyph-name="jijian_jihuo" unicode="&#59047;" d="M932.48 375.573l-818.56 401.92c-37.76 18.56-71.040-5.44-65.28-47.147l83.2-602.453c8.747-62.933 65.813-95.253 124.16-70.080l196.48 84.48 117.44-133.333c31.36-40.64 77.12-30.933 96.32 26.24l54.4 162.667c5.333 15.893 25.067 33.92 41.493 37.867l159.68 38.613c67.52 16.427 73.173 70.613 10.667 101.227zM672.427 189.12l-43.2-143.36c-7.040-23.36-21.547-24.64-32.427-2.88l-49.173 98.88c-10.88 21.76-31.68 55.040-46.613 74.347l-413.973 536.533 564.693-491.947c18.453-16.107 27.733-48.213 20.693-71.573z"  horiz-adv-x="1024" />

    
    <glyph glyph-name="piaofang" unicode="&#59065;" d="M530.295692 346.260467v55.816237h121.553426c10.275018 0 18.605753 8.329712 18.605754 18.605753 0 10.275018-8.329712 18.605753-18.605754 18.605754H543.246655l121.759111 102.329596c7.265474 7.265474 7.265474 19.045775 0 26.311249s-19.045775 7.265474-26.312272 0L512 461.452 385.306506 567.928033c-7.265474 7.265474-19.045775 7.265474-26.312272 0-7.265474-7.265474-7.265474-19.045775 0-26.311249l121.759111-102.329597H372.150882c-10.275018 0-18.605753-8.329712-18.605754-18.605753s8.329712-18.605753 18.605754-18.605753h120.934326v-55.816237h-120.934326c-10.275018 0-18.605753-8.329712-18.605754-18.605753s8.329712-18.605753 18.605754-18.605754h120.934326v-93.026719c0-10.276041 8.329712-18.605753 18.605754-18.605754s18.605753 8.329712 18.605753 18.605754v93.026719H651.850142c10.275018 0 18.605753 8.329712 18.605753 18.605754 0 10.275018-8.329712 18.605753-18.605753 18.605753l-121.55445 0.001023z m428.231131-58.784847v-199.76165c0-41.102117-33.379225-74.42199-74.605162-74.42199H140.078339c-41.203424 0-74.605162 33.423227-74.605162 74.42199V287.47562c56.047504 0 101.483322 43.841507 101.483322 97.922216s-45.435819 97.922217-101.483322 97.922217V683.081703c0 41.102117 33.379225 74.42199 74.605162 74.421989h743.843322c41.203424 0 74.605162-33.423227 74.605162-74.421989v-199.76165c-56.047504 0-101.483322-43.841507-101.483322-97.922217s45.435819-97.922217 101.483322-97.922216z"  horiz-adv-x="1024" />

    
    <glyph glyph-name="customer_surface" unicode="&#59167;" d="M512 695.467c-160 0-292.267-130.133-292.267-292.267s132.267-292.267 292.267-292.267c160 0 292.267 130.133 292.267 292.267 0 160-130.133 292.267-292.267 292.267zM652.8 309.333c-38.4-49.067-83.2-74.667-132.267-74.667h-2.133c-81.067 0-142.933 72.533-145.067 74.667-6.4 8.533-6.4 21.333 2.133 29.867 8.533 6.4 21.333 6.4 29.867-2.133 0 0 51.2-59.733 113.067-59.733h2.133c34.133 0 68.267 21.333 98.133 59.733 6.4 8.533 21.333 10.667 29.867 4.267 8.533-10.667 10.667-23.467 4.267-32zM512 10.667c0-17.673 14.327-32 32-32s32 14.327 32 32c0 17.673-14.327 32-32 32-17.673 0-32-14.327-32-32zM951.467 456.533c-17.067 19.2-42.667 36.267-68.267 44.8-44.8 166.4-196.267 283.733-371.2 283.733s-326.4-119.467-369.067-288c-29.867-10.667-53.333-23.467-70.4-42.667-21.333-23.467-29.867-53.333-27.733-89.6 2.133-29.867 10.667-55.467 29.867-74.667 14.933-17.067 34.133-29.867 59.733-40.533 10.667-4.267 21.333-6.4 32-8.533h4.267c10.667 0 19.2 6.4 21.333 17.067 2.133 10.667-6.4 23.467-17.067 23.467-8.533 2.133-17.067 4.267-23.467 6.4-19.2 6.4-32 17.067-42.667 27.733-12.8 12.8-17.067 29.867-19.2 49.067-4.267 27.733 2.133 46.933 17.067 64 14.933 17.067 40.533 27.733 59.733 32h2.133c2.133 0 2.133 2.133 4.267 2.133 0 0 2.133 0 2.133 2.133 4.267 2.133 6.4 6.4 8.533 12.8 32 153.6 170.667 264.533 328.533 264.533 160 0 294.4-108.8 330.667-264.533v-2.133c0-2.133 2.133-4.267 2.133-4.267l4.267-4.267c2.133 0 2.133-2.133 4.267-2.133 0 0 2.133 0 2.133-2.133 23.467-6.4 46.933-19.2 59.733-36.267 12.8-17.067 19.2-36.267 19.2-59.733 0-19.2-6.4-36.267-19.2-49.067-10.667-12.8-25.6-21.333-42.667-27.733-4.267-2.133-8.533-2.133-12.8-2.133-10.667 2.133-21.333-4.267-23.467-14.933-2.133-8.533-64-213.333-281.6-236.8v-46.933c4.267 2.133 6.4 4.267 8.533 6.4 209.067 25.6 290.133 200.533 309.333 251.733 4.267 0 10.667 2.133 17.067 4.267 25.6 10.667 44.8 23.467 59.733 40.533 17.067 21.333 27.733 46.933 29.867 74.667 2.133 34.133-8.533 64-27.733 89.6z"  horiz-adv-x="1024" />

    


  </font>
</defs>
</svg>
